{
.appVersion = "3223";
.formatVersion = 3;
DisplayStrings = (
"I¯̄Ī",
"ŋ"
);
axes = (
{
name = Weight;
tag = wght;
}
);
customParameters = (
{
name = vendorID;
value = "    ";
},
{
name = panose;
value = (
0,
0,
0,
0,
0,
0,
0,
0,
0,
0
);
},
{
name = unicodeRanges;
value = (
0,
1,
5,
31,
33,
35
);
},
{
name = codePageRanges;
value = (
"1252"
);
},
{
name = fsType;
value = (
);
}
);
date = "2023-10-25 20:34:19 +0000";
familyName = Madimi;
features = (
{
automatic = 1;
code = "";
tag = aalt;
},
{
code = "script DFLT;
language dflt;
lookup SUB_2 {
	sub A from [A.ss01 A.ss02];
	sub B from [B.ss01 B.ss02];
	sub C from [C.ss01 C.ss02];
	sub D from [D.ss01];
	sub E from [E.ss01 E.ss02];
	sub F from [F.ss01 F.ss02];
	sub G from [G.ss01 G.ss02];
	sub H from [H.ss01];
	sub I from [I.ss01];
	sub J from [J.ss01];
	sub K from [K.ss01 K.ss02];
	sub L from [L.ss01];
	sub N from [N.ss01];
	sub O from [O.ss01];
	sub P from [P.ss01 P.ss02];
	sub Q from [Q.ss01 Q.ss02 Q.ss03];
	sub R from [R.ss01 R.ss02];
	sub S from [S.ss01 S.ss02];
	sub T from [T.ss01];
	sub V from [V.ss01 V.ss02];
	sub W from [W.ss01];
	sub X from [X.ss01];
	sub Y from [Y.ss01 Y.ss02];
	sub Z from [Z.ss01];
	sub a from [a.ss01 a.ss02];
	sub b from [b.ss01 b.ss02];
	sub c from [c.ss01 c.ss02];
	sub d from [d.ss01 d.ss02];
	sub e from [e.ss01];
	sub f from [f.ss01 f.ss02];
	sub g from [g.ss01 g.ss02 g.ss03];
	sub h from [h.ss01 h.ss02];
	sub i from [i.ss01 i.ss02 i.ss03];
	sub j from [j.ss01];
	sub k from [k.ss01];
	sub n from [n.ss01 n.ss02];
	sub q from [q.ss01 q.ss02];
	sub p from [p.ss01 p.ss02];
	sub r from [r.ss01];
	sub s from [s.ss01 s.ss02];
	sub t from [t.ss01];
	sub u from [u.ss01 u.ss02];
	sub v from [v.ss01 v.ss02];
	sub w from [w.ss01];
	sub x from [x.ss01];
	sub y from [y.ss01 y.ss03];
	sub z from [z.ss01];
	sub one from [one.ss01];
	sub six from [six.ss01];
	sub eight from [eight.ss01];
	sub m from [m.ss01];
	sub M from [M.ss01];
} SUB_2;
script latn;
language dflt;
lookup SUB_2;
";
tag = salt;
},
{

glyphs = (
{
color = 5;
glyphname = A;
lastChange = "2023-10-31 19:55:38 +0000";
layers = (
{
anchors = (
{
name = bottom;
pos = (287,0);
},
{
name = ogonek;
pos = (516,10);
},
{
name = top;
pos = (287,700);
}
);
hints = (
{
horizontal = 1;
place = (652,72);
type = Stem;
},
{
horizontal = 1;
place = (313,73);
type = Stem;
},
{
horizontal = 1;
place = (-24,21);
target = up;
type = BottomGhost;
},
{
place = (410,91);
type = Stem;
},
{
place = (73,90);
type = Stem;
}
);
layerId = "2F065738-4B59-43EB-A5F2-FD5F277958EA";
shapes = (
{
closed = 1;
nodes = (
(73,5,o),
(97,-8,o),
(118,-8,cs),
(135,-8,o),
(152,0,o),
(160,16,cs),
(164,23,o),
(163,35,o),
(163,44,cs),
(163,231,l),
(163,260,l),
(166,304,o),
(186,311,o),
(246,311,cs),
(325,311,o),
(390,314,o),
(434,320,c),
(434,25,ls),
(434,5,o),
(461,-8,o),
(480,-8,cs),
(500,-8,o),
(525,5,o),
(525,28,cs),
(525,675,ls),
(525,711,o),
(481,711,o),
(456,711,cs),
(233,711,ls),
(149,711,o),
(73,647,o),
(73,560,cs),
(73,28,ls)
);
},
{
closed = 1;
nodes = (
(162,521,ls),
(162,538,o),
(162,570,o),
(167,586,cs),
(176,615,o),
(202,639,o),
(234,639,cs),
(435,639,l),
(435,572,l),
(434,422,l),
(434,395,l),
(248,395,ls),
(208,395,o),
(181,388,o),
(162,370,c)
);
}
);
width = 573;
}
);
note = A;
unicode = 65;
},
{
color = 5;
glyphname = B;
lastChange = "2023-10-31 19:55:38 +0000";
layers = (
{
anchors = (
{
name = bottom;
pos = (265,0);
},
{
name = center;
pos = (265,350);
},
{
name = top;
pos = (265,700);
}
);
hints = (
{
horizontal = 1;
place = (653,72);
type = Stem;
},
{
horizontal = 1;
place = (315,72);
type = Stem;
},
{
horizontal = 1;
place = (-24,72);
type = Stem;
},
{
place = (389,90);
type = Stem;
},
{
place = (51,90);
type = Stem;
}
);
layerId = "2F065738-4B59-43EB-A5F2-FD5F277958EA";
shapes = (
{
closed = 1;
nodes = (
(288,-11,ls),
(392,-11,o),
(484,34,o),
(484,188,cs),
(484,287,o),
(456,323,o),
(422,350,c),
(456,377,o),
(484,454,o),
(484,502,cs),
(484,677,o),
(360,711,o),
(276,711,cs),
(89,712,o),
(51,579,o),
(51,486,cs),
(51,25,ls),
(51,2,o),
(76,-11,o),
(96,-11,cs)
);
},
{
closed = 1;
nodes = (
(141,185,l),
(141,294,o),
(174,315,o),
(271,315,cs),
(344,315,o),
(400,265,o),
(400,182,cs),
(400,142,o),
(386,61,o),
(285,61,cs),
(141,61,l)
);
},
{
closed = 1;
nodes = (
(141,525,l),
(141,608,o),
(227,638,o),
(271,638,c),
(340,638,o),
(400,590,o),
(400,502,cs),
(400,430,o),
(364,382,o),
(271,382,cs),
(159,382,o),
(141,359,o),
(141,359,c)
);
}
);
width = 529;
}
);
note = B;
unicode = 66;
},
{
color = 5;
glyphname = C;
lastChange = "2023-10-31 19:55:38 +0000";
layers = (
{
anchors = (
{
name = bottom;
pos = (260,0);
},
{
name = top;
pos = (260,700);
}
);
background = {
shapes = (
{
closed = 0;
nodes = (
(270,712,ls),
(102,712,o),
(27,601,o),
(27,350,cs),
(27,99,o),
(102,-12,o),
(270,-12,cs)
);
},
{
closed = 0;
nodes = (
(270,72,ls),
(159,72,o),
(125,138,o),
(125,350,cs),
(125,562,o),
(159,628,o),
(270,628,cs)
);
}
);
};
hints = (
{
horizontal = 1;
place = (659,72);
type = Stem;
},
{
horizontal = 1;
place = (-24,71);
type = Stem;
},
{
place = (51,90);
type = Stem;
}
);
layerId = "2F065738-4B59-43EB-A5F2-FD5F277958EA";
shapes = (
{
closed = 1;
nodes = (
(485,581,o),
(454,712,o),
(270,712,cs),
(125,712,o),
(27,620,o),
(25,356,c),
(23,199,o),
(64,93,o),
(95,62,cs),
(175,-18,o),
(205,-9,o),
(434,-9,c),
(447,-9,o),
(472,8,o),
(472,30,c),
(472,71,o),
(434,72,o),
(434,72,c),
(264,72,l),
(168,72,o),
(125,124,o),
(125,356,c),
(125,395,o),
(101,629,o),
(271,629,cs),
(354,629,o),
(390,574,o),
(395,541,cs),
(400,510,o),
(403,488,o),
(442,488,cs),
(463,488,o),
(488,501,o),
(487,524,cs)
);
},
{
closed = 0;
nodes = (
(288,-1,l)
);
}
);
width = 520;
}
);
note = C;
unicode = 67;
},
{
color = 5;
glyphname = D;
lastChange = "2023-10-31 19:55:38 +0000";
layers = (
{
anchors = (
{
name = bottom;
pos = (265,0);
},
{
name = center;
pos = (265,350);
},
{
name = top;
pos = (265,700);
}
);
hints = (
{
horizontal = 1;
place = (652,72);
type = Stem;
},
{
horizontal = 1;
place = (-25,73);
type = Stem;
},
{
place = (389,90);
type = Stem;
},
{
place = (51,90);
type = Stem;
}
);
layerId = "2F065738-4B59-43EB-A5F2-FD5F277958EA";
shapes = (
{
closed = 1;
nodes = (
(28,4,o),
(48,-12,o),
(76,-12,cs),
(234,-12,ls),
(402,-12,o),
(477,99,o),
(477,350,cs),
(477,601,o),
(402,712,o),
(234,712,cs),
(62,712,o),
(28,712,o),
(28,712,cs),
(28,712,o),
(28,685,o),
(28,26,cs)
);
},
{
closed = 1;
nodes = (
(124,628,l),
(234,628,ls),
(345,628,o),
(379,562,o),
(379,350,cs),
(379,138,o),
(345,72,o),
(234,72,cs),
(124,72,l)
);
}
);
width = 529;
}
);
note = D;
unicode = 68;
},
{
color = 5;
glyphname = E;
lastChange = "2023-10-31 19:55:38 +0000";
layers = (
{
anchors = (
{
name = bottom;
pos = (265,0);
},
{
name = ogonek;
pos = (476,10);
},
{
name = top;
pos = (265,700);
},
{
name = topleft;
pos = (20,700);
}
);
hints = (
{
horizontal = 1;
place = (652,72);
type = Stem;
},
{
horizontal = 1;
place = (314,72);
type = Stem;
},
{
horizontal = 1;
place = (-25,71);
type = Stem;
},
{
place = (51,90);
type = Stem;
}
);
layerId = "2F065738-4B59-43EB-A5F2-FD5F277958EA";
shapes = (
{
closed = 1;
nodes = (
(424,-12,ls),
(441,-12,o),
(457,-8,o),
(457,24,cs),
(457,25,o),
(457,58,o),
(424,58,cs),
(424,58,o),
(317,58,o),
(286,58,c),
(223,60,o),
(141,52,o),
(141,141,c),
(141,237,ls),
(141,268,o),
(151,316,o),
(204,316,cs),
(219,316,o),
(386,316,o),
(386,316,c),
(386,316,o),
(419,316,o),
(419,351,cs),
(419,386,o),
(386,386,o),
(386,386,cs),
(227,386,l),
(197,386,o),
(167,380,o),
(141,369,c),
(141,561,ls),
(141,650,o),
(234,642,o),
(298,642,c),
(424,642,ls),
(441,642,o),
(457,653,o),
(457,676,cs),
(457,711,o),
(424,712,o),
(424,712,cs),
(211,712,ls),
(127,712,o),
(51,648,o),
(51,561,cs),
(51,140,ls),
(51,33,o),
(145,-12,o),
(238,-12,cs)
);
}
);
width = 529;
}
);
note = E;
unicode = 69;
},
{
color = 5;
glyphname = F;
lastChange = "2023-10-31 19:55:38 +0000";
layers = (
{
anchors = (
{
name = bottom;
pos = (265,0);
},
{
name = top;
pos = (265,700);
}
);
hints = (
{
horizontal = 1;
place = (652,72);
type = Stem;
},
{
horizontal = 1;
place = (313,72);
type = Stem;
},
{
horizontal = 1;
place = (-24,21);
target = up;
type = BottomGhost;
},
{
place = (51,89);
type = Stem;
}
);
layerId = "2F065738-4B59-43EB-A5F2-FD5F277958EA";
shapes = (
{
closed = 1;
nodes = (
(51,24,ls),
(51,1,o),
(75,-12,o),
(95,-12,cs),
(112,-12,o),
(130,-4,o),
(137,12,cs),
(139,16,o),
(140,176,o),
(141,237,cs),
(141,268,o),
(151,316,o),
(204,316,cs),
(386,316,l),
(386,316,o),
(419,316,o),
(419,351,cs),
(419,386,o),
(386,386,o),
(386,386,c),
(227,386,ls),
(197,386,o),
(167,380,o),
(141,369,c),
(141,561,ls),
(141,650,o),
(234,642,o),
(298,642,cs),
(424,642,ls),
(441,642,o),
(457,653,o),
(457,676,cs),
(457,711,o),
(424,712,o),
(424,712,c),
(211,712,ls),
(127,712,o),
(51,648,o),
(51,561,cs)
);
}
);
width = 530;
}
);
note = F;
unicode = 70;
},
{
color = 5;
glyphname = G;
lastChange = "2023-10-31 19:55:38 +0000";
layers = (
{
anchors = (
{
name = bottom;
pos = (265,0);
},
{
name = top;
pos = (265,700);
}
);
hints = (
{
horizontal = 1;
place = (653,71);
type = Stem;
},
{
horizontal = 1;
place = (314,72);
type = Stem;
},
{
horizontal = 1;
place = (-24,72);
type = Stem;
},
{
place = (389,90);
type = Stem;
},
{
place = (51,90);
type = Stem;
}
);
layerId = "2F065738-4B59-43EB-A5F2-FD5F277958EA";
shapes = (
{
closed = 1;
nodes = (
(275,-8,cs),
(383,-8,o),
(480,53,o),
(480,151,cs),
(480,170,o),
(479,190,o),
(479,210,cs),
(479,350,ls),
(479,373,o),
(454,386,o),
(434,386,cs),
(333,386,ls),
(304,386,o),
(220,397,o),
(220,350,cs),
(220,306,o),
(284,314,o),
(313,314,cs),
(389,314,l),
(389,201,ls),
(389,148,o),
(358,72,o),
(275,72,cs),
(128,72,o),
(129,201,o),
(122,388,cs),
(118,492,o),
(151,629,o),
(273,629,cs),
(395,629,o),
(403,517,o),
(403,517,cs),
(403,494,o),
(427,488,o),
(450,488,cs),
(470,488,o),
(488,501,o),
(485,539,c),
(485,626,o),
(410,712,o),
(273,712,cs),
(172,712,o),
(26,665,o),
(26,388,c),
(28,116,o),
(83,-8,o)
);
}
);
width = 530;
}
);
note = G;
unicode = 71;
},
{
color = 5;
glyphname = H;
lastChange = "2023-10-31 19:55:38 +0000";
layers = (
{
anchors = (
{
name = bottom;
pos = (325,0);
},
{
name = center;
pos = (325,350);
},
{
name = top;
pos = (325,700);
},
{
name = topleft;
pos = (20,700);
}
);
background = {
shapes = (
{
closed = 1;
nodes = (
(158,-14,o),
(176,-6,o),
(183,10,cs),
(190,24,o),
(186,204,o),
(186,235,cs),
(186,291,o),
(225,315,o),
(276,315,cs),
(329,315,o),
(381,314,o),
(434,313,c),
(434,22,ls),
(434,-1,o),
(458,-14,o),
(479,-14,cs),
(499,-14,o),
(524,-1,o),
(524,22,cs),
(524,677,ls),
(524,700,o),
(499,713,o),
(479,713,cs),
(458,713,o),
(434,700,o),
(434,677,cs),
(434,386,l),
(256,386,ls),
(232,386,o),
(208,380,o),
(186,370,c),
(185,541,ls),
(184,684,o),
(301,613,o),
(301,677,cs),
(301,700,o),
(276,713,o),
(256,713,cs),
(172,713,o),
(96,649,o),
(96,562,cs),
(96,22,ls),
(96,-1,o),
(121,-14,o),
(141,-14,cs)
);
}
);
};
hints = (
{
horizontal = 1;
place = (724,-20);
target = down;
type = TopGhost;
},
{
horizontal = 1;
place = (315,71);
type = Stem;
},
{
horizontal = 1;
place = (-24,21);
target = up;
type = BottomGhost;
},
{
place = (389,90);
type = Stem;
},
{
place = (51,90);
type = Stem;
}
);
layerId = "2F065738-4B59-43EB-A5F2-FD5F277958EA";
shapes = (
{
closed = 1;
nodes = (
(174,-8,o),
(192,6,o),
(192,30,cs),
(192,242,ls),
(192,290,o),
(202,312,o),
(270,312,cs),
(477,312,o),
(458,346,o),
(458,346,c),
(458,30,ls),
(458,8,o),
(478,-8,o),
(506,-8,cs),
(536,-8,o),
(554,6,o),
(554,30,cs),
(554,674,ls),
(554,698,o),
(536,712,o),
(506,712,cs),
(478,712,o),
(458,696,o),
(458,674,cs),
(458,387,l),
(268,387,ls),
(227,387,o),
(206,380,o),
(187,360,c),
(191,381,o),
(192,403,o),
(192,512,cs),
(192,674,ls),
(192,698,o),
(174,712,o),
(144,712,cs),
(116,712,o),
(96,696,o),
(96,674,cs),
(96,30,ls),
(96,8,o),
(116,-8,o),
(144,-8,cs)
);
}
);
width = 650;
}
);
note = H;
unicode = 72;
},
{
color = 5;
glyphname = I;
lastChange = "2023-10-31 19:53:09 +0000";
layers = (
{
anchors = (
{
name = bottom;
pos = (265,0);
},
{
name = ogonek;
pos = (476,10);
},
{
name = top;
pos = (265,700);
},
{
name = topleft;
pos = (20,700);
}
);
hints = (
{
horizontal = 1;
place = (652,72);
type = Stem;
},
{
horizontal = 1;
place = (-24,72);
type = Stem;
},
{
place = (220,90);
type = Stem;
}
);
layerId = "2F065738-4B59-43EB-A5F2-FD5F277958EA";
shapes = (
{
closed = 1;
nodes = (
(310,640,l),
(320,632,o),
(328,608,o),
(327,567,cs),
(318,61,l),
(219,61,l),
(214,124,o),
(220,541,o),
(220,640,c)
);
},
{
closed = 1;
nodes = (
(51,2,o),
(75,-11,o),
(96,-11,cs),
(434,-11,ls),
(454,-11,o),
(479,2,o),
(479,25,cs),
(479,48,o),
(454,61,o),
(434,61,cs),
(96,61,ls),
(75,61,o),
(51,48,o),
(51,25,cs)
);
},
{
closed = 1;
nodes = (
(51,653,o),
(75,640,o),
(96,640,cs),
(434,640,ls),
(454,640,o),
(479,653,o),
(479,676,cs),
(479,699,o),
(454,710,o),
(434,712,c),
(96,712,ls),
(75,712,o),
(51,699,o),
(51,676,cs)
);
}
);
width = 529;
}
);
note = I;
unicode = 73;
},
{
color = 0;
glyphname = J;
lastChange = "2023-10-31 19:55:38 +0000";
layers = (
{
anchors = (
{
name = bottom;
pos = (265,0);
},
{
name = top;
pos = (265,700);
}
);
hints = (
{
horizontal = 1;
place = (724,-20);
target = down;
type = TopGhost;
},
{
horizontal = 1;
place = (-24,72);
type = Stem;
},
{
place = (389,90);
type = Stem;
}
);
layerId = "2F065738-4B59-43EB-A5F2-FD5F277958EA";
shapes = (
{
closed = 1;
nodes = (
(319,-12,ls),
(416,-12,o),
(479,60,o),
(479,154,cs),
(479,314,l),
(479,573,ls),
(479,660,o),
(403,724,o),
(319,724,cs),
(299,724,o),
(274,711,o),
(274,688,cs),
(274,630,o),
(389,679,o),
(389,573,cs),
(389,152,ls),
(389,108,o),
(369,60,o),
(317,60,cs),
(212,60,ls),
(178,60,o),
(148,89,o),
(143,122,cs),
(138,152,o),
(136,175,o),
(96,175,cs),
(75,175,o),
(51,162,o),
(51,139,cs),
(51,52,o),
(127,-12,o),
(211,-12,cs)
);
}
);
width = 530;
}
);
note = J;
unicode = 74;
},
{
color = 5;
glyphname = K;
lastChange = "2023-10-31 19:55:38 +0000";
layers = (
{
anchors = (
{
name = bottom;
pos = (265,0);
},
{
name = top;
pos = (265,700);
}
);
background = {
shapes = (
{
closed = 1;
nodes = (
(130,-103,o),
(143,-87,o),
(143,-44,cs),
(143,183,ls),
(143,285,o),
(179,328,o),
(266,328,cs),
(353,328,o),
(389,285,o),
(389,183,cs),
(389,-44,ls),
(389,-87,o),
(402,-103,o),
(435,-103,cs),
(468,-103,o),
(481,-87,o),
(481,-44,cs),
(481,173,ls),
(481,338,o),
(412,402,o),
(266,402,cs),
(120,402,o),
(51,340,o),
(51,173,cs),
(51,-44,ls),
(51,-87,o),
(64,-103,o),
(97,-103,cs)
);
}
);
};
hints = (
{
horizontal = 1;
place = (723,-20);
target = down;
type = TopGhost;
},
{
horizontal = 1;
place = (314,72);
type = Stem;
},
{
horizontal = 1;
place = (-24,21);
target = up;
type = BottomGhost;
},
{
place = (389,90);
type = Stem;
},
{
place = (51,89);
type = Stem;
}
);
layerId = "2F065738-4B59-43EB-A5F2-FD5F277958EA";
shapes = (
{
closed = 0;
nodes = (
(214,273,l)
);
},
{
closed = 1;
nodes = (
(140,560,ls),
(140,625,o),
(147,644,o),
(173,640,cs),
(194,637,o),
(210,610,o),
(264,613,cs),
(294,615,o),
(305,631,o),
(305,652,cs),
(305,682,o),
(258,711,o),
(210,711,cs),
(101,711,o),
(51,660,o),
(51,524,cs),
(51,35,ls),
(51,0,o),
(76,-12,o),
(96,-12,cs),
(122,-12,o),
(141,4,o),
(141,35,cs),
(141,56,o),
(143,103,o),
(142,183,cs),
(142,251,o),
(161,329,o),
(263,329,cs),
(364,329,o),
(391,276,o),
(390,172,cs),
(389,35,ls),
(389,5,o),
(405,-12,o),
(436,-12,cs),
(456,-12,o),
(481,0,o),
(481,35,cs),
(481,241,ls),
(481,271,o),
(456,333,o),
(422,360,c),
(459,392,o),
(482,490,o),
(482,552,cs),
(482,572,o),
(477,619,o),
(434,619,cs),
(390,619,o),
(389,572,o),
(389,572,c),
(389,484,o),
(351,398,o),
(318,398,cs),
(161,398,o),
(145,359,o),
(141,352,c),
(141,424,o),
(140,488,o),
(140,524,cs)
);
}
);
width = 530;
}
);
note = K;
unicode = 75;
},
{
color = 0;
glyphname = L;
lastChange = "2023-10-31 19:55:38 +0000";
layers = (
{
anchors = (
{
name = bottom;
pos = (248,0);
},
{
name = center;
pos = (248,350);
},
{
name = top;
pos = (248,700);
},
{
name = topright;
pos = (476,700);
}
);
hints = (
{
horizontal = 1;
place = (724,-20);
target = down;
type = TopGhost;
},
{
horizontal = 1;
place = (-24,72);
type = Stem;
},
{
place = (356,89);
type = Stem;
},
{
place = (51,89);
type = Stem;
}
);
layerId = "2F065738-4B59-43EB-A5F2-FD5F277958EA";
shapes = (
{
closed = 1;
nodes = (
(285,-24,ls),
(369,-24,o),
(445,40,o),
(445,127,cs),
(445,150,o),
(420,163,o),
(400,163,cs),
(378,163,o),
(358,150,o),
(355,127,cs),
(354,116,ls),
(354,114,o),
(354,112,o),
(353,110,c),
(347,77,o),
(318,48,o),
(284,48,cs),
(141,48,l),
(139,697,l),
(131,715,o),
(116,724,o),
(96,724,cs),
(75,724,o),
(51,711,o),
(51,688,cs),
(51,12,ls),
(51,-11,o),
(75,-24,o),
(96,-24,cs)
);
}
);
width = 496;
}
);
note = L;
unicode = 76;
},
{
color = 5;
glyphname = M;
lastChange = "2023-10-31 19:55:38 +0000";
layers = (
{
anchors = (
{
name = bottom;
pos = (434,0);
},
{
name = top;
pos = (434,700);
}
);
hints = (
{
horizontal = 1;
place = (652,72);
type = Stem;
},
{
horizontal = 1;
place = (-23,21);
target = up;
type = BottomGhost;
},
{
horizontal = 1;
place = (-24,21);
target = up;
type = BottomGhost;
},
{
place = (727,90);
type = Stem;
},
{
place = (389,90);
type = Stem;
},
{
place = (51,90);
type = Stem;
}
);
layerId = "2F065738-4B59-43EB-A5F2-FD5F277958EA";
shapes = (
{
closed = 1;
nodes = (
(467,-13,o),
(480,3,o),
(480,46,cs),
(480,494,ls),
(480,596,o),
(516,639,o),
(603,639,cs),
(690,639,o),
(726,596,o),
(726,494,cs),
(726,46,ls),
(726,3,o),
(739,-13,o),
(772,-13,cs),
(805,-13,o),
(818,3,o),
(818,46,cs),
(818,484,ls),
(818,649,o),
(749,712,o),
(603,712,cs),
(525,712,o),
(469,695,o),
(434,653,c),
(398,695,o),
(343,712,o),
(265,712,cs),
(206,712,o),
(50,728,o),
(50,483,cs),
(50,46,ls),
(50,3,o),
(63,-13,o),
(96,-13,cs),
(129,-13,o),
(142,3,o),
(142,46,cs),
(142,494,ls),
(142,596,o),
(178,639,o),
(265,639,cs),
(352,639,o),
(388,596,o),
(388,494,cs),
(388,46,ls),
(388,3,o),
(401,-13,o),
(434,-13,cs)
);
}
);
width = 867;
}
);
note = M;
unicode = 77;
},
{
color = 5;
glyphname = N;
lastChange = "2023-10-31 19:55:38 +0000";
layers = (
{
anchors = (
{
name = bottom;
pos = (265,0);
},
{
name = top;
pos = (265,700);
}
);
hints = (
{
horizontal = 1;
place = (652,72);
type = Stem;
},
{
horizontal = 1;
place = (-23,21);
target = up;
type = BottomGhost;
},
{
horizontal = 1;
place = (-24,21);
target = up;
type = BottomGhost;
},
{
place = (389,90);
type = Stem;
},
{
place = (51,90);
type = Stem;
}
);
layerId = "2F065738-4B59-43EB-A5F2-FD5F277958EA";
shapes = (
{
closed = 1;
nodes = (
(467,-11,o),
(480,3,o),
(480,46,cs),
(480,482,ls),
(480,649,o),
(411,711,o),
(265,711,cs),
(119,711,o),
(50,647,o),
(50,482,cs),
(50,46,ls),
(50,3,o),
(63,-11,o),
(96,-11,cs),
(129,-11,o),
(142,3,o),
(142,46,c),
(142,492,ls),
(142,594,o),
(178,637,o),
(265,637,cs),
(352,637,o),
(388,594,o),
(388,492,cs),
(388,46,ls),
(388,3,o),
(401,-11,o),
(434,-11,cs)
);
}
);
width = 530;
}
);
note = N;
unicode = 78;
},
{
color = 5;
glyphname = O;
lastChange = "2023-10-31 19:55:38 +0000";
layers = (
{
anchors = (
{
name = bottom;
pos = (333,0);
},
{
name = center;
pos = (333,350);
},
{
name = ogonek;
pos = (599,10);
},
{
name = top;
pos = (333,700);
},
{
name = topleft;
pos = (20,700);
},
{
name = topright;
pos = (646,700);
}
);
hints = (
{
horizontal = 1;
place = (652,72);
type = Stem;
},
{
horizontal = 1;
place = (-24,72);
type = Stem;
},
{
place = (389,90);
type = Stem;
},
{
place = (51,90);
type = Stem;
}
);
layerId = "2F065738-4B59-43EB-A5F2-FD5F277958EA";
shapes = (
{
closed = 1;
nodes = (
(501,-12,o),
(576,99,o),
(576,350,cs),
(576,601,o),
(501,712,o),
(333,712,cs),
(165,712,o),
(90,601,o),
(90,350,cs),
(90,99,o),
(165,-12,o),
(333,-12,cs)
);
},
{
closed = 1;
nodes = (
(222,72,o),
(188,138,o),
(188,350,cs),
(188,562,o),
(222,628,o),
(333,628,cs),
(444,628,o),
(478,562,o),
(478,350,cs),
(478,138,o),
(444,72,o),
(333,72,cs)
);
}
);
width = 666;
}
);
note = O;
unicode = 79;
},
{
color = 5;
glyphname = P;
lastChange = "2023-10-31 19:55:38 +0000";
layers = (
{
anchors = (
{
name = bottom;
pos = (265,0);
},
{
name = top;
pos = (265,700);
}
);
hints = (
{
horizontal = 1;
place = (653,71);
type = Stem;
},
{
horizontal = 1;
place = (314,72);
type = Stem;
},
{
horizontal = 1;
place = (-24,21);
target = up;
type = BottomGhost;
},
{
place = (389,90);
type = Stem;
},
{
place = (51,90);
type = Stem;
}
);
layerId = "2F065738-4B59-43EB-A5F2-FD5F277958EA";
shapes = (
{
closed = 1;
nodes = (
(136,-11,o),
(141,13,o),
(141,45,cs),
(141,199,ls),
(141,313,o),
(201,314,o),
(288,314,cs),
(383,314,o),
(484,359,o),
(484,502,cs),
(484,677,o),
(359,711,o),
(276,711,cs),
(89,711,o),
(51,579,o),
(51,486,cs),
(51,25,ls),
(51,2,o),
(76,-11,o),
(96,-11,cs)
);
},
{
closed = 1;
nodes = (
(141,525,ls),
(141,602,o),
(218,638,o),
(276,638,cs),
(341,638,o),
(400,586,o),
(400,502,cs),
(400,413,o),
(350,382,o),
(260,382,c),
(224,382,o),
(179,380,o),
(141,359,c)
);
}
);
width = 529;
}
);
note = P;
unicode = 80;
},
{
color = 5;
glyphname = Q;
lastChange = "2023-10-31 19:55:38 +0000";
layers = (
{
anchors = (
{
name = bottom;
pos = (265,0);
},
{
name = top;
pos = (265,700);
}
);
background = {
shapes = (
{
closed = 1;
nodes = (
(433,-12,o),
(508,99,o),
(508,350,cs),
(508,601,o),
(433,712,o),
(265,712,cs),
(97,712,o),
(22,601,o),
(22,350,cs),
(22,99,o),
(97,-12,o),
(265,-12,cs)
);
},
{
closed = 1;
nodes = (
(154,72,o),
(120,138,o),
(120,350,cs),
(120,562,o),
(154,628,o),
(265,628,cs),
(376,628,o),
(410,562,o),
(410,350,cs),
(410,138,o),
(376,72,o),
(265,72,cs)
);
}
);
};
hints = (
{
horizontal = 1;
place = (652,72);
type = Stem;
},
{
horizontal = 1;
place = (-24,72);
type = Stem;
},
{
horizontal = 1;
place = (-20,21);
target = up;
type = BottomGhost;
},
{
place = (389,90);
type = Stem;
},
{
place = (274,92);
type = Stem;
},
{
place = (51,90);
type = Stem;
}
);
layerId = "2F065738-4B59-43EB-A5F2-FD5F277958EA";
shapes = (
{
closed = 1;
nodes = (
(265,-12,cs),
(287,-12,o),
(351,-1,o),
(370,7,c),
(370,7,o),
(404,-27,o),
(422,-29,cs),
(440,-31,o),
(471,-2,o),
(471,21,cs),
(471,36,o),
(452,54,o),
(439,60,c),
(515,158,o),
(508,335,o),
(508,335,cs),
(513,695,o),
(357,712,o),
(265,712,cs),
(9,712,o),
(22,436,o),
(22,335,cs),
(22,91,o),
(108,-12,o)
);
},
{
closed = 1;
nodes = (
(107,34,o),
(119,250,o),
(119,335,cs),
(119,499,o),
(124,628,o),
(265,628,cs),
(325,628,o),
(420,628,o),
(410,334,cs),
(408,261,o),
(410,203,o),
(380,134,c),
(367,164,o),
(370,158,o),
(367,164,c),
(364,171,o),
(342,206,o),
(307,193,c),
(278,182,o),
(275,154,o),
(281,134,c),
(281,134,o),
(295,99,o),
(312,76,c)
);
}
);
width = 530;
}
);
note = Q;
unicode = 81;
},
{
color = 5;
glyphname = R;
lastChange = "2023-10-31 19:55:38 +0000";
layers = (
{
anchors = (
{
name = bottom;
pos = (265,0);
},
{
name = top;
pos = (265,700);
}
);
hints = (
{
horizontal = 1;
place = (653,71);
type = Stem;
},
{
horizontal = 1;
place = (314,72);
type = Stem;
},
{
horizontal = 1;
place = (-24,21);
target = up;
type = BottomGhost;
},
{
place = (389,90);
type = Stem;
},
{
place = (51,90);
type = Stem;
}
);
layerId = "2F065738-4B59-43EB-A5F2-FD5F277958EA";
shapes = (
{
closed = 1;
nodes = (
(136,-11,o),
(141,13,o),
(141,45,cs),
(141,199,ls),
(141,271,o),
(201,314,o),
(274,314,c),
(405,313,o),
(389,167,o),
(389,161,cs),
(388,36,ls),
(388,6,o),
(403,-12,o),
(434,-12,c),
(454,-12,o),
(479,1,o),
(479,24,cs),
(479,235,ls),
(479,282,o),
(458,326,o),
(422,350,cs),
(419,352,l),
(458,381,o),
(484,429,o),
(484,502,cs),
(484,677,o),
(359,711,o),
(274,711,cs),
(89,711,o),
(51,579,o),
(51,486,cs),
(51,25,ls),
(51,2,o),
(76,-11,o),
(96,-11,cs)
);
},
{
closed = 1;
nodes = (
(141,525,ls),
(141,602,o),
(218,638,o),
(274,638,cs),
(341,638,o),
(400,586,o),
(400,502,cs),
(400,413,o),
(350,382,o),
(274,382,cs),
(224,382,o),
(179,380,o),
(141,359,c)
);
}
);
width = 529;
}
);
note = R;
unicode = 82;
},
{
color = 0;
glyphname = S;
lastChange = "2023-10-31 19:55:38 +0000";
layers = (
{
anchors = (
{
name = bottom;
pos = (265,0);
},
{
name = top;
pos = (265,700);
}
);
hints = (
{
horizontal = 1;
place = (653,72);
type = Stem;
},
{
horizontal = 1;
place = (314,72);
type = Stem;
},
{
horizontal = 1;
place = (-24,72);
type = Stem;
},
{
place = (388,90);
type = Stem;
},
{
place = (51,90);
type = Stem;
}
);
layerId = "2F065738-4B59-43EB-A5F2-FD5F277958EA";
shapes = (
{
closed = 1;
nodes = (
(128,555,o),
(175,629,o),
(271,629,cs),
(354,629,o),
(390,574,o),
(395,541,cs),
(400,510,o),
(403,488,o),
(442,488,cs),
(463,488,o),
(488,501,o),
(487,524,cs),
(485,581,o),
(454,712,o),
(270,712,cs),
(151,712,o),
(64,650,o),
(35,482,c),
(35,206,o),
(391,417,o),
(400,222,c),
(390,149,o),
(356,71,o),
(258,71,cs),
(175,71,o),
(139,126,o),
(134,159,cs),
(129,190,o),
(126,212,o),
(87,212,cs),
(66,212,o),
(41,199,o),
(42,176,cs),
(44,119,o),
(75,-12,o),
(259,-12,cs),
(379,-12,o),
(467,51,o),
(495,222,c),
(487,338,ls),
(485,367,o),
(345,382,o),
(242,398,cs),
(181,408,o),
(130,429,o),
(129,482,cs)
);
}
);
width = 529;
}
);
note = S;
unicode = 83;
},
{
color = 5;
glyphname = T;
lastChange = "2023-10-31 19:55:38 +0000";
layers = (
{
anchors = (
{
name = bottom;
pos = (265,0);
},
{
name = center;
pos = (265,350);
},
{
name = top;
pos = (265,700);
}
);
hints = (
{
horizontal = 1;
place = (651,73);
type = Stem;
},
{
horizontal = 1;
place = (-24,21);
target = up;
type = BottomGhost;
},
{
place = (220,91);
type = Stem;
},
{
place = (51,89);
type = Stem;
}
);
layerId = "2F065738-4B59-43EB-A5F2-FD5F277958EA";
shapes = (
{
closed = 1;
nodes = (
(226,637,l),
(226,46,ls),
(226,3,o),
(239,-13,o),
(272,-13,cs),
(305,-13,o),
(318,3,o),
(318,46,cs),
(318,637,l),
(442,637,l),
(454,640,o),
(487,647,o),
(487,676,cs),
(487,699,o),
(463,712,o),
(442,712,cs),
(200,712,ls),
(90,712,o),
(49,668,o),
(49,579,cs),
(49,540,o),
(72,502,o),
(97,502,cs),
(115,502,o),
(128,510,o),
(129,536,cs),
(132,579,o),
(110,592,o),
(107,610,cs),
(104,631,o),
(119,637,o),
(172,637,cs)
);
}
);
width = 529;
}
);
note = T;
unicode = 84;
},
{
color = 5;
glyphname = U;
lastChange = "2023-10-31 19:55:38 +0000";
layers = (
{
anchors = (
{
name = bottom;
pos = (265,0);
},
{
name = ogonek;
pos = (476,10);
},
{
name = top;
pos = (265,700);
},
{
name = topright;
pos = (509,700);
}
);
hints = (
{
horizontal = 1;
place = (724,-20);
target = down;
type = TopGhost;
},
{
horizontal = 1;
place = (723,-20);
target = down;
type = TopGhost;
},
{
horizontal = 1;
place = (-24,72);
type = Stem;
},
{
place = (389,90);
type = Stem;
},
{
place = (51,90);
type = Stem;
}
);
layerId = "2F065738-4B59-43EB-A5F2-FD5F277958EA";
shapes = (
{
closed = 1;
nodes = (
(401,713,o),
(388,697,o),
(388,654,cs),
(388,210,ls),
(388,108,o),
(352,65,o),
(265,65,cs),
(178,65,o),
(142,108,o),
(142,210,cs),
(142,654,ls),
(142,697,o),
(129,713,o),
(96,713,cs),
(63,713,o),
(50,697,o),
(50,654,cs),
(50,220,ls),
(50,55,o),
(119,-9,o),
(265,-9,cs),
(411,-9,o),
(480,53,o),
(480,220,cs),
(480,654,ls),
(480,697,o),
(467,713,o),
(434,713,cs)
);
}
);
width = 529;
}
);
note = U;
unicode = 85;
},
{
color = 0;
glyphname = V;
lastChange = "2023-10-31 19:55:38 +0000";
layers = (
{
anchors = (
{
name = bottom;
pos = (264,0);
},
{
name = top;
pos = (264,700);
}
);
hints = (
{
horizontal = 1;
place = (724,-20);
target = down;
type = TopGhost;
},
{
horizontal = 1;
place = (-23,71);
type = Stem;
},
{
place = (388,89);
type = Stem;
},
{
place = (51,90);
type = Stem;
}
);
layerId = "2F065738-4B59-43EB-A5F2-FD5F277958EA";
shapes = (
{
closed = 1;
nodes = (
(280,-23,ls),
(285,-23,o),
(290,-23,o),
(295,-23,cs),
(432,-23,ls),
(453,-23,o),
(477,-10,o),
(477,13,cs),
(477,688,ls),
(477,711,o),
(453,724,o),
(432,724,cs),
(413,724,o),
(396,715,o),
(389,697,c),
(387,49,l),
(374,49,o),
(360,49,o),
(347,49,cs),
(266,48,ls),
(252,48,o),
(239,48,o),
(225,48,cs),
(142,48,o),
(141,105,o),
(141,167,cs),
(141,683,ls),
(141,709,o),
(121,724,o),
(96,724,cs),
(75,724,o),
(51,711,o),
(51,688,cs),
(51,127,ls),
(51,54,o),
(107,-7,o),
(178,-20,cs),
(202,-24,o),
(226,-24,o),
(250,-24,cs)
);
}
);
width = 528;
}
);
note = V;
unicode = 86;
},
{
color = 5;
glyphname = W;
lastChange = "2023-10-31 19:55:38 +0000";
layers = (
{
anchors = (
{
name = bottom;
pos = (434,0);
},
{
name = top;
pos = (434,700);
}
);
hints = (
{
horizontal = 1;
place = (724,-20);
target = down;
type = TopGhost;
},
{
horizontal = 1;
place = (723,-20);
target = down;
type = TopGhost;
},
{
horizontal = 1;
place = (-24,72);
type = Stem;
},
{
place = (727,89);
type = Stem;
},
{
place = (388,91);
type = Stem;
},
{
place = (51,90);
type = Stem;
}
);
layerId = "2F065738-4B59-43EB-A5F2-FD5F277958EA";
shapes = (
{
closed = 1;
nodes = (
(400,713,o),
(387,697,o),
(387,654,cs),
(387,207,ls),
(387,105,o),
(351,62,o),
(264,62,cs),
(177,62,o),
(141,105,o),
(141,207,cs),
(141,654,ls),
(141,697,o),
(128,713,o),
(95,713,cs),
(62,713,o),
(49,697,o),
(49,654,cs),
(49,217,ls),
(49,52,o),
(118,-12,o),
(264,-12,cs),
(342,-12,o),
(398,6,o),
(433,48,c),
(469,6,o),
(524,-12,o),
(602,-12,c),
(648,-9,o),
(817,-42,o),
(817,217,cs),
(817,654,ls),
(817,697,o),
(804,713,o),
(771,713,cs),
(738,713,o),
(725,697,o),
(725,654,cs),
(725,207,ls),
(725,105,o),
(689,62,o),
(602,62,cs),
(515,62,o),
(479,105,o),
(479,207,cs),
(479,654,ls),
(479,697,o),
(466,713,o),
(433,713,cs)
);
}
);
width = 867;
}
);
note = W;
unicode = 87;
},
{
color = 5;
glyphname = X;
lastChange = "2023-10-31 19:55:38 +0000";
layers = (
{
anchors = (
{
name = bottom;
pos = (289,0);
},
{
name = top;
pos = (289,700);
}
);
hints = (
{
horizontal = 1;
place = (653,71);
type = Stem;
},
{
horizontal = 1;
place = (-24,71);
type = Stem;
},
{
place = (244,90);
type = Stem;
}
);
layerId = "2F065738-4B59-43EB-A5F2-FD5F277958EA";
shapes = (
{
closed = 1;
nodes = (
(229,695,o),
(190,712,o),
(148,712,cs),
(95,712,ls),
(75,712,o),
(50,692,o),
(50,669,cs),
(50,635,o),
(69,625,o),
(95,625,cs),
(226,625,o),
(210,381,o),
(210,345,cs),
(210,237,o),
(205,116,o),
(128,81,cs),
(104,70,o),
(79,80,o),
(60,60,cs),
(55,54,o),
(51,49,o),
(51,23,cs),
(51,0,o),
(76,-13,o),
(96,-13,cs),
(148,-13,ls),
(191,-13,o),
(230,2,o),
(258,30,cs),
(259,31,l),
(260,30,ls),
(288,2,o),
(327,-13,o),
(370,-13,cs),
(422,-13,ls),
(442,-13,o),
(467,0,o),
(467,23,cs),
(467,49,o),
(463,54,o),
(458,60,cs),
(439,80,o),
(414,70,o),
(390,81,cs),
(313,116,o),
(308,237,o),
(308,345,cs),
(308,381,o),
(292,625,o),
(423,625,cs),
(449,625,o),
(468,635,o),
(468,669,cs),
(468,692,o),
(443,712,o),
(423,712,cs),
(370,712,ls),
(328,712,o),
(289,695,o),
(260,669,cs),
(259,668,l),
(258,669,ls)
);
}
);
width = 577;
}
);
note = X;
unicode = 88;
},
{
color = 0;
glyphname = Y;
lastChange = "2023-10-31 19:55:38 +0000";
layers = (
{
anchors = (
{
name = bottom;
pos = (266,0);
},
{
name = top;
pos = (266,700);
},
{
name = topleft;
pos = (20,700);
}
);
hints = (
{
horizontal = 1;
place = (724,-20);
target = down;
type = TopGhost;
},
{
horizontal = 1;
place = (723,-20);
target = down;
type = TopGhost;
},
{
horizontal = 1;
place = (314,72);
type = Stem;
},
{
horizontal = 1;
place = (-24,72);
type = Stem;
},
{
place = (389,90);
type = Stem;
},
{
place = (51,90);
type = Stem;
}
);
layerId = "2F065738-4B59-43EB-A5F2-FD5F277958EA";
shapes = (
{
closed = 1;
nodes = (
(319,-24,ls),
(403,-24,o),
(479,40,o),
(479,127,cs),
(479,157,o),
(480,188,o),
(480,218,cs),
(480,271,o),
(461,315,o),
(419,347,c),
(467,384,o),
(480,430,o),
(480,489,cs),
(480,508,o),
(479,528,o),
(479,547,cs),
(479,687,ls),
(479,710,o),
(454,723,o),
(434,723,cs),
(425,723,o),
(415,721,o),
(407,716,cs),
(391,706,o),
(389,695,o),
(389,677,cs),
(389,626,o),
(390,576,o),
(390,525,cs),
(390,474,o),
(394,386,o),
(318,386,cs),
(212,386,ls),
(131,386,o),
(141,481,o),
(141,534,cs),
(141,688,ls),
(141,711,o),
(116,724,o),
(96,724,cs),
(57,724,o),
(50,699,o),
(50,666,cs),
(50,599,o),
(51,532,o),
(51,465,cs),
(51,391,o),
(107,331,o),
(178,317,cs),
(221,309,o),
(267,314,o),
(310,314,cs),
(323,314,o),
(340,306,o),
(350,299,cs),
(385,276,o),
(389,251,o),
(389,212,cs),
(389,128,ls),
(389,88,o),
(360,48,o),
(318,48,cs),
(212,48,ls),
(123,48,o),
(141,171,o),
(141,229,cs),
(141,255,o),
(122,271,o),
(96,271,cs),
(76,271,o),
(51,258,o),
(51,235,cs),
(51,127,ls),
(51,40,o),
(127,-24,o),
(211,-24,cs)
);
}
);
width = 531;
}
);
note = Y;
unicode = 89;
},
{
color = 0;
glyphname = Z;
lastChange = "2023-10-31 19:55:38 +0000";
layers = (
{
anchors = (
{
name = bottom;
pos = (265,0);
},
{
name = center;
pos = (265,350);
},
{
name = top;
pos = (265,700);
}
);
hints = (
{
horizontal = 1;
place = (652,72);
type = Stem;
},
{
horizontal = 1;
place = (313,72);
type = Stem;
},
{
horizontal = 1;
place = (-24,72);
type = Stem;
},
{
place = (389,90);
type = Stem;
},
{
place = (51,90);
type = Stem;
}
);
layerId = "2F065738-4B59-43EB-A5F2-FD5F277958EA";
shapes = (
{
closed = 1;
nodes = (
(136,-24,o),
(152,-24,o),
(169,-24,cs),
(319,-24,ls),
(403,-24,o),
(479,40,o),
(479,127,cs),
(479,150,o),
(454,163,o),
(434,163,cs),
(415,163,o),
(394,153,o),
(390,133,cs),
(388,125,o),
(389,117,o),
(387,110,cs),
(381,77,o),
(352,48,o),
(318,48,cs),
(259,48,o),
(200,48,o),
(141,48,c),
(141,104,o),
(140,159,o),
(140,214,cs),
(140,256,o),
(152,302,o),
(199,312,cs),
(212,315,o),
(226,314,o),
(239,314,cs),
(266,314,o),
(292,313,o),
(319,313,cs),
(401,313,o),
(479,364,o),
(479,452,cs),
(479,688,ls),
(479,724,o),
(435,724,o),
(410,724,cs),
(394,724,o),
(378,724,o),
(361,724,cs),
(211,724,ls),
(127,724,o),
(51,660,o),
(51,573,cs),
(51,550,o),
(75,537,o),
(96,537,cs),
(115,537,o),
(136,547,o),
(140,567,cs),
(142,575,o),
(141,583,o),
(143,590,cs),
(149,623,o),
(178,652,o),
(212,652,cs),
(271,652,o),
(330,652,o),
(389,652,c),
(389,453,ls),
(389,418,o),
(368,392,o),
(333,386,cs),
(317,384,o),
(301,385,o),
(285,385,cs),
(260,385,o),
(235,386,o),
(211,386,cs),
(127,386,o),
(51,322,o),
(51,235,cs),
(51,12,ls),
(51,-24,o),
(95,-24,o),
(120,-24,cs)
);
}
);
width = 530;
}
);
note = Z;
unicode = 90;
},
{
color = 0;
glyphname = A.ss01;
lastChange = "2023-10-31 19:55:38 +0000";
layers = (
{
anchors = (
{
name = bottom;
pos = (265,0);
},
{
name = ogonek;
pos = (476,10);
},
{
name = top;
pos = (265,700);
}
);
hints = (
{
horizontal = 1;
place = (652,72);
type = Stem;
},
{
horizontal = 1;
place = (312,73);
type = Stem;
},
{
horizontal = 1;
place = (-24,21);
target = up;
type = BottomGhost;
},
{
place = (388,90);
type = Stem;
},
{
place = (51,90);
type = Stem;
}
);
layerId = "2F065738-4B59-43EB-A5F2-FD5F277958EA";
shapes = (
{
closed = 1;
nodes = (
(113,-24,o),
(130,-16,o),
(138,0,cs),
(142,7,o),
(141,19,o),
(141,28,cs),
(141,123,o),
(141,218,o),
(141,313,c),
(223,313,o),
(305,312,o),
(388,312,c),
(388,292,o),
(388,272,o),
(388,252,cs),
(388,232,o),
(387,9,o),
(390,3,cs),
(398,-15,o),
(415,-24,o),
(434,-24,cs),
(454,-24,o),
(479,-11,o),
(479,12,cs),
(479,688,ls),
(479,724,o),
(435,724,o),
(410,724,cs),
(211,724,ls),
(127,724,o),
(51,660,o),
(51,573,cs),
(51,12,ls),
(51,-11,o),
(75,-24,o),
(96,-24,cs)
);
},
{
closed = 1;
nodes = (
(305,385,o),
(223,386,o),
(140,386,c),
(140,435,o),
(140,485,o),
(140,534,cs),
(140,551,o),
(140,583,o),
(145,599,cs),
(154,628,o),
(180,652,o),
(212,652,cs),
(271,652,o),
(330,652,o),
(389,652,c),
(389,563,o),
(388,474,o),
(388,385,c)
);
}
);
width = 529;
}
);
note = A.ss01;
},
{
color = 0;
glyphname = B.ss01;
lastChange = "2023-10-31 19:55:38 +0000";
layers = (
{
anchors = (
{
name = bottom;
pos = (264,0);
},
{
name = center;
pos = (264,350);
},
{
name = top;
pos = (264,700);
}
);
hints = (
{
horizontal = 1;
place = (652,72);
type = Stem;
},
{
horizontal = 1;
place = (315,71);
type = Stem;
},
{
horizontal = 1;
place = (-24,72);
type = Stem;
},
{
place = (388,90);
type = Stem;
},
{
place = (50,90);
type = Stem;
}
);
layerId = "2F065738-4B59-43EB-A5F2-FD5F277958EA";
shapes = (
{
closed = 1;
nodes = (
(318,-24,ls),
(402,-24,o),
(478,40,o),
(478,127,cs),
(478,235,ls),
(478,282,o),
(455,323,o),
(421,350,c),
(455,377,o),
(478,418,o),
(478,466,cs),
(478,574,ls),
(478,660,o),
(402,724,o),
(318,724,cs),
(95,724,ls),
(75,724,o),
(50,711,o),
(50,688,cs),
(50,17,ls),
(50,-9,o),
(70,-24,o),
(95,-24,cs)
);
},
{
closed = 1;
nodes = (
(140,314,l),
(196,314,o),
(252,315,o),
(308,315,cs),
(355,315,o),
(388,281,o),
(388,234,cs),
(388,128,ls),
(388,88,o),
(359,48,o),
(317,48,cs),
(140,48,l)
);
},
{
closed = 1;
nodes = (
(140,652,l),
(317,652,ls),
(359,652,o),
(388,613,o),
(388,573,cs),
(388,466,ls),
(388,434,o),
(368,399,o),
(336,389,cs),
(328,387,o),
(319,387,o),
(311,386,cs),
(308,386,o),
(306,386,o),
(304,386,cs),
(249,386,o),
(195,386,o),
(140,386,c)
);
}
);
width = 528;
}
);
note = B.ss01;
},
{
color = 0;
glyphname = C.ss01;
lastChange = "2023-10-31 19:55:38 +0000";
layers = (
{
anchors = (
{
name = bottom;
pos = (265,0);
},
{
name = top;
pos = (265,700);
}
);
hints = (
{
horizontal = 1;
place = (659,72);
type = Stem;
},
{
horizontal = 1;
place = (-24,71);
type = Stem;
},
{
place = (388,90);
type = Stem;
},
{
place = (51,90);
type = Stem;
}
);
layerId = "2F065738-4B59-43EB-A5F2-FD5F277958EA";
shapes = (
{
closed = 1;
nodes = (
(420,-24,ls),
(441,-24,o),
(465,-11,o),
(465,12,cs),
(465,47,o),
(425,48,o),
(399,48,cs),
(358,48,o),
(316,47,o),
(274,47,cs),
(260,47,o),
(205,47,o),
(193,51,cs),
(179,56,o),
(166,65,o),
(157,78,cs),
(148,90,o),
(143,104,o),
(141,118,cs),
(139,138,o),
(141,158,o),
(141,178,cs),
(141,295,ls),
(141,416,o),
(141,537,o),
(140,659,c),
(318,659,ls),
(352,659,o),
(381,630,o),
(387,597,cs),
(389,589,o),
(388,581,o),
(390,573,cs),
(394,554,o),
(415,544,o),
(434,544,cs),
(455,544,o),
(479,557,o),
(479,580,cs),
(479,666,o),
(403,731,o),
(319,731,cs),
(95,731,ls),
(75,731,o),
(50,718,o),
(50,695,cs),
(50,565,o),
(51,436,o),
(51,306,cs),
(51,180,ls),
(51,157,o),
(49,135,o),
(52,112,cs),
(61,32,o),
(132,-24,o),
(211,-24,cs)
);
}
);
width = 530;
}
);
note = C.ss01;
},
{
color = 0;
glyphname = D.ss01;
lastChange = "2023-10-31 19:55:38 +0000";
layers = (
{
anchors = (
{
name = bottom;
pos = (265,0);
},
{
name = center;
pos = (265,350);
},
{
name = top;
pos = (265,700);
}
);
hints = (
{
horizontal = 1;
place = (652,72);
type = Stem;
},
{
horizontal = 1;
place = (-24,72);
type = Stem;
},
{
place = (389,90);
type = Stem;
},
{
place = (51,91);
type = Stem;
}
);
layerId = "2F065738-4B59-43EB-A5F2-FD5F277958EA";
shapes = (
{
closed = 1;
nodes = (
(112,-24,o),
(126,-18,o),
(134,-6,c),
(158,-18,o),
(184,-24,o),
(211,-24,cs),
(319,-24,ls),
(403,-24,o),
(479,40,o),
(479,127,cs),
(479,573,ls),
(479,660,o),
(403,724,o),
(319,724,cs),
(114,724,ls),
(89,724,o),
(51,722,o),
(51,688,cs),
(51,12,ls),
(51,-11,o),
(76,-24,o),
(96,-24,cs)
);
},
{
closed = 1;
nodes = (
(175,48,o),
(143,82,o),
(142,118,cs),
(142,291,o),
(141,604,o),
(141,652,c),
(318,652,ls),
(360,652,o),
(389,612,o),
(389,573,cs),
(389,127,ls),
(389,88,o),
(360,48,o),
(318,48,cs),
(212,48,ls)
);
}
);
width = 529;
}
);
note = D.ss01;
},
{
color = 0;
glyphname = E.ss01;
lastChange = "2023-10-31 19:55:38 +0000";
layers = (
{
anchors = (
{
name = bottom;
pos = (265,0);
},
{
name = ogonek;
pos = (476,10);
},
{
name = top;
pos = (265,700);
},
{
name = topleft;
pos = (20,700);
}
);
hints = (
{
horizontal = 1;
place = (651,73);
type = Stem;
},
{
horizontal = 1;
place = (313,73);
type = Stem;
},
{
horizontal = 1;
place = (-25,72);
type = Stem;
},
{
place = (51,90);
type = Stem;
}
);
layerId = "2F065738-4B59-43EB-A5F2-FD5F277958EA";
shapes = (
{
closed = 1;
nodes = (
(435,-26,o),
(479,-24,o),
(479,11,cs),
(479,51,o),
(426,47,o),
(399,47,cs),
(212,47,ls),
(170,47,o),
(141,87,o),
(141,126,cs),
(141,314,l),
(219,314,o),
(296,313,o),
(374,313,cs),
(400,313,o),
(453,311,o),
(453,350,cs),
(453,373,o),
(428,386,o),
(408,386,cs),
(319,386,o),
(230,387,o),
(141,387,c),
(141,651,l),
(191,652,o),
(241,651,o),
(291,651,cs),
(311,651,o),
(439,650,o),
(451,655,cs),
(466,660,o),
(479,671,o),
(479,688,cs),
(479,711,o),
(454,724,o),
(434,724,cs),
(130,724,ls),
(93,724,o),
(51,727,o),
(51,678,cs),
(51,494,o),
(51,310,o),
(51,126,cs),
(51,39,o),
(127,-25,o),
(211,-25,cs),
(410,-26,ls)
);
}
);
width = 529;
}
);
note = E.ss01;
},
{
color = 0;
glyphname = F.ss01;
lastChange = "2023-10-31 19:55:38 +0000";
layers = (
{
anchors = (
{
name = bottom;
pos = (265,0);
},
{
name = top;
pos = (265,700);
}
);
hints = (
{
horizontal = 1;
place = (652,72);
type = Stem;
},
{
horizontal = 1;
place = (313,72);
type = Stem;
},
{
horizontal = 1;
place = (-24,21);
target = up;
type = BottomGhost;
},
{
place = (388,92);
type = Stem;
},
{
place = (51,91);
type = Stem;
}
);
layerId = "2F065738-4B59-43EB-A5F2-FD5F277958EA";
shapes = (
{
closed = 1;
nodes = (
(116,-24,o),
(131,-15,o),
(139,3,cs),
(142,8,o),
(142,159,o),
(142,313,c),
(395,313,ls),
(415,313,o),
(440,326,o),
(440,349,cs),
(440,372,o),
(415,385,o),
(395,385,cs),
(142,385,l),
(142,501,o),
(142,605,o),
(142,635,cs),
(142,652,l),
(318,652,ls),
(354,652,o),
(382,623,o),
(388,590,cs),
(390,582,o),
(389,574,o),
(391,567,cs),
(396,547,o),
(416,537,o),
(435,537,cs),
(455,537,o),
(480,550,o),
(480,573,cs),
(480,660,o),
(404,724,o),
(320,724,cs),
(97,724,ls),
(78,724,o),
(62,715,o),
(54,697,cs),
(50,690,o),
(51,329,o),
(51,297,cs),
(51,12,ls),
(51,-11,o),
(76,-24,o),
(96,-24,cs)
);
}
);
width = 530;
}
);
note = F.ss01;
},
{
color = 0;
glyphname = G.ss01;
lastChange = "2023-10-31 19:55:38 +0000";
layers = (
{
anchors = (
{
name = bottom;
pos = (265,0);
},
{
name = top;
pos = (265,700);
}
);
hints = (
{
horizontal = 1;
place = (652,73);
type = Stem;
},
{
horizontal = 1;
place = (314,72);
type = Stem;
},
{
horizontal = 1;
place = (-24,72);
type = Stem;
},
{
place = (389,90);
type = Stem;
},
{
place = (51,90);
type = Stem;
}
);
layerId = "2F065738-4B59-43EB-A5F2-FD5F277958EA";
shapes = (
{
closed = 1;
nodes = (
(319,-24,ls),
(393,-24,o),
(459,24,o),
(476,97,cs),
(479,115,o),
(480,133,o),
(480,151,cs),
(480,170,o),
(479,190,o),
(479,210,cs),
(479,350,ls),
(479,373,o),
(454,386,o),
(434,386,cs),
(333,386,l),
(290,386,ls),
(264,386,o),
(220,387,o),
(220,350,cs),
(220,306,o),
(285,314,o),
(313,314,cs),
(389,314,l),
(389,201,l),
(389,152,ls),
(389,116,o),
(388,85,o),
(357,61,cs),
(345,53,o),
(332,48,o),
(317,48,cs),
(212,48,ls),
(170,48,o),
(141,88,o),
(141,127,cs),
(141,303,o),
(141,478,o),
(141,653,c),
(182,652,o),
(223,652,o),
(263,652,cs),
(283,652,o),
(304,654,o),
(325,652,cs),
(333,651,o),
(341,648,o),
(348,644,cs),
(371,632,o),
(385,608,o),
(388,582,cs),
(390,564,o),
(390,555,o),
(407,544,cs),
(415,539,o),
(424,537,o),
(434,537,cs),
(454,537,o),
(479,550,o),
(479,573,cs),
(479,646,o),
(422,708,o),
(352,721,cs),
(332,724,o),
(311,725,o),
(291,725,cs),
(96,725,ls),
(78,725,o),
(61,717,o),
(53,700,cs),
(50,692,o),
(51,677,o),
(51,669,cs),
(51,614,o),
(51,559,o),
(51,503,cs),
(51,127,ls),
(51,40,o),
(127,-24,o),
(211,-24,cs)
);
}
);
width = 530;
}
);
note = G.ss01;
},
{
color = 0;
glyphname = H.ss01;
lastChange = "2023-10-31 19:55:38 +0000";
layers = (
{
anchors = (
{
name = bottom;
pos = (265,0);
},
{
name = center;
pos = (265,350);
},
{
name = top;
pos = (265,700);
},
{
name = topleft;
pos = (20,700);
}
);
hints = (
{
horizontal = 1;
place = (724,-20);
target = down;
type = TopGhost;
},
{
horizontal = 1;
place = (314,73);
type = Stem;
},
{
horizontal = 1;
place = (-24,21);
target = up;
type = BottomGhost;
},
{
place = (389,90);
type = Stem;
},
{
place = (51,90);
type = Stem;
}
);
layerId = "2F065738-4B59-43EB-A5F2-FD5F277958EA";
shapes = (
{
closed = 1;
nodes = (
(116,-24,o),
(141,-11,o),
(141,12,cs),
(141,313,l),
(194,314,o),
(247,314,o),
(300,314,cs),
(308,314,o),
(317,314,o),
(325,313,cs),
(356,310,o),
(381,282,o),
(387,252,cs),
(388,246,o),
(388,239,o),
(389,232,c),
(389,12,ls),
(389,-11,o),
(413,-24,o),
(434,-24,cs),
(454,-24,o),
(479,-11,o),
(479,12,cs),
(479,688,ls),
(479,711,o),
(454,724,o),
(434,724,cs),
(413,724,o),
(389,711,o),
(389,688,cs),
(389,371,l),
(357,385,o),
(326,387,o),
(292,387,cs),
(242,387,o),
(191,386,o),
(141,386,c),
(141,688,ls),
(141,711,o),
(116,724,o),
(96,724,cs),
(75,724,o),
(51,711,o),
(51,688,cs),
(51,12,ls),
(51,-11,o),
(75,-24,o),
(96,-24,cs)
);
}
);
width = 529;
}
);
note = H.ss01;
},
{
color = 0;
glyphname = I.ss01;
lastChange = "2023-10-31 19:55:38 +0000";
layers = (
{
anchors = (
{
name = bottom;
pos = (167,0);
},
{
name = ogonek;
pos = (301,10);
},
{
name = top;
pos = (167,700);
},
{
name = topleft;
pos = (20,700);
}
);
hints = (
{
horizontal = 1;
place = (652,72);
type = Stem;
},
{
horizontal = 1;
place = (-24,72);
type = Stem;
},
{
place = (120,90);
type = Stem;
}
);
layerId = "2F065738-4B59-43EB-A5F2-FD5F277958EA";
shapes = (
{
closed = 1;
nodes = (
(238,-24,ls),
(259,-24,o),
(283,-11,o),
(283,12,cs),
(283,35,o),
(259,48,o),
(238,48,cs),
(210,48,l),
(210,652,l),
(235,652,ls),
(255,652,o),
(280,665,o),
(280,688,cs),
(280,711,o),
(255,724,o),
(235,724,cs),
(95,724,ls),
(75,724,o),
(50,711,o),
(50,688,cs),
(50,665,o),
(75,652,o),
(95,652,cs),
(120,652,l),
(120,48,l),
(98,48,ls),
(78,48,o),
(53,35,o),
(53,12,cs),
(53,-11,o),
(78,-24,o),
(98,-24,cs)
);
}
);
width = 334;
}
);
note = I.ss01;
},
{
color = 0;
glyphname = J.ss01;
lastChange = "2023-10-31 19:55:38 +0000";
layers = (
{
anchors = (
{
name = bottom;
pos = (204,0);
},
{
name = top;
pos = (204,700);
}
);
hints = (
{
horizontal = 1;
place = (652,72);
type = Stem;
},
{
horizontal = 1;
place = (-24,72);
type = Stem;
},
{
place = (266,90);
type = Stem;
}
);
layerId = "2F065738-4B59-43EB-A5F2-FD5F277958EA";
shapes = (
{
closed = 1;
nodes = (
(196,-12,ls),
(261,-12,o),
(316,23,o),
(344,82,cs),
(354,104,o),
(356,129,o),
(356,152,cs),
(356,335,o),
(356,492,o),
(356,675,cs),
(356,705,o),
(338,711,o),
(324,711,c),
(189,711,ls),
(168,711,o),
(144,698,o),
(144,675,cs),
(144,637,o),
(191,639,o),
(218,639,cs),
(266,639,l),
(266,469,o),
(266,324,o),
(266,154,cs),
(266,115,o),
(255,76,o),
(213,63,cs),
(194,57,o),
(139,60,o),
(115,60,cs),
(89,60,o),
(51,58,o),
(51,24,cs),
(51,1,o),
(75,-12,o),
(96,-12,cs)
);
}
);
width = 407;
}
);
note = J.ss01;
},
{
color = 0;
glyphname = K.ss01;
lastChange = "2023-10-31 19:55:38 +0000";
layers = (
{
anchors = (
{
name = bottom;
pos = (265,0);
},
{
name = top;
pos = (265,700);
}
);
hints = (
{
horizontal = 1;
place = (725,-20);
target = down;
type = TopGhost;
},
{
horizontal = 1;
place = (649,72);
type = Stem;
},
{
horizontal = 1;
place = (314,72);
type = Stem;
},
{
horizontal = 1;
place = (-24,21);
target = up;
type = BottomGhost;
},
{
place = (388,91);
type = Stem;
},
{
place = (51,90);
type = Stem;
}
);
layerId = "2F065738-4B59-43EB-A5F2-FD5F277958EA";
shapes = (
{
closed = 1;
nodes = (
(116,-11,o),
(141,2,o),
(141,25,cs),
(141,314,l),
(279,314,ls),
(288,314,o),
(298,314,o),
(308,314,cs),
(366,314,o),
(389,274,o),
(389,221,cs),
(389,204,o),
(389,188,o),
(389,172,cs),
(388,88,ls),
(388,71,o),
(388,55,o),
(388,39,cs),
(388,8,o),
(400,-11,o),
(434,-11,cs),
(454,-11,o),
(479,2,o),
(479,25,cs),
(479,235,ls),
(479,322,o),
(403,386,o),
(319,386,cs),
(309,386,l),
(320,452,o),
(351,553,o),
(359,584,cs),
(362,595,o),
(367,607,o),
(375,616,cs),
(393,635,o),
(410,635,o),
(435,635,cs),
(457,635,o),
(487,643,o),
(487,671,cs),
(487,702,o),
(453,707,o),
(429,707,cs),
(359,707,o),
(298,679,o),
(274,610,c),
(220,402,l),
(218,396,o),
(218,391,o),
(217,386,c),
(141,386,l),
(141,675,ls),
(141,698,o),
(116,711,o),
(96,711,cs),
(75,711,o),
(51,698,o),
(51,675,cs),
(51,25,ls),
(51,2,o),
(75,-11,o),
(96,-11,cs)
);
}
);
width = 529;
}
);
note = K.ss01;
},
{
color = 0;
glyphname = L.ss01;
lastChange = "2023-10-31 19:55:38 +0000";
layers = (
{
anchors = (
{
name = bottom;
pos = (236,0);
},
{
name = center;
pos = (236,350);
},
{
name = top;
pos = (236,700);
},
{
name = topright;
pos = (452,700);
}
);
hints = (
{
horizontal = 1;
place = (724,-20);
target = down;
type = TopGhost;
},
{
horizontal = 1;
place = (-24,72);
type = Stem;
},
{
place = (332,89);
type = Stem;
},
{
place = (50,91);
type = Stem;
}
);
layerId = "2F065738-4B59-43EB-A5F2-FD5F277958EA";
shapes = (
{
closed = 1;
nodes = (
(262,-24,ls),
(346,-24,o),
(421,40,o),
(421,127,cs),
(421,150,o),
(397,163,o),
(376,163,cs),
(357,163,o),
(337,153,o),
(332,133,cs),
(330,125,o),
(331,117,o),
(330,109,cs),
(323,77,o),
(295,48,o),
(260,48,cs),
(141,48,l),
(141,688,ls),
(141,711,o),
(116,724,o),
(96,724,cs),
(76,724,o),
(61,715,o),
(53,697,cs),
(50,691,o),
(50,445,o),
(50,424,cs),
(50,287,o),
(51,149,o),
(51,12,cs),
(51,-11,o),
(75,-24,o),
(96,-24,cs)
);
}
);
width = 472;
}
);
note = L.ss01;
},
{
color = 5;
glyphname = M.ss01;
lastChange = "2023-10-31 19:55:38 +0000";
layers = (
{
anchors = (
{
name = bottom;
pos = (433,0);
},
{
name = top;
pos = (433,700);
}
);
background = {
shapes = (
{
closed = 1;
nodes = (
(115,-24,o),
(132,-15,o),
(139,3,cs),
(144,14,o),
(141,590,o),
(141,652,c),
(199,652,o),
(258,652,o),
(316,652,cs),
(348,652,o),
(374,628,o),
(383,599,cs),
(385,592,o),
(386,583,o),
(387,573,cs),
(387,568,o),
(387,564,o),
(387,560,cs),
(387,382,o),
(387,205,o),
(387,28,cs),
(387,23,o),
(386,16,o),
(387,9,cs),
(389,-12,o),
(412,-24,o),
(432,-24,cs),
(452,-24,o),
(476,-11,o),
(477,11,cs),
(477,17,o),
(477,23,o),
(477,29,cs),
(477,92,o),
(477,156,o),
(477,220,cs),
(477,569,ls),
(477,580,o),
(479,591,o),
(481,599,cs),
(490,628,o),
(516,652,o),
(548,652,cs),
(653,652,ls),
(685,652,o),
(712,628,o),
(721,599,cs),
(728,574,o),
(725,533,o),
(725,506,cs),
(724,12,ls),
(724,-11,o),
(749,-24,o),
(769,-24,cs),
(787,-24,o),
(806,-16,o),
(812,1,cs),
(816,9,o),
(815,23,o),
(815,32,cs),
(815,87,o),
(814,142,o),
(814,197,cs),
(815,573,ls),
(815,660,o),
(739,724,o),
(655,724,cs),
(547,724,ls),
(502,724,o),
(462,707,o),
(432,678,c),
(403,707,o),
(361,724,o),
(317,724,cs),
(250,724,o),
(182,724,o),
(115,724,cs),
(89,724,o),
(51,721,o),
(51,687,cs),
(51,12,ls),
(51,-11,o),
(75,-24,o),
(96,-24,cs)
);
}
);
};
hints = (
{
horizontal = 1;
place = (652,72);
type = Stem;
},
{
horizontal = 1;
place = (-24,21);
target = up;
type = BottomGhost;
},
{
place = (725,90);
type = Stem;
},
{
place = (387,90);
type = Stem;
},
{
place = (51,90);
type = Stem;
}
);
layerId = "2F065738-4B59-43EB-A5F2-FD5F277958EA";
shapes = (
{
closed = 1;
nodes = (
(467,-13,o),
(480,3,o),
(480,46,cs),
(480,492,ls),
(480,594,o),
(516,637,o),
(603,637,cs),
(690,637,o),
(726,594,o),
(726,492,cs),
(726,46,ls),
(726,3,o),
(739,-13,o),
(772,-13,cs),
(805,-13,o),
(818,3,o),
(818,46,cs),
(818,482,ls),
(818,647,o),
(749,711,o),
(603,711,cs),
(525,711,o),
(469,693,o),
(434,651,c),
(398,693,o),
(343,711,o),
(265,711,cs),
(147,711,o),
(50,711,o),
(50,711,c),
(50,711,o),
(50,608,o),
(50,482,cs),
(50,46,ls),
(50,3,o),
(63,-13,o),
(96,-13,cs),
(129,-13,o),
(142,3,o),
(142,46,cs),
(142,492,ls),
(142,594,o),
(178,637,o),
(265,637,cs),
(352,637,o),
(388,594,o),
(388,492,cs),
(388,46,ls),
(388,3,o),
(401,-13,o),
(434,-13,cs)
);
}
);
width = 865;
}
);
note = M.ss01;
},
{
color = 5;
glyphname = N.ss01;
lastChange = "2023-10-31 19:55:38 +0000";
layers = (
{
anchors = (
{
name = bottom;
pos = (264,0);
},
{
name = top;
pos = (264,700);
}
);
hints = (
{
horizontal = 1;
place = (652,71);
type = Stem;
},
{
horizontal = 1;
place = (-24,21);
target = up;
type = BottomGhost;
},
{
place = (387,90);
type = Stem;
},
{
place = (51,90);
type = Stem;
}
);
layerId = "2F065738-4B59-43EB-A5F2-FD5F277958EA";
shapes = (
{
closed = 1;
nodes = (
(467,-11,o),
(480,3,o),
(480,46,cs),
(480,482,ls),
(480,649,o),
(411,711,o),
(265,711,cs),
(196,711,o),
(50,711,o),
(50,711,c),
(50,711,o),
(50,490,o),
(50,482,cs),
(50,46,ls),
(50,3,o),
(63,-11,o),
(96,-11,cs),
(129,-11,o),
(142,3,o),
(142,46,c),
(142,492,ls),
(142,594,o),
(178,637,o),
(265,637,cs),
(352,637,o),
(388,594,o),
(388,492,cs),
(388,46,ls),
(388,3,o),
(401,-11,o),
(434,-11,cs)
);
}
);
width = 528;
}
);
note = N.ss01;
},
{
color = 0;
glyphname = O.ss01;
lastChange = "2023-10-31 19:55:38 +0000";
layers = (
{
anchors = (
{
name = bottom;
pos = (265,0);
},
{
name = center;
pos = (265,350);
},
{
name = ogonek;
pos = (477,10);
},
{
name = top;
pos = (265,700);
},
{
name = topleft;
pos = (20,700);
},
{
name = topright;
pos = (510,700);
}
);
background = {
shapes = (
{
closed = 1;
nodes = (
(430,-12,o),
(505,99,o),
(505,350,cs),
(505,601,o),
(430,712,o),
(262,712,cs),
(94,712,o),
(19,601,o),
(19,350,cs),
(19,99,o),
(94,-12,o),
(262,-12,cs)
);
},
{
closed = 1;
nodes = (
(151,72,o),
(117,138,o),
(117,350,cs),
(117,562,o),
(151,628,o),
(262,628,cs),
(373,628,o),
(407,562,o),
(407,350,cs),
(407,138,o),
(373,72,o),
(262,72,cs)
);
}
);
};
hints = (
{
horizontal = 1;
place = (652,72);
type = Stem;
},
{
horizontal = 1;
place = (-24,72);
type = Stem;
},
{
place = (389,90);
type = Stem;
},
{
place = (51,90);
type = Stem;
}
);
layerId = "2F065738-4B59-43EB-A5F2-FD5F277958EA";
shapes = (
{
closed = 1;
nodes = (
(265,-11,ls),
(403,-11,o),
(505,53,o),
(505,351,cs),
(505,351,ls),
(505,648,o),
(364,712,o),
(271,712,cs),
(271,712,ls),
(132,712,o),
(18,648,o),
(18,351,cs),
(18,351,ls),
(18,53,o),
(127,-11,o),
(265,-11,cs)
);
},
{
closed = 1;
nodes = (
(265,70,o),
(117,101,o),
(117,351,cs),
(117,351,ls),
(117,600,o),
(170,627,o),
(265,627,cs),
(265,627,ls),
(360,627,o),
(406,600,o),
(406,351,cs),
(406,351,ls),
(406,101,o),
(265,70,o),
(265,70,cs),
(265,70,ls)
);
}
);
width = 530;
}
);
note = O.ss01;
},
{
color = 0;
glyphname = P.ss01;
lastChange = "2023-10-31 19:55:38 +0000";
layers = (
{
anchors = (
{
name = bottom;
pos = (265,0);
},
{
name = top;
pos = (265,700);
}
);
hints = (
{
horizontal = 1;
place = (652,72);
type = Stem;
},
{
horizontal = 1;
place = (313,73);
type = Stem;
},
{
horizontal = 1;
place = (-24,21);
target = up;
type = BottomGhost;
},
{
place = (390,90);
type = Stem;
},
{
place = (51,90);
type = Stem;
}
);
layerId = "2F065738-4B59-43EB-A5F2-FD5F277958EA";
shapes = (
{
closed = 1;
nodes = (
(116,-24,o),
(133,-15,o),
(140,3,c),
(143,8,o),
(143,195,o),
(143,212,cs),
(143,246,o),
(142,280,o),
(142,314,c),
(293,313,ls),
(313,313,o),
(333,314,o),
(353,318,cs),
(423,330,o),
(480,393,o),
(480,465,cs),
(480,573,ls),
(480,660,o),
(404,724,o),
(320,724,cs),
(169,724,ls),
(153,724,o),
(136,725,o),
(119,725,cs),
(94,725,o),
(51,724,o),
(51,688,cs),
(51,571,o),
(51,455,o),
(51,338,cs),
(51,312,o),
(50,10,o),
(53,3,cs),
(61,-15,o),
(78,-24,o),
(97,-24,cs)
);
},
{
closed = 1;
nodes = (
(211,386,o),
(177,386,o),
(142,387,c),
(142,475,o),
(141,564,o),
(141,652,c),
(319,652,ls),
(360,652,o),
(390,612,o),
(390,573,cs),
(390,466,ls),
(390,432,o),
(370,400,o),
(337,389,cs),
(325,385,o),
(261,386,o),
(245,386,cs)
);
}
);
width = 530;
}
);
note = P.ss01;
},
{
color = 0;
glyphname = Q.ss01;
lastChange = "2023-10-31 19:55:38 +0000";
layers = (
{
anchors = (
{
name = bottom;
pos = (265,0);
},
{
name = top;
pos = (265,700);
}
);
hints = (
{
horizontal = 1;
place = (652,72);
type = Stem;
},
{
horizontal = 1;
place = (-24,72);
type = Stem;
},
{
horizontal = 1;
place = (-20,21);
target = up;
type = BottomGhost;
},
{
place = (389,90);
type = Stem;
},
{
place = (274,92);
type = Stem;
},
{
place = (51,90);
type = Stem;
}
);
layerId = "2F065738-4B59-43EB-A5F2-FD5F277958EA";
shapes = (
{
closed = 1;
nodes = (
(319,-24,ls),
(341,-24,o),
(363,-20,o),
(382,-12,c),
(399,-17,o),
(416,-20,o),
(434,-20,cs),
(455,-20,o),
(479,-7,o),
(479,16,cs),
(479,31,o),
(468,42,o),
(455,48,c),
(470,70,o),
(479,97,o),
(479,127,cs),
(479,688,ls),
(479,711,o),
(454,724,o),
(434,724,cs),
(211,724,ls),
(127,724,o),
(51,660,o),
(51,573,cs),
(51,127,ls),
(51,40,o),
(127,-24,o),
(211,-24,cs)
);
},
{
closed = 1;
nodes = (
(170,48,o),
(141,88,o),
(141,128,cs),
(141,572,ls),
(141,612,o),
(170,652,o),
(212,652,cs),
(389,652,l),
(389,128,ls),
(389,113,o),
(385,98,o),
(378,85,c),
(372,94,o),
(368,104,o),
(366,114,cs),
(365,122,o),
(365,130,o),
(363,137,cs),
(359,157,o),
(338,167,o),
(319,167,cs),
(299,167,o),
(274,154,o),
(274,131,cs),
(274,100,o),
(284,71,o),
(301,48,c),
(212,48,ls)
);
}
);
width = 530;
}
);
note = Q.ss01;
},
{
color = 0;
glyphname = R.ss01;
lastChange = "2023-10-31 19:55:38 +0000";
layers = (
{
anchors = (
{
name = bottom;
pos = (265,0);
},
{
name = top;
pos = (265,700);
}
);
hints = (
{
horizontal = 1;
place = (652,72);
type = Stem;
},
{
horizontal = 1;
place = (314,72);
type = Stem;
},
{
horizontal = 1;
place = (-24,21);
target = up;
type = BottomGhost;
},
{
place = (389,90);
type = Stem;
},
{
place = (51,91);
type = Stem;
}
);
layerId = "2F065738-4B59-43EB-A5F2-FD5F277958EA";
shapes = (
{
closed = 1;
nodes = (
(115,-24,o),
(132,-15,o),
(139,3,c),
(142,8,o),
(142,159,o),
(142,314,c),
(318,314,ls),
(332,314,o),
(346,309,o),
(357,300,cs),
(388,277,o),
(389,246,o),
(389,210,cs),
(389,161,ls),
(389,115,o),
(388,70,o),
(388,24,cs),
(388,-6,o),
(402,-24,o),
(434,-24,cs),
(454,-24,o),
(479,-11,o),
(479,12,cs),
(479,235,ls),
(479,282,o),
(456,323,o),
(422,350,c),
(456,377,o),
(479,418,o),
(479,465,cs),
(479,573,ls),
(479,660,o),
(403,724,o),
(319,724,cs),
(164,724,ls),
(148,724,o),
(132,725,o),
(116,725,cs),
(72,725,o),
(50,718,o),
(50,669,cs),
(50,607,o),
(51,545,o),
(51,483,cs),
(51,12,ls),
(51,-11,o),
(76,-24,o),
(96,-24,cs)
);
},
{
closed = 1;
nodes = (
(142,510,o),
(141,622,o),
(141,649,cs),
(141,652,l),
(318,652,ls),
(360,652,o),
(389,612,o),
(389,573,cs),
(389,466,ls),
(389,434,o),
(369,399,o),
(337,389,cs),
(328,387,o),
(320,387,o),
(312,386,c),
(142,386,l)
);
}
);
width = 529;
}
);
note = R.ss01;
},
{
color = 0;
glyphname = S.ss01;
lastChange = "2023-10-31 19:55:38 +0000";
layers = (
{
anchors = (
{
name = bottom;
pos = (265,0);
},
{
name = top;
pos = (265,700);
}
);
hints = (
{
horizontal = 1;
place = (652,72);
type = Stem;
},
{
horizontal = 1;
place = (315,71);
type = Stem;
},
{
horizontal = 1;
place = (-24,72);
type = Stem;
},
{
place = (388,90);
type = Stem;
},
{
place = (384,91);
type = Stem;
},
{
place = (51,90);
type = Stem;
}
);
layerId = "2F065738-4B59-43EB-A5F2-FD5F277958EA";
shapes = (
{
closed = 1;
nodes = (
(188,-24,l),
(319,-24,ls),
(403,-24,o),
(478,40,o),
(478,127,cs),
(478,235,ls),
(478,266,o),
(467,297,o),
(448,323,cs),
(391,399,o),
(306,386,o),
(222,386,cs),
(174,386,o),
(141,418,o),
(141,466,cs),
(141,652,l),
(314,652,ls),
(348,652,o),
(377,623,o),
(383,591,cs),
(384,583,o),
(384,575,o),
(385,567,cs),
(390,547,o),
(411,537,o),
(430,537,cs),
(450,537,o),
(475,550,o),
(475,573,cs),
(475,660,o),
(399,724,o),
(315,724,cs),
(96,724,ls),
(75,724,o),
(51,711,o),
(51,688,cs),
(51,465,ls),
(51,434,o),
(62,403,o),
(81,377,cs),
(137,303,o),
(214,315,o),
(297,315,cs),
(309,315,o),
(324,315,o),
(336,311,cs),
(369,300,o),
(388,267,o),
(388,234,cs),
(388,127,ls),
(388,112,o),
(384,96,o),
(376,83,cs),
(354,47,o),
(328,48,o),
(291,48,cs),
(231,48,l),
(96,48,ls),
(75,48,o),
(51,35,o),
(51,12,cs),
(51,-22,o),
(89,-24,o),
(114,-24,cs)
);
}
);
width = 529;
}
);
note = S.ss01;
},
{
color = 0;
glyphname = T.ss01;
lastChange = "2023-10-31 19:55:38 +0000";
layers = (
{
anchors = (
{
name = bottom;
pos = (265,0);
},
{
name = center;
pos = (265,350);
},
{
name = top;
pos = (265,700);
}
);
hints = (
{
horizontal = 1;
place = (652,73);
type = Stem;
},
{
horizontal = 1;
place = (-24,21);
target = up;
type = BottomGhost;
},
{
place = (221,91);
type = Stem;
}
);
layerId = "2F065738-4B59-43EB-A5F2-FD5F277958EA";
shapes = (
{
closed = 1;
nodes = (
(287,-24,o),
(299,-15,o),
(309,3,cs),
(312,8,o),
(312,248,o),
(312,267,cs),
(312,395,o),
(311,523,o),
(311,651,c),
(323,651,ls),
(349,651,o),
(374,651,o),
(399,651,cs),
(426,651,o),
(479,649,o),
(479,688,cs),
(479,711,o),
(455,724,o),
(434,724,cs),
(333,724,o),
(232,725,o),
(130,725,cs),
(104,725,o),
(51,727,o),
(51,688,cs),
(51,665,o),
(75,652,o),
(96,652,cs),
(121,652,o),
(146,652,o),
(171,652,cs),
(221,652,l),
(220,583,o),
(220,438,o),
(220,423,cs),
(220,286,o),
(221,149,o),
(221,12,cs),
(221,-11,o),
(245,-24,o),
(266,-24,cs)
);
}
);
width = 530;
}
);
note = T.ss01;
},
{
color = 0;
glyphname = V.ss01;
lastChange = "2023-10-31 19:55:38 +0000";
layers = (
{
anchors = (
{
name = bottom;
pos = (264,0);
},
{
name = top;
pos = (264,700);
}
);
hints = (
{
horizontal = 1;
place = (724,-20);
target = down;
type = TopGhost;
},
{
horizontal = 1;
place = (-23,21);
target = up;
type = BottomGhost;
},
{
place = (51,426);
type = Stem;
}
);
layerId = "2F065738-4B59-43EB-A5F2-FD5F277958EA";
shapes = (
{
closed = 1;
nodes = (
(284,-23,o),
(294,-16,o),
(306,-1,c),
(307,1,o),
(334,108,o),
(336,115,cs),
(372,259,o),
(407,402,o),
(443,546,cs),
(447,561,o),
(477,678,o),
(477,688,cs),
(477,711,o),
(452,724,o),
(432,724,cs),
(414,724,o),
(402,718,o),
(391,703,cs),
(387,697,o),
(357,576,o),
(353,557,cs),
(264,115,l),
(174,557,ls),
(171,576,o),
(141,697,o),
(137,703,cs),
(126,718,o),
(114,724,o),
(96,724,cs),
(76,724,o),
(51,711,o),
(51,688,cs),
(51,678,o),
(81,561,o),
(85,546,cs),
(120,402,o),
(156,259,o),
(192,115,cs),
(194,108,o),
(221,1,o),
(222,-1,c),
(234,-16,o),
(244,-23,o),
(264,-23,cs)
);
}
);
width = 528;
}
);
note = V.ss01;
},
{
color = 0;
glyphname = W.ss01;
lastChange = "2023-10-31 19:55:38 +0000";
layers = (
{
anchors = (
{
name = bottom;
pos = (433,0);
},
{
name = top;
pos = (433,700);
}
);
hints = (
{
horizontal = 1;
place = (724,-20);
target = down;
type = TopGhost;
},
{
horizontal = 1;
place = (-24,72);
type = Stem;
},
{
place = (725,90);
type = Stem;
},
{
place = (389,90);
type = Stem;
},
{
place = (51,90);
type = Stem;
}
);
layerId = "2F065738-4B59-43EB-A5F2-FD5F277958EA";
shapes = (
{
closed = 1;
nodes = (
(319,-24,ls),
(364,-24,o),
(404,-7,o),
(433,22,c),
(463,-7,o),
(505,-24,o),
(548,-24,cs),
(616,-24,o),
(683,-24,o),
(751,-24,cs),
(776,-24,o),
(815,-21,o),
(815,13,cs),
(815,688,ls),
(815,711,o),
(790,724,o),
(770,724,cs),
(750,724,o),
(734,715,o),
(726,697,cs),
(721,686,o),
(725,110,o),
(725,49,c),
(666,48,o),
(608,48,o),
(550,48,cs),
(518,48,o),
(491,72,o),
(482,101,cs),
(480,108,o),
(479,117,o),
(479,128,cs),
(479,132,o),
(479,136,o),
(479,140,cs),
(479,262,o),
(479,385,o),
(479,507,cs),
(479,562,o),
(479,617,o),
(479,672,cs),
(479,677,o),
(479,685,o),
(478,691,cs),
(476,712,o),
(453,724,o),
(434,724,cs),
(413,724,o),
(389,711,o),
(389,689,c),
(388,683,o),
(388,677,o),
(388,672,cs),
(388,608,o),
(388,544,o),
(389,480,cs),
(389,131,l),
(388,120,o),
(387,109,o),
(385,101,cs),
(376,72,o),
(349,48,o),
(317,48,cs),
(212,48,ls),
(180,48,o),
(154,72,o),
(145,101,cs),
(137,127,o),
(141,167,o),
(141,194,cs),
(141,339,l),
(141,688,ls),
(141,711,o),
(117,724,o),
(96,724,cs),
(79,724,o),
(60,716,o),
(53,699,cs),
(50,691,o),
(51,677,o),
(51,668,cs),
(51,127,ls),
(51,40,o),
(127,-24,o),
(211,-24,cs)
);
}
);
width = 865;
}
);
note = W.ss01;
},
{
color = 0;
glyphname = X.ss01;
lastChange = "2023-10-31 19:55:38 +0000";
layers = (
{
anchors = (
{
name = bottom;
pos = (311,0);
},
{
name = top;
pos = (311,700);
}
);
hints = (
{
horizontal = 1;
place = (652,72);
type = Stem;
},
{
horizontal = 1;
place = (-24,72);
type = Stem;
},
{
place = (51,520);
type = Stem;
}
);
layerId = "2F065738-4B59-43EB-A5F2-FD5F277958EA";
shapes = (
{
closed = 1;
nodes = (
(180,-25,o),
(182,-25,o),
(184,-25,cs),
(199,-25,o),
(216,-23,o),
(228,-13,cs),
(243,-1,o),
(256,52,o),
(263,72,cs),
(311,213,l),
(339,132,ls),
(344,115,o),
(349,97,o),
(357,81,cs),
(388,13,o),
(451,-24,o),
(526,-24,cs),
(546,-24,o),
(571,-11,o),
(571,12,cs),
(571,19,o),
(568,26,o),
(563,32,cs),
(537,64,o),
(472,24,o),
(438,113,cs),
(424,152,o),
(412,192,o),
(398,231,cs),
(358,350,l),
(460,652,l),
(505,652,ls),
(531,652,o),
(571,653,o),
(571,688,cs),
(571,711,o),
(546,724,o),
(526,724,cs),
(426,724,ls),
(410,724,o),
(394,718,o),
(386,705,cs),
(375,689,o),
(338,567,o),
(328,538,cs),
(311,488,l),
(284,568,ls),
(278,585,o),
(273,603,o),
(266,619,cs),
(234,688,o),
(171,724,o),
(96,724,cs),
(76,724,o),
(51,711,o),
(51,688,cs),
(51,681,o),
(54,674,o),
(59,668,cs),
(85,636,o),
(151,676,o),
(184,587,cs),
(198,548,o),
(211,508,o),
(224,469,cs),
(264,350,l),
(162,48,l),
(117,48,ls),
(91,48,o),
(51,47,o),
(51,12,cs),
(51,-11,o),
(75,-24,o),
(96,-24,cs),
(156,-24,ls),
(158,-24,o),
(161,-24,o),
(163,-24,cs),
(177,-25,ls)
);
}
);
width = 621;
}
);
note = X.ss01;
},
{
color = 0;
glyphname = Y.ss01;
lastChange = "2023-10-31 19:55:38 +0000";
layers = (
{
anchors = (
{
name = bottom;
pos = (265,0);
},
{
name = top;
pos = (265,700);
},
{
name = topleft;
pos = (20,700);
}
);
hints = (
{
horizontal = 1;
place = (724,-20);
target = down;
type = TopGhost;
},
{
horizontal = 1;
place = (723,-20);
target = down;
type = TopGhost;
},
{
horizontal = 1;
place = (314,72);
type = Stem;
},
{
horizontal = 1;
place = (-24,72);
type = Stem;
},
{
place = (389,90);
type = Stem;
},
{
place = (51,90);
type = Stem;
}
);
layerId = "2F065738-4B59-43EB-A5F2-FD5F277958EA";
shapes = (
{
closed = 1;
nodes = (
(399,-24,ls),
(427,-24,o),
(479,-28,o),
(479,12,cs),
(479,235,ls),
(479,279,o),
(453,320,o),
(419,347,c),
(447,368,o),
(467,399,o),
(476,436,cs),
(480,453,o),
(480,471,o),
(480,489,cs),
(480,508,o),
(479,528,o),
(479,547,cs),
(479,687,ls),
(479,710,o),
(454,723,o),
(434,723,cs),
(425,723,o),
(415,721,o),
(407,716,cs),
(390,706,o),
(389,695,o),
(389,677,cs),
(389,632,o),
(390,586,o),
(390,541,cs),
(390,521,o),
(390,457,o),
(385,439,cs),
(375,407,o),
(350,388,o),
(317,386,c),
(295,387,o),
(273,386,o),
(251,386,cs),
(141,386,l),
(141,688,ls),
(141,711,o),
(117,724,o),
(96,724,cs),
(79,724,o),
(61,716,o),
(54,700,cs),
(49,691,o),
(50,663,o),
(50,651,cs),
(50,551,o),
(51,450,o),
(51,350,cs),
(51,310,o),
(102,314,o),
(129,314,cs),
(266,314,l),
(273,313,o),
(280,313,o),
(286,313,cs),
(294,313,o),
(302,314,o),
(310,314,cs),
(350,311,o),
(389,275,o),
(389,234,cs),
(389,48,l),
(212,48,ls),
(198,48,o),
(184,53,o),
(173,61,cs),
(141,85,o),
(141,117,o),
(141,153,cs),
(141,205,ls),
(141,228,o),
(116,241,o),
(96,241,cs),
(69,241,o),
(51,225,o),
(51,198,cs),
(51,174,o),
(51,151,o),
(51,127,cs),
(51,40,o),
(127,-24,o),
(211,-24,cs)
);
}
);
width = 530;
}
);
note = Y.ss01;
},
{
color = 0;
glyphname = Z.ss01;
lastChange = "2023-10-31 19:55:38 +0000";
layers = (
{
anchors = (
{
name = bottom;
pos = (265,0);
},
{
name = center;
pos = (265,350);
},
{
name = top;
pos = (265,700);
}
);
hints = (
{
horizontal = 1;
place = (652,72);
type = Stem;
},
{
horizontal = 1;
place = (313,72);
type = Stem;
},
{
horizontal = 1;
place = (-25,73);
type = Stem;
},
{
place = (389,90);
type = Stem;
},
{
place = (51,90);
type = Stem;
}
);
layerId = "2F065738-4B59-43EB-A5F2-FD5F277958EA";
shapes = (
{
closed = 1;
nodes = (
(228,-25,o),
(324,-24,o),
(421,-24,cs),
(441,-24,o),
(466,-11,o),
(466,12,cs),
(466,29,o),
(452,40,o),
(438,45,cs),
(420,52,o),
(186,48,o),
(143,48,cs),
(141,48,l),
(141,104,o),
(140,159,o),
(140,214,cs),
(140,256,o),
(152,302,o),
(199,312,cs),
(212,315,o),
(226,314,o),
(239,314,cs),
(266,314,o),
(292,313,o),
(319,313,cs),
(401,313,o),
(479,364,o),
(479,452,cs),
(479,688,ls),
(479,723,o),
(435,724,o),
(410,724,cs),
(394,724,o),
(378,724,o),
(361,724,cs),
(211,724,ls),
(127,724,o),
(51,660,o),
(51,573,cs),
(51,550,o),
(75,537,o),
(96,537,cs),
(115,537,o),
(136,547,o),
(140,567,cs),
(142,575,o),
(141,583,o),
(143,590,cs),
(149,623,o),
(178,652,o),
(212,652,cs),
(271,652,o),
(330,652,o),
(389,652,c),
(389,453,ls),
(389,418,o),
(368,392,o),
(333,386,cs),
(317,384,o),
(301,385,o),
(285,385,cs),
(260,385,o),
(235,386,o),
(211,386,cs),
(127,386,o),
(51,322,o),
(51,235,cs),
(51,12,ls),
(51,-27,o),
(105,-25,o),
(131,-25,cs)
);
}
);
width = 530;
}
);
note = Z.ss01;
},
{
color = 0;
glyphname = A.ss02;
lastChange = "2023-10-31 19:55:38 +0000";
layers = (
{
anchors = (
{
name = bottom;
pos = (265,0);
},
{
name = ogonek;
pos = (476,10);
},
{
name = top;
pos = (265,700);
}
);
hints = (
{
horizontal = 1;
place = (652,72);
type = Stem;
},
{
horizontal = 1;
place = (314,72);
type = Stem;
},
{
horizontal = 1;
place = (-24,21);
target = up;
type = BottomGhost;
},
{
place = (389,90);
type = Stem;
},
{
place = (51,90);
type = Stem;
}
);
layerId = "2F065738-4B59-43EB-A5F2-FD5F277958EA";
shapes = (
{
closed = 1;
nodes = (
(113,-24,o),
(130,-16,o),
(138,0,cs),
(142,7,o),
(141,19,o),
(141,28,cs),
(141,123,o),
(141,218,o),
(141,313,c),
(318,314,ls),
(356,314,o),
(386,279,o),
(388,243,cs),
(388,211,o),
(388,9,o),
(390,3,cs),
(398,-15,o),
(415,-24,o),
(434,-24,cs),
(454,-24,o),
(479,-11,o),
(479,12,cs),
(479,688,ls),
(479,724,o),
(435,724,o),
(410,724,cs),
(211,724,ls),
(127,724,o),
(51,660,o),
(51,573,cs),
(51,12,ls),
(51,-11,o),
(75,-24,o),
(96,-24,cs)
);
},
{
closed = 1;
nodes = (
(367,380,o),
(343,386,o),
(319,386,cs),
(140,386,l),
(140,435,o),
(140,485,o),
(140,534,cs),
(140,551,o),
(140,583,o),
(145,599,cs),
(154,628,o),
(180,652,o),
(212,652,cs),
(271,652,o),
(330,652,o),
(389,652,c),
(389,558,o),
(388,464,o),
(388,371,c)
);
}
);
width = 529;
}
);
note = A.ss02;
},
{
color = 0;
glyphname = B.ss02;
lastChange = "2023-10-31 19:55:38 +0000";
layers = (
{
anchors = (
{
name = bottom;
pos = (265,0);
},
{
name = center;
pos = (265,350);
},
{
name = top;
pos = (265,700);
}
);
hints = (
{
horizontal = 1;
place = (652,72);
type = Stem;
},
{
horizontal = 1;
place = (315,72);
type = Stem;
},
{
horizontal = 1;
place = (-24,72);
type = Stem;
},
{
place = (389,90);
type = Stem;
},
{
place = (51,90);
type = Stem;
}
);
layerId = "2F065738-4B59-43EB-A5F2-FD5F277958EA";
shapes = (
{
closed = 1;
nodes = (
(319,-24,ls),
(403,-24,o),
(479,40,o),
(479,127,cs),
(479,235,ls),
(479,282,o),
(456,323,o),
(422,350,c),
(456,377,o),
(479,418,o),
(479,466,cs),
(479,574,ls),
(479,660,o),
(403,724,o),
(319,724,cs),
(114,724,ls),
(89,724,o),
(51,722,o),
(51,688,cs),
(51,241,ls),
(51,239,o),
(51,237,o),
(51,235,cs),
(51,234,o),
(51,233,o),
(51,232,cs),
(51,12,ls),
(51,-11,o),
(76,-24,o),
(96,-24,cs)
);
},
{
closed = 1;
nodes = (
(141,234,l),
(142,240,o),
(142,246,o),
(143,252,cs),
(145,267,o),
(154,283,o),
(165,293,cs),
(184,312,o),
(201,314,o),
(227,314,cs),
(254,314,o),
(282,315,o),
(309,315,cs),
(356,315,o),
(389,282,o),
(389,234,cs),
(389,128,ls),
(389,88,o),
(360,48,o),
(318,48,cs),
(141,48,l)
);
},
{
closed = 1;
nodes = (
(141,652,l),
(318,652,ls),
(360,652,o),
(389,613,o),
(389,573,cs),
(389,466,ls),
(389,434,o),
(369,399,o),
(337,389,cs),
(330,387,o),
(323,387,o),
(315,387,cs),
(289,388,o),
(259,387,o),
(238,387,cs),
(202,387,o),
(174,385,o),
(141,370,c)
);
}
);
width = 529;
}
);
note = B.ss02;
},
{
color = 0;
glyphname = C.ss02;
lastChange = "2023-10-31 19:55:38 +0000";
layers = (
{
anchors = (
{
name = bottom;
pos = (255,0);
},
{
name = top;
pos = (255,700);
}
);
hints = (
{
horizontal = 1;
place = (659,72);
type = Stem;
},
{
horizontal = 1;
place = (-24,71);
type = Stem;
},
{
place = (51,90);
type = Stem;
}
);
layerId = "2F065738-4B59-43EB-A5F2-FD5F277958EA";
shapes = (
{
closed = 1;
nodes = (
(414,-24,ls),
(434,-24,o),
(459,-11,o),
(459,12,cs),
(459,32,o),
(440,45,o),
(422,47,cs),
(412,49,o),
(401,48,o),
(391,48,cs),
(351,48,o),
(312,47,o),
(272,47,cs),
(258,47,o),
(205,47,o),
(193,51,cs),
(161,61,o),
(141,94,o),
(141,128,cs),
(141,579,ls),
(141,612,o),
(161,645,o),
(193,656,cs),
(205,660,o),
(258,659,o),
(272,659,cs),
(317,659,o),
(363,658,o),
(408,658,cs),
(430,658,o),
(459,668,o),
(459,695,cs),
(459,718,o),
(435,731,o),
(414,731,cs),
(211,731,ls),
(127,731,o),
(51,666,o),
(51,580,cs),
(51,127,ls),
(51,40,o),
(127,-24,o),
(211,-24,cs)
);
}
);
width = 510;
}
);
note = C.ss02;
},
{
color = 0;
glyphname = E.ss02;
lastChange = "2023-10-31 19:55:38 +0000";
layers = (
{
anchors = (
{
name = bottom;
pos = (264,0);
},
{
name = ogonek;
pos = (475,10);
},
{
name = top;
pos = (264,700);
},
{
name = topleft;
pos = (20,700);
}
);
hints = (
{
horizontal = 1;
place = (652,72);
type = Stem;
},
{
horizontal = 1;
place = (315,71);
type = Stem;
},
{
horizontal = 1;
place = (-24,72);
type = Stem;
},
{
place = (389,89);
type = Stem;
},
{
place = (50,90);
type = Stem;
}
);
layerId = "2F065738-4B59-43EB-A5F2-FD5F277958EA";
shapes = (
{
closed = 1;
nodes = (
(318,-24,ls),
(402,-24,o),
(478,40,o),
(478,127,cs),
(478,150,o),
(453,163,o),
(433,163,cs),
(414,163,o),
(393,153,o),
(389,133,cs),
(387,126,o),
(388,118,o),
(386,110,cs),
(380,77,o),
(351,48,o),
(317,48,cs),
(211,48,ls),
(169,48,o),
(140,88,o),
(140,128,cs),
(140,234,ls),
(140,267,o),
(160,302,o),
(192,311,cs),
(200,314,o),
(209,313,o),
(217,314,cs),
(220,314,o),
(223,314,o),
(227,314,cs),
(277,314,o),
(327,315,o),
(377,315,cs),
(403,315,o),
(444,316,o),
(444,351,cs),
(444,378,o),
(415,387,o),
(393,387,cs),
(336,387,o),
(278,386,o),
(220,386,cs),
(173,386,o),
(140,419,o),
(140,466,cs),
(140,573,ls),
(140,613,o),
(169,652,o),
(211,652,cs),
(317,652,ls),
(351,652,o),
(380,624,o),
(386,591,cs),
(388,583,o),
(387,575,o),
(389,567,cs),
(393,548,o),
(414,538,o),
(433,538,cs),
(453,538,o),
(478,551,o),
(478,574,cs),
(478,660,o),
(402,724,o),
(318,724,cs),
(210,724,ls),
(126,724,o),
(50,660,o),
(50,574,cs),
(50,466,ls),
(50,419,o),
(73,378,o),
(107,350,c),
(73,323,o),
(50,283,o),
(50,235,cs),
(50,127,ls),
(50,40,o),
(126,-24,o),
(210,-24,cs)
);
}
);
width = 528;
}
);
note = E.ss02;
},
{
color = 0;
glyphname = F.ss02;
lastChange = "2023-10-31 19:55:38 +0000";
layers = (
{
anchors = (
{
name = bottom;
pos = (265,0);
},
{
name = top;
pos = (265,700);
}
);
hints = (
{
horizontal = 1;
place = (652,72);
type = Stem;
},
{
horizontal = 1;
place = (313,72);
type = Stem;
},
{
horizontal = 1;
place = (-24,21);
target = up;
type = BottomGhost;
},
{
place = (388,92);
type = Stem;
},
{
place = (51,91);
type = Stem;
}
);
layerId = "2F065738-4B59-43EB-A5F2-FD5F277958EA";
shapes = (
{
closed = 1;
nodes = (
(116,-24,o),
(131,-15,o),
(139,3,cs),
(141,7,o),
(142,116,o),
(142,242,c),
(147,288,o),
(176,314,o),
(222,314,cs),
(234,314,o),
(247,314,o),
(260,314,cs),
(337,313,ls),
(350,313,o),
(363,313,o),
(376,313,cs),
(401,313,o),
(440,316,o),
(440,349,cs),
(440,372,o),
(415,385,o),
(395,385,cs),
(211,385,ls),
(187,385,o),
(164,380,o),
(142,370,c),
(142,492,o),
(142,603,o),
(142,635,cs),
(142,652,l),
(318,652,ls),
(354,652,o),
(382,623,o),
(388,590,cs),
(390,582,o),
(389,574,o),
(391,567,cs),
(396,547,o),
(416,537,o),
(435,537,cs),
(455,537,o),
(480,550,o),
(480,573,cs),
(480,660,o),
(404,724,o),
(320,724,cs),
(97,724,ls),
(78,724,o),
(62,715,o),
(54,697,cs),
(50,690,o),
(51,329,o),
(51,297,cs),
(51,12,ls),
(51,-11,o),
(76,-24,o),
(96,-24,cs)
);
}
);
width = 530;
}
);
note = F.ss02;
},
{
color = 0;
glyphname = G.ss02;
lastChange = "2023-10-31 19:55:38 +0000";
layers = (
{
anchors = (
{
name = bottom;
pos = (265,0);
},
{
name = top;
pos = (265,700);
}
);
hints = (
{
horizontal = 1;
place = (653,72);
type = Stem;
},
{
horizontal = 1;
place = (314,72);
type = Stem;
},
{
horizontal = 1;
place = (-24,72);
type = Stem;
},
{
place = (389,90);
type = Stem;
},
{
place = (51,90);
type = Stem;
}
);
layerId = "2F065738-4B59-43EB-A5F2-FD5F277958EA";
shapes = (
{
closed = 1;
nodes = (
(319,-24,ls),
(403,-24,o),
(479,40,o),
(479,127,cs),
(479,234,ls),
(479,307,o),
(423,366,o),
(353,381,cs),
(333,386,o),
(311,386,o),
(290,386,cs),
(264,386,o),
(220,387,o),
(220,350,cs),
(220,342,o),
(223,335,o),
(228,329,cs),
(246,309,o),
(278,314,o),
(302,314,cs),
(351,314,o),
(389,286,o),
(389,233,cs),
(389,127,ls),
(389,88,o),
(360,48,o),
(317,48,cs),
(212,48,ls),
(170,48,o),
(141,88,o),
(141,127,cs),
(141,302,o),
(141,477,o),
(141,652,c),
(195,652,o),
(248,653,o),
(302,653,cs),
(309,653,o),
(317,653,o),
(325,652,cs),
(360,647,o),
(384,616,o),
(388,582,cs),
(390,564,o),
(390,554,o),
(407,544,cs),
(415,539,o),
(424,537,o),
(434,537,cs),
(454,537,o),
(479,550,o),
(479,573,cs),
(479,646,o),
(422,708,o),
(352,721,cs),
(333,724,o),
(313,725,o),
(294,725,cs),
(228,725,o),
(162,724,o),
(96,724,cs),
(78,724,o),
(61,716,o),
(53,699,cs),
(50,692,o),
(51,676,o),
(51,668,cs),
(51,613,o),
(51,558,o),
(51,503,cs),
(51,127,ls),
(51,40,o),
(127,-24,o),
(211,-24,cs)
);
}
);
width = 529;
}
);
note = G.ss02;
},
{
color = 0;
glyphname = K.ss02;
lastChange = "2023-10-31 19:55:38 +0000";
layers = (
{
anchors = (
{
name = bottom;
pos = (265,0);
},
{
name = top;
pos = (265,700);
}
);
hints = (
{
horizontal = 1;
place = (315,71);
type = Stem;
},
{
horizontal = 1;
place = (-24,21);
target = up;
type = BottomGhost;
},
{
place = (390,89);
type = Stem;
},
{
place = (51,90);
type = Stem;
}
);
layerId = "2F065738-4B59-43EB-A5F2-FD5F277958EA";
shapes = (
{
closed = 1;
nodes = (
(403,-28,o),
(479,36,o),
(479,123,cs),
(479,235,ls),
(479,308,o),
(422,369,o),
(352,382,cs),
(343,384,o),
(333,385,o),
(324,386,c),
(339,408,o),
(351,434,o),
(363,461,cs),
(413,567,ls),
(422,585,o),
(463,666,o),
(463,679,cs),
(463,702,o),
(438,715,o),
(418,715,cs),
(404,715,o),
(390,710,o),
(381,700,cs),
(372,690,o),
(354,646,o),
(348,632,cs),
(285,497,ls),
(271,469,o),
(260,439,o),
(241,413,cs),
(230,397,o),
(221,388,o),
(202,387,cs),
(141,386,l),
(141,691,ls),
(141,714,o),
(116,727,o),
(96,727,cs),
(75,727,o),
(51,714,o),
(51,691,cs),
(51,12,ls),
(51,-11,o),
(75,-24,o),
(96,-24,cs),
(116,-24,o),
(141,-11,o),
(141,12,cs),
(141,313,l),
(153,314,o),
(164,314,o),
(172,314,cs),
(216,314,o),
(259,315,o),
(303,315,cs),
(401,315,o),
(390,228,o),
(390,158,cs),
(390,126,o),
(391,96,o),
(370,70,cs),
(361,60,o),
(349,51,o),
(336,47,cs),
(327,44,o),
(317,45,o),
(307,43,cs),
(290,39,o),
(274,26,o),
(274,8,cs),
(274,-15,o),
(298,-28,o),
(319,-28,cs)
);
}
);
width = 529;
}
);
note = K.ss02;
},
{
color = 0;
glyphname = P.ss02;
lastChange = "2023-10-31 19:55:38 +0000";
layers = (
{
anchors = (
{
name = bottom;
pos = (265,0);
},
{
name = top;
pos = (265,700);
}
);
hints = (
{
horizontal = 1;
place = (652,72);
type = Stem;
},
{
horizontal = 1;
place = (314,72);
type = Stem;
},
{
horizontal = 1;
place = (-24,21);
target = up;
type = BottomGhost;
},
{
place = (389,90);
type = Stem;
},
{
place = (51,90);
type = Stem;
}
);
layerId = "2F065738-4B59-43EB-A5F2-FD5F277958EA";
shapes = (
{
closed = 1;
nodes = (
(116,-24,o),
(141,-11,o),
(141,12,cs),
(141,232,l),
(142,239,o),
(141,246,o),
(143,252,c),
(147,274,o),
(163,297,o),
(184,307,cs),
(206,318,o),
(261,314,o),
(288,314,cs),
(350,314,o),
(397,321,o),
(442,369,cs),
(465,395,o),
(479,430,o),
(479,465,cs),
(479,573,ls),
(479,660,o),
(403,724,o),
(319,724,cs),
(220,724,ls),
(189,724,o),
(163,720,o),
(135,706,c),
(127,718,o),
(110,724,o),
(96,724,cs),
(75,724,o),
(51,711,o),
(51,688,cs),
(51,12,ls),
(51,-11,o),
(75,-24,o),
(96,-24,cs)
);
},
{
closed = 1;
nodes = (
(141,571,l),
(142,577,o),
(141,584,o),
(143,590,c),
(148,619,o),
(171,644,o),
(199,651,cs),
(214,654,o),
(231,653,o),
(245,653,cs),
(269,653,o),
(294,652,o),
(318,652,cs),
(359,652,o),
(389,612,o),
(389,573,cs),
(389,466,ls),
(389,433,o),
(368,400,o),
(336,389,cs),
(319,384,o),
(297,386,o),
(280,386,cs),
(229,386,o),
(182,388,o),
(141,371,c)
);
}
);
width = 529;
}
);
note = P.ss02;
},
{
color = 0;
glyphname = Q.ss02;
lastChange = "2023-10-31 19:55:38 +0000";
layers = (
{
anchors = (
{
name = bottom;
pos = (265,0);
},
{
name = top;
pos = (265,700);
}
);
hints = (
{
horizontal = 1;
place = (652,72);
type = Stem;
},
{
horizontal = 1;
place = (-24,72);
type = Stem;
},
{
horizontal = 1;
place = (-17,21);
target = up;
type = BottomGhost;
},
{
place = (389,90);
type = Stem;
},
{
place = (51,90);
type = Stem;
}
);
layerId = "2F065738-4B59-43EB-A5F2-FD5F277958EA";
shapes = (
{
closed = 1;
nodes = (
(455,-142,o),
(479,-129,o),
(479,-106,cs),
(479,-87,o),
(461,-74,o),
(444,-71,cs),
(437,-70,o),
(429,-70,o),
(422,-69,cs),
(396,-64,o),
(376,-41,o),
(368,-17,c),
(431,3,o),
(479,57,o),
(479,127,cs),
(479,573,ls),
(479,660,o),
(403,724,o),
(319,724,cs),
(211,724,ls),
(127,724,o),
(51,660,o),
(51,573,cs),
(51,127,ls),
(51,40,o),
(127,-24,o),
(211,-24,cs),
(278,-24,l),
(294,-94,o),
(361,-142,o),
(434,-142,cs)
);
},
{
closed = 1;
nodes = (
(170,48,o),
(141,88,o),
(141,128,cs),
(141,572,ls),
(141,612,o),
(170,652,o),
(212,652,cs),
(318,652,ls),
(360,652,o),
(389,612,o),
(389,572,cs),
(389,128,ls),
(389,88,o),
(360,48,o),
(318,48,cs),
(212,48,ls)
);
}
);
width = 530;
}
);
note = Q.ss02;
},
{
color = 0;
glyphname = R.ss02;
lastChange = "2023-10-31 19:55:38 +0000";
layers = (
{
anchors = (
{
name = bottom;
pos = (265,0);
},
{
name = top;
pos = (265,700);
}
);
hints = (
{
horizontal = 1;
place = (652,72);
type = Stem;
},
{
horizontal = 1;
place = (314,72);
type = Stem;
},
{
horizontal = 1;
place = (-28,75);
type = Stem;
},
{
horizontal = 1;
place = (-24,21);
target = up;
type = BottomGhost;
},
{
place = (389,90);
type = Stem;
},
{
place = (51,90);
type = Stem;
}
);
layerId = "2F065738-4B59-43EB-A5F2-FD5F277958EA";
shapes = (
{
closed = 1;
nodes = (
(403,-28,o),
(479,36,o),
(479,123,cs),
(479,147,o),
(480,172,o),
(480,196,cs),
(480,218,o),
(481,243,o),
(476,264,cs),
(468,300,o),
(448,329,o),
(422,350,c),
(456,377,o),
(479,418,o),
(479,465,cs),
(479,573,ls),
(479,660,o),
(403,724,o),
(319,724,cs),
(169,724,ls),
(152,724,o),
(135,724,o),
(117,724,cs),
(93,724,o),
(51,723,o),
(51,688,cs),
(51,12,ls),
(51,-11,o),
(76,-24,o),
(96,-24,cs),
(115,-24,o),
(131,-15,o),
(139,3,cs),
(142,8,o),
(142,158,o),
(142,314,c),
(318,314,ls),
(353,314,o),
(380,285,o),
(387,252,cs),
(391,235,o),
(390,214,o),
(390,196,cs),
(390,172,o),
(389,148,o),
(389,124,cs),
(389,92,o),
(369,57,o),
(337,47,cs),
(327,44,o),
(317,45,o),
(307,43,cs),
(291,40,o),
(274,27,o),
(274,8,cs),
(274,-15,o),
(299,-28,o),
(319,-28,cs)
);
},
{
closed = 1;
nodes = (
(141,512,o),
(141,626,o),
(141,652,c),
(318,652,ls),
(360,652,o),
(389,612,o),
(389,573,cs),
(389,466,ls),
(389,434,o),
(369,398,o),
(337,389,cs),
(328,387,o),
(320,387,o),
(312,386,c),
(142,386,l)
);
}
);
width = 530;
}
);
note = R.ss02;
},
{
color = 0;
glyphname = S.ss02;
lastChange = "2023-10-31 19:55:38 +0000";
layers = (
{
anchors = (
{
name = bottom;
pos = (265,0);
},
{
name = top;
pos = (265,700);
}
);
hints = (
{
place = (652,72);
type = Stem;
},
{
place = (388,90);
type = Stem;
},
{
place = (314,72);
type = Stem;
},
{
place = (51,90);
type = Stem;
},
{
place = (-24,72);
type = Stem;
}
);
layerId = "2F065738-4B59-43EB-A5F2-FD5F277958EA";
shapes = (
{
closed = 1;
nodes = (
(189,-24,l),
(319,-24,ls),
(403,-24,o),
(478,40,o),
(478,127,cs),
(478,235,ls),
(478,266,o),
(467,297,o),
(448,323,cs),
(391,398,o),
(306,386,o),
(221,386,cs),
(174,386,o),
(141,419,o),
(141,466,cs),
(141,573,ls),
(141,588,o),
(145,604,o),
(153,617,cs),
(174,651,o),
(199,652,o),
(236,652,cs),
(287,652,l),
(409,652,ls),
(430,652,o),
(454,665,o),
(454,688,cs),
(454,722,o),
(416,724,o),
(391,724,cs),
(211,724,ls),
(127,724,o),
(51,660,o),
(51,573,cs),
(51,465,ls),
(51,434,o),
(62,403,o),
(81,377,cs),
(139,302,o),
(224,314,o),
(308,314,cs),
(355,314,o),
(388,281,o),
(388,234,cs),
(388,127,ls),
(388,112,o),
(384,96,o),
(376,83,cs),
(354,47,o),
(328,48,o),
(290,48,cs),
(231,48,l),
(97,48,ls),
(76,48,o),
(52,35,o),
(52,12,cs),
(52,-22,o),
(90,-24,o),
(115,-24,cs)
);
}
);
width = 529;
}
);
note = S.ss02;
},
{
color = 0;
glyphname = V.ss02;
lastChange = "2023-10-31 19:55:38 +0000";
layers = (
{
anchors = (
{
name = bottom;
pos = (263,0);
},
{
name = top;
pos = (263,700);
}
);
hints = (
{
horizontal = 1;
place = (725,-20);
target = down;
type = TopGhost;
},
{
horizontal = 1;
place = (-25,21);
target = up;
type = BottomGhost;
},
{
place = (384,90);
type = Stem;
},
{
place = (50,90);
type = Stem;
}
);
layerId = "2F065738-4B59-43EB-A5F2-FD5F277958EA";
shapes = (
{
closed = 1;
nodes = (
(291,-25,o),
(301,-10,o),
(318,7,cs),
(363,51,o),
(433,109,o),
(459,166,cs),
(471,191,o),
(474,218,o),
(474,245,cs),
(474,393,o),
(474,541,o),
(474,689,cs),
(474,712,o),
(449,725,o),
(429,725,cs),
(409,725,o),
(388,714,o),
(384,693,cs),
(383,684,o),
(383,675,o),
(383,666,cs),
(383,525,o),
(384,385,o),
(384,244,cs),
(384,220,o),
(381,200,o),
(369,179,cs),
(353,149,o),
(291,94,o),
(264,68,c),
(236,94,o),
(171,150,o),
(155,180,cs),
(147,193,o),
(143,208,o),
(141,223,cs),
(136,259,o),
(140,296,o),
(140,332,cs),
(140,678,ls),
(140,708,o),
(127,725,o),
(95,725,cs),
(75,725,o),
(50,712,o),
(50,689,cs),
(50,234,ls),
(50,194,o),
(67,151,o),
(92,121,cs),
(109,102,o),
(222,-9,o),
(237,-18,cs),
(245,-23,o),
(255,-25,o),
(265,-25,cs)
);
}
);
width = 525;
}
);
note = V.ss02;
},
{
color = 0;
glyphname = Y.ss02;
lastChange = "2023-10-31 19:55:38 +0000";
layers = (
{
anchors = (
{
name = bottom;
pos = (266,0);
},
{
name = top;
pos = (266,700);
},
{
name = topleft;
pos = (20,700);
}
);
hints = (
{
horizontal = 1;
place = (724,-20);
target = down;
type = TopGhost;
},
{
horizontal = 1;
place = (723,-20);
target = down;
type = TopGhost;
},
{
horizontal = 1;
place = (314,72);
type = Stem;
},
{
horizontal = 1;
place = (-24,72);
type = Stem;
},
{
place = (390,90);
type = Stem;
},
{
place = (51,90);
type = Stem;
}
);
layerId = "2F065738-4B59-43EB-A5F2-FD5F277958EA";
shapes = (
{
closed = 1;
nodes = (
(320,-24,ls),
(404,-24,o),
(480,40,o),
(480,127,cs),
(480,667,ls),
(480,676,o),
(481,690,o),
(478,698,cs),
(471,715,o),
(452,723,o),
(435,723,cs),
(377,723,o),
(390,668,o),
(390,629,cs),
(390,467,l),
(389,461,o),
(389,454,o),
(388,448,cs),
(382,415,o),
(353,386,o),
(319,386,cs),
(212,386,ls),
(181,386,o),
(154,410,o),
(145,439,cs),
(137,465,o),
(141,507,o),
(141,534,cs),
(141,688,ls),
(141,711,o),
(117,724,o),
(96,724,cs),
(76,724,o),
(54,713,o),
(51,691,cs),
(50,683,o),
(50,674,o),
(50,666,cs),
(50,599,o),
(51,532,o),
(51,465,cs),
(51,378,o),
(127,314,o),
(211,314,cs),
(320,314,ls),
(345,314,o),
(369,319,o),
(390,329,c),
(390,128,ls),
(390,88,o),
(361,48,o),
(319,48,cs),
(213,48,ls),
(196,48,o),
(181,55,o),
(168,66,cs),
(140,92,o),
(142,122,o),
(142,156,cs),
(142,180,o),
(142,205,o),
(142,229,cs),
(142,256,o),
(123,271,o),
(97,271,cs),
(77,271,o),
(52,258,o),
(52,235,cs),
(52,127,ls),
(52,40,o),
(128,-24,o),
(212,-24,cs)
);
}
);
width = 531;
}
);
note = Y.ss02;
},
{
color = 0;
glyphname = Q.ss03;
lastChange = "2023-10-31 19:55:38 +0000";
layers = (
{
anchors = (
{
name = bottom;
pos = (265,0);
},
{
name = top;
pos = (265,700);
}
);
hints = (
{
horizontal = 1;
place = (652,72);
type = Stem;
},
{
horizontal = 1;
place = (-24,72);
type = Stem;
},
{
horizontal = 1;
place = (-17,21);
target = up;
type = BottomGhost;
},
{
place = (389,90);
type = Stem;
},
{
place = (51,90);
type = Stem;
}
);
layerId = "2F065738-4B59-43EB-A5F2-FD5F277958EA";
shapes = (
{
closed = 1;
nodes = (
(455,-141,o),
(479,-128,o),
(479,-105,cs),
(479,-86,o),
(461,-73,o),
(444,-70,cs),
(437,-69,o),
(429,-69,o),
(422,-68,cs),
(397,-63,o),
(376,-41,o),
(368,-17,c),
(431,3,o),
(479,58,o),
(479,127,cs),
(479,688,ls),
(479,711,o),
(454,724,o),
(434,724,cs),
(211,724,ls),
(127,724,o),
(51,660,o),
(51,573,cs),
(51,127,ls),
(51,40,o),
(127,-24,o),
(211,-24,cs),
(278,-24,l),
(295,-93,o),
(361,-141,o),
(434,-141,cs)
);
},
{
closed = 1;
nodes = (
(170,48,o),
(141,88,o),
(141,128,cs),
(141,572,ls),
(141,612,o),
(170,652,o),
(212,652,cs),
(389,652,l),
(389,128,ls),
(389,88,o),
(360,48,o),
(318,48,cs),
(212,48,ls)
);
}
);
width = 530;
}
);
note = Q.ss03;
},
{
color = 5;
glyphname = a;
lastChange = "2023-10-31 19:55:38 +0000";
layers = (
{
anchors = (
{
name = bottom;
pos = (278,0);
},
{
name = ogonek;
pos = (500,10);
},
{
name = top;
pos = (278,480);
}
);
background = {
shapes = (
{
pos = (-30,0);
ref = o;
}
);
};
hints = (
{
horizontal = 1;
place = (323,63);
type = Stem;
},
{
horizontal = 1;
place = (192,64);
type = Stem;
},
{
horizontal = 1;
place = (-21,72);
type = Stem;
},
{
place = (382,90);
type = Stem;
},
{
place = (51,90);
type = Stem;
}
);
layerId = "2F065738-4B59-43EB-A5F2-FD5F277958EA";
shapes = (
{
closed = 1;
nodes = (
(407,-11,o),
(483,77,o),
(483,244,cs),
(483,338,o),
(461,404,o),
(416,445,cs),
(379,478,o),
(323,492,o),
(258,492,cs),
(218,492,o),
(162,488,o),
(162,441,cs),
(162,417,o),
(181,398,o),
(216,412,c),
(216,412,o),
(281,434,o),
(341,398,cs),
(363,385,o),
(378,359,o),
(386,321,c),
(248,321,ls),
(140,321,o),
(46,290,o),
(46,189,cs),
(46,52,o),
(141,-11,o),
(262,-11,cs)
);
},
{
closed = 1;
nodes = (
(141,229,o),
(180,252,o),
(276,252,cs),
(392,252,l),
(392,117,o),
(362,62,o),
(262,62,cs),
(182,62,o),
(141,107,o),
(141,172,cs)
);
}
);
width = 555;
}
);
metricRight = o;
note = a;
unicode = 97;
},
{
color = 5;
glyphname = b;
lastChange = "2023-10-31 19:55:38 +0000";
layers = (
{
anchors = (
{
name = bottom;
pos = (265,0);
},
{
name = center;
pos = (265,240);
},
{
name = top;
pos = (265,480);
}
);
hints = (
{
horizontal = 1;
place = (724,-20);
target = down;
type = TopGhost;
},
{
horizontal = 1;
place = (314,72);
type = Stem;
},
{
horizontal = 1;
place = (-24,72);
type = Stem;
},
{
place = (389,90);
type = Stem;
},
{
place = (51,90);
type = Stem;
}
);
layerId = "2F065738-4B59-43EB-A5F2-FD5F277958EA";
shapes = (
{
closed = 1;
nodes = (
(492,62,o),
(492,234,cs),
(492,321,o),
(484,492,o),
(271,492,cs),
(203,492,o),
(165,474,o),
(140,460,c),
(140,440,o),
(140,513,o),
(140,578,cs),
(140,645,o),
(139,707,o),
(139,712,c),
(139,727,o),
(125,749,o),
(96,749,cs),
(75,749,o),
(51,736,o),
(51,713,cs),
(51,580,l),
(50,231,ls),
(49,46,o),
(148,-12,o),
(271,-12,cs),
(414,-12,o)
);
},
{
closed = 1;
nodes = (
(203,62,o),
(143,85,o),
(143,232,cs),
(143,247,o),
(120,418,o),
(268,418,cs),
(413,418,o),
(400,263,o),
(400,234,cs),
(400,219,o),
(417,62,o),
(270,62,c)
);
}
);
width = 530;
}
);
note = b;
unicode = 98;
},
{
color = 0;
glyphname = c;
lastChange = "2023-10-31 19:55:38 +0000";
layers = (
{
anchors = (
{
name = bottom;
pos = (265,0);
},
{
name = top;
pos = (265,480);
}
);
background = {
shapes = (
{
closed = 1;
nodes = (
(439,-12,o),
(491,95,o),
(491,240,cs),
(491,385,o),
(439,492,o),
(270,492,cs),
(101,492,o),
(49,385,o),
(49,240,cs),
(49,95,o),
(101,-12,o),
(270,-12,cs)
);
},
{
closed = 1;
nodes = (
(175,62,o),
(141,115,o),
(141,240,cs),
(141,365,o),
(175,418,o),
(270,418,cs),
(365,418,o),
(399,365,o),
(399,240,cs),
(399,115,o),
(365,62,o),
(270,62,cs)
);
}
);
};
hints = (
{
horizontal = 1;
place = (314,72);
type = Stem;
},
{
horizontal = 1;
place = (-23,72);
type = Stem;
},
{
place = (390,89);
type = Stem;
},
{
place = (51,90);
type = Stem;
}
);
layerId = "2F065738-4B59-43EB-A5F2-FD5F277958EA";
shapes = (
{
closed = 1;
nodes = (
(440,-11,ls),
(461,-11,o),
(470,2,o),
(470,25,cs),
(470,60,o),
(445,61,o),
(420,61,cs),
(378,61,o),
(307,62,o),
(266,62,cs),
(234,62,o),
(141,50,o),
(141,240,cs),
(141,280,o),
(130,418,o),
(270,418,cs),
(357,418,o),
(379,369,o),
(387,341,cs),
(392,322,o),
(395,311,o),
(439,311,cs),
(479,311,o),
(486,324,o),
(479,347,cs),
(463,403,o),
(418,492,o),
(273,492,cs),
(101,492,o),
(46,386,o),
(49,233,cs),
(53,53,o),
(138,-11,o),
(249,-11,cs)
);
}
);
width = 530;
}
);
note = c;
unicode = 99;
},
{
color = 5;
glyphname = d;
lastChange = "2023-10-31 19:55:38 +0000";
layers = (
{
anchors = (
{
name = bottom;
pos = (265,0);
},
{
name = center;
pos = (265,240);
},
{
name = top;
pos = (265,742);
},
{
name = topright;
pos = (510,742);
}
);
hints = (
{
horizontal = 1;
place = (724,-20);
target = down;
type = TopGhost;
},
{
horizontal = 1;
place = (314,72);
type = Stem;
},
{
horizontal = 1;
place = (-24,72);
type = Stem;
},
{
place = (390,90);
type = Stem;
},
{
place = (51,90);
type = Stem;
}
);
layerId = "2F065738-4B59-43EB-A5F2-FD5F277958EA";
shapes = (
{
closed = 1;
nodes = (
(259,-12,cs),
(382,-12,o),
(481,46,o),
(480,231,cs),
(479,580,l),
(479,713,ls),
(479,736,o),
(455,749,o),
(434,749,cs),
(405,749,o),
(391,727,o),
(391,712,c),
(391,707,o),
(390,645,o),
(390,578,cs),
(390,513,o),
(390,440,o),
(390,460,c),
(365,474,o),
(327,492,o),
(259,492,cs),
(46,492,o),
(38,321,o),
(38,234,cs),
(38,62,o),
(116,-12,o)
);
},
{
closed = 1;
nodes = (
(113,62,o),
(130,219,o),
(130,234,cs),
(130,263,o),
(117,418,o),
(262,418,cs),
(410,418,o),
(387,247,o),
(387,232,cs),
(387,85,o),
(327,62,o),
(260,62,c)
);
}
);
width = 530;
}
);
note = d;
unicode = 100;
},
{
color = 5;
glyphname = e;
lastChange = "2023-10-31 19:55:38 +0000";
layers = (
{
anchors = (
{
name = bottom;
pos = (259,0);
},
{
name = ogonek;
pos = (466,10);
},
{
name = top;
pos = (259,480);
}
);
background = {
shapes = (
{
pos = (-30,0);
ref = o;
}
);
};
hints = (
{
horizontal = 1;
place = (314,72);
type = Stem;
},
{
horizontal = 1;
place = (151,72);
type = Stem;
},
{
horizontal = 1;
place = (-24,72);
type = Stem;
},
{
place = (377,90);
type = Stem;
},
{
place = (50,90);
type = Stem;
}
);
layerId = "2F065738-4B59-43EB-A5F2-FD5F277958EA";
shapes = (
{
closed = 1;
nodes = (
(395,-8,ls),
(416,-8,o),
(460,-3,o),
(460,25,cs),
(460,63,o),
(420,64,o),
(395,64,cs),
(352,64,o),
(310,63,o),
(268,63,cs),
(180,63,o),
(143,100,o),
(137,184,cs),
(135,211,l),
(436,211,ls),
(457,211,o),
(484,224,o),
(484,247,cs),
(484,250,o),
(484,253,o),
(484,257,c),
(479,376,o),
(438,492,o),
(261,492,cs),
(100,492,o),
(43,389,o),
(43,253,cs),
(43,53,o),
(138,-8,o),
(220,-8,cs)
);
},
{
closed = 1;
nodes = (
(139,298,ls),
(146,335,o),
(152,417,o),
(264,417,cs),
(281,417,o),
(389,418,o),
(389,291,cs),
(389,283,l),
(310,283,o),
(215,283,o),
(136,283,c)
);
}
);
width = 518;
}
);
note = e;
unicode = 101;
},
{
color = 0;
glyphname = f;
lastChange = "2023-10-31 19:55:38 +0000";
layers = (
{
anchors = (
{
name = bottom;
pos = (180,0);
},
{
name = top;
pos = (180,742);
}
);
hints = (
{
horizontal = 1;
place = (652,73);
type = Stem;
},
{
horizontal = 1;
place = (315,73);
type = Stem;
},
{
horizontal = 1;
place = (-24,21);
target = up;
type = BottomGhost;
},
{
place = (51,90);
type = Stem;
}
);
layerId = "2F065738-4B59-43EB-A5F2-FD5F277958EA";
shapes = (
{
closed = 1;
nodes = (
(154,-24,o),
(141,32,o),
(141,70,cs),
(141,196,l),
(141,235,l),
(142,241,o),
(142,247,o),
(143,254,cs),
(145,267,o),
(152,280,o),
(160,290,cs),
(188,323,o),
(226,315,o),
(265,315,cs),
(285,315,o),
(310,328,o),
(310,351,cs),
(310,385,o),
(269,388,o),
(244,388,cs),
(208,388,o),
(174,387,o),
(141,372,c),
(141,573,ls),
(141,589,o),
(146,605,o),
(154,618,cs),
(180,661,o),
(223,652,o),
(265,652,cs),
(285,652,o),
(310,665,o),
(310,688,cs),
(310,722,o),
(269,725,o),
(244,725,cs),
(233,725,o),
(222,724,o),
(211,724,cs),
(127,724,o),
(51,660,o),
(51,573,cs),
(51,393,o),
(51,212,o),
(51,32,cs),
(51,23,o),
(50,9,o),
(53,1,cs),
(60,-16,o),
(79,-24,o),
(96,-24,cs)
);
}
);
width = 360;
}
);
note = f;
unicode = 102;
},
{
color = 0;
glyphname = g;
lastChange = "2023-10-31 19:55:38 +0000";
layers = (
{
anchors = (
{
name = bottom;
pos = (265,-258);
},
{
name = top;
pos = (265,480);
}
);
hints = (
{
place = (389,90);
type = Stem;
},
{
place = (314,72);
type = Stem;
},
{
place = (51,90);
type = Stem;
},
{
place = (-24,72);
type = Stem;
},
{
place = (-362,72);
type = Stem;
}
);
layerId = "2F065738-4B59-43EB-A5F2-FD5F277958EA";
shapes = (
{
closed = 1;
nodes = (
(315,-362,ls),
(400,-362,o),
(479,-300,o),
(479,-211,cs),
(480,-141,ls),
(480,-78,o),
(475,-30,o),
(421,12,c),
(479,57,o),
(479,105,o),
(479,173,cs),
(479,344,ls),
(479,370,o),
(459,386,o),
(434,386,cs),
(419,386,o),
(393,378,o),
(395,339,c),
(380,362,o),
(338,386,o),
(282,386,cs),
(211,386,ls),
(127,386,o),
(51,322,o),
(51,235,cs),
(51,127,ls),
(51,95,o),
(62,64,o),
(81,39,cs),
(139,-37,o),
(222,-24,o),
(306,-24,cs),
(363,-24,o),
(389,-60,o),
(389,-114,cs),
(389,-210,ls),
(389,-258,o),
(355,-291,o),
(307,-291,cs),
(212,-290,ls),
(122,-290,o),
(141,-167,o),
(141,-109,cs),
(141,-83,o),
(121,-67,o),
(96,-67,cs),
(75,-67,o),
(51,-80,o),
(51,-103,cs),
(51,-211,ls),
(51,-298,o),
(127,-362,o),
(211,-362,cs)
);
},
{
closed = 1;
nodes = (
(174,48,o),
(141,79,o),
(141,128,cs),
(141,234,ls),
(141,274,o),
(170,314,o),
(212,314,cs),
(317,314,ls),
(404,314,o),
(389,199,o),
(389,143,cs),
(389,30,o),
(306,48,o),
(222,48,cs)
);
}
);
width = 530;
}
);
note = g;
unicode = 103;
},
{
color = 5;
glyphname = h;
lastChange = "2023-10-31 19:55:38 +0000";
layers = (
{
anchors = (
{
name = bottom;
pos = (299,0);
},
{
name = center;
pos = (299,742);
},
{
name = top;
pos = (299,742);
}
);
background = {
shapes = (
{
ref = n;
}
);
};
hints = (
{
horizontal = 1;
place = (724,-20);
target = down;
type = TopGhost;
},
{
horizontal = 1;
place = (313,71);
type = Stem;
},
{
horizontal = 1;
place = (-20,21);
target = up;
type = BottomGhost;
},
{
horizontal = 1;
place = (-24,21);
target = up;
type = BottomGhost;
},
{
place = (387,90);
type = Stem;
},
{
place = (51,90);
type = Stem;
},
{
horizontal = 1;
place = (314,72);
type = Stem;
},
{
horizontal = 1;
place = (-22,21);
target = up;
type = BottomGhost;
},
{
horizontal = 1;
place = (-23,21);
target = up;
type = BottomGhost;
},
{
place = (344,90);
type = Stem;
},
{
place = (13,90);
type = Stem;
}
);
layerId = "2F065738-4B59-43EB-A5F2-FD5F277958EA";
shapes = (
{
closed = 1;
nodes = (
(163,-13,o),
(176,3,o),
(176,46,cs),
(176,273,ls),
(176,371,o),
(212,417,o),
(299,417,cs),
(386,417,o),
(422,371,o),
(422,273,cs),
(422,46,ls),
(422,3,o),
(435,-13,o),
(468,-13,cs),
(501,-13,o),
(514,3,o),
(514,46,cs),
(514,263,ls),
(514,421,o),
(449,492,o),
(303,492,cs),
(244,492,o),
(186,465,o),
(163,427,c),
(173,470,o),
(177,525,o),
(177,603,cs),
(177,668,o),
(183,687,o),
(209,683,cs),
(230,680,o),
(246,653,o),
(300,656,c),
(330,658,o),
(341,674,o),
(341,695,cs),
(341,725,o),
(294,754,o),
(246,754,cs),
(137,754,o),
(85,689,o),
(85,553,cs),
(84,46,ls),
(84,3,o),
(97,-13,o),
(130,-13,cs)
);
}
);
width = 598;
}
);
metricLeft = n;
metricRight = n;
note = h;
unicode = 104;
},
{
color = 5;
glyphname = i;
lastChange = "2023-10-31 19:55:38 +0000";
layers = (
{
anchors = (
{
name = bottom;
pos = (129,0);
}
);
hints = (
{
horizontal = 1;
place = (547,39);
type = Stem;
},
{
horizontal = 1;
place = (448,40);
type = Stem;
},
{
horizontal = 1;
place = (-21,21);
target = up;
type = BottomGhost;
},
{
place = (166,41);
type = Stem;
},
{
place = (84,90);
type = Stem;
},
{
place = (50,42);
type = Stem;
}
);
layerId = "2F065738-4B59-43EB-A5F2-FD5F277958EA";
shapes = (
{
closed = 1;
nodes = (
(149,-12,o),
(174,1,o),
(174,24,cs),
(175,457,ls),
(175,480,o),
(150,493,o),
(130,493,c),
(109,493,o),
(85,480,o),
(85,457,cs),
(84,24,ls),
(84,1,o),
(108,-12,o),
(129,-12,cs)
);
},
{
closed = 1;
nodes = (
(168,562,o),
(200,590,o),
(200,631,cs),
(200,669,o),
(172,700,o),
(129,700,cs),
(91,700,o),
(58,673,o),
(58,631,cs),
(58,590,o),
(91,562,o),
(129,562,cs)
);
},
{
closed = 1;
nodes = (
(111,602,o),
(100,613,o),
(100,631,cs),
(100,649,o),
(111,661,o),
(129,661,cs),
(147,661,o),
(158,648,o),
(158,630,cs),
(158,612,o),
(147,602,o),
(129,602,c)
);
}
);
width = 257;
}
);
note = i;
unicode = 105;
},
{
color = 0;
glyphname = j;
lastChange = "2023-10-31 18:50:38 +0000";
layers = (
{
hints = (
{
horizontal = 1;
place = (547,39);
type = Stem;
},
{
horizontal = 1;
place = (448,40);
type = Stem;
},
{
horizontal = 1;
place = (-210,72);
type = Stem;
},
{
place = (210,41);
type = Stem;
},
{
place = (131,90);
type = Stem;
},
{
place = (94,42);
type = Stem;
}
);
layerId = "2F065738-4B59-43EB-A5F2-FD5F277958EA";
shapes = (
{
closed = 1;
nodes = (
(266,3,l),
(267,456,l),
(267,457,ls),
(267,479,o),
(242,492,o),
(222,492,cs),
(201,492,o),
(176,479,o),
(176,457,cs),
(176,3,l)
);
},
{
closed = 1;
nodes = (
(259,562,o),
(291,590,o),
(291,631,cs),
(291,669,o),
(263,700,o),
(220,700,cs),
(182,700,o),
(149,673,o),
(149,631,cs),
(149,590,o),
(182,562,o),
(220,562,cs)
);
},
{
closed = 1;
nodes = (
(202,602,o),
(191,613,o),
(191,631,cs),
(191,649,o),
(202,661,o),
(220,661,cs),
(238,661,o),
(249,648,o),
(249,630,cs),
(249,612,o),
(238,602,o),
(220,602,c)
);
},
{
closed = 1;
nodes = (
(176,5,l),
(176,-28,o),
(176,-21,o),
(176,-41,cs),
(176,-77,ls),
(176,-142,o),
(170,-161,o),
(144,-157,cs),
(123,-154,o),
(107,-127,o),
(53,-130,cs),
(23,-132,o),
(12,-148,o),
(12,-169,cs),
(12,-199,o),
(59,-228,o),
(107,-228,cs),
(234,-228,o),
(266,-177,o),
(266,-41,cs),
(266,5,l)
);
}
);
width = 298;
}
);
note = j;
unicode = 106;
},
{
color = 0;
glyphname = k;
lastChange = "2023-10-31 19:55:38 +0000";
layers = (
{
anchors = (
{
name = bottom;
pos = (264,0);
},
{
name = top;
pos = (264,742);
}
);
annotations = (
{
pos = (184.903,525.453);
type = Text;
}
);
background = {
shapes = (
{
closed = 1;
nodes = (
(175,515,l),
(176,541,o),
(177,570,o),
(177,603,cs),
(177,668,o),
(183,687,o),
(209,683,cs),
(230,680,o),
(246,653,o),
(300,656,c),
(330,658,o),
(341,674,o),
(341,695,cs),
(341,725,o),
(294,754,o),
(246,754,cs),
(137,754,o),
(85,689,o),
(85,553,cs),
(85,515,l)
);
},
{
closed = 1;
nodes = (
(85,515,l),
(84,46,ls),
(84,3,o),
(97,-13,o),
(130,-13,cs),
(163,-13,o),
(176,3,o),
(176,46,cs),
(176,273,ls),
(176,371,o),
(212,412,o),
(299,412,cs),
(386,412,o),
(422,371,o),
(422,273,cs),
(422,46,ls),
(422,3,o),
(435,-13,o),
(468,-13,cs),
(501,-13,o),
(514,3,o),
(514,46,cs),
(514,263,ls),
(514,421,o),
(449,492,o),
(303,492,cs),
(244,492,o),
(186,465,o),
(163,427,c),
(169,452,o),
(173,481,o),
(175,515,c)
);
}
);
};
hints = (
{
horizontal = 1;
place = (649,75);
type = Stem;
},
{
horizontal = 1;
place = (151,72);
type = Stem;
},
{
horizontal = 1;
place = (-20,21);
target = up;
type = BottomGhost;
},
{
horizontal = 1;
place = (-24,21);
target = up;
type = BottomGhost;
},
{
place = (386,91);
type = Stem;
},
{
place = (383,91);
type = Stem;
},
{
place = (51,90);
type = Stem;
}
);
layerId = "2F065738-4B59-43EB-A5F2-FD5F277958EA";
shapes = (
{
closed = 1;
nodes = (
(177,603,ls),
(177,668,o),
(183,687,o),
(209,683,cs),
(230,680,o),
(246,653,o),
(300,656,cs),
(330,658,o),
(341,674,o),
(341,695,cs),
(341,725,o),
(294,754,o),
(246,754,cs),
(137,754,o),
(85,689,o),
(85,553,cs),
(85,210,ls),
(85,154,o),
(86,99,o),
(86,44,cs),
(86,4,o),
(95,-12,o),
(131,-12,cs),
(171,-12,o),
(177,15,o),
(177,44,cs),
(177,57,o),
(177,70,o),
(177,82,c),
(177,154,o),
(226,203,o),
(290,203,cs),
(342,203,o),
(421,175,o),
(421,40,cs),
(421,9,o),
(434,-12,o),
(467,-12,cs),
(488,-12,o),
(512,1,o),
(512,24,cs),
(512,85,ls),
(512,133,o),
(489,232,o),
(454,259,c),
(495,293,o),
(509,335,o),
(509,386,cs),
(509,417,ls),
(509,440,o),
(484,453,o),
(464,453,cs),
(416,453,o),
(418,416,o),
(418,381,cs),
(418,345,o),
(405,308,o),
(367,296,cs),
(359,294,o),
(351,294,o),
(344,293,c),
(300,293,ls),
(275,293,o),
(197,288,o),
(176,278,c)
);
}
);
width = 528;
}
);
note = k;
unicode = 107;
},
{
color = 5;
glyphname = l;
lastChange = "2023-10-31 19:55:38 +0000";
layers = (
{
anchors = (
{
name = bottom;
pos = (170,0);
},
{
name = center;
pos = (170,742);
},
{
name = top;
pos = (170,742);
},
{
name = topright;
pos = (320,742);
}
);
hints = (
{
horizontal = 1;
place = (724,-20);
target = down;
type = TopGhost;
},
{
horizontal = 1;
place = (-24,72);
type = Stem;
},
{
place = (51,90);
type = Stem;
}
);
layerId = "2F065738-4B59-43EB-A5F2-FD5F277958EA";
shapes = (
{
closed = 1;
nodes = (
(150,0,o),
(298,0,cs),
(298,0,o),
(340,1,o),
(340,39,cs),
(340,77,o),
(298,77,o),
(298,77,c),
(142,77,o),
(141,82,o),
(141,221,cs),
(141,664,ls),
(141,687,o),
(117,700,o),
(96,700,cs),
(79,700,o),
(60,692,o),
(53,675,cs),
(50,667,o),
(51,653,o),
(51,139,cs),
(51,-13,o)
);
}
);
width = 340;
}
);
note = l;
unicode = 108;
},
{
color = 5;
glyphname = m;
lastChange = "2023-10-31 19:55:38 +0000";
layers = (
{
anchors = (
{
name = bottom;
pos = (389,0);
},
{
name = top;
pos = (389,480);
}
);
hints = (
{
horizontal = 1;
place = (313,72);
type = Stem;
},
{
horizontal = 1;
place = (-21,21);
target = up;
type = BottomGhost;
},
{
horizontal = 1;
place = (-22,21);
target = up;
type = BottomGhost;
},
{
place = (638,89);
type = Stem;
},
{
place = (343,92);
type = Stem;
},
{
place = (51,91);
type = Stem;
}
);
layerId = "2F065738-4B59-43EB-A5F2-FD5F277958EA";
shapes = (
{
closed = 1;
nodes = (
(422,-13,o),
(435,3,o),
(435,46,cs),
(435,273,ls),
(435,375,o),
(471,418,o),
(558,418,cs),
(645,418,o),
(681,375,o),
(681,273,cs),
(681,46,ls),
(681,3,o),
(694,-13,o),
(727,-13,cs),
(760,-13,o),
(773,3,o),
(773,46,cs),
(773,263,ls),
(773,428,o),
(704,492,o),
(558,492,cs),
(480,492,o),
(424,474,o),
(389,432,c),
(353,474,o),
(298,492,o),
(220,492,cs),
(74,492,o),
(5,430,o),
(5,263,cs),
(5,46,ls),
(5,3,o),
(18,-13,o),
(51,-13,cs),
(84,-13,o),
(97,3,o),
(97,46,cs),
(97,273,ls),
(97,375,o),
(133,418,o),
(220,418,cs),
(307,418,o),
(343,375,o),
(343,273,cs),
(343,46,ls),
(343,3,o),
(356,-13,o),
(389,-13,cs)
);
}
);
width = 778;
}
);
note = m;
unicode = 109;
},
{
color = 5;
glyphname = n;
lastChange = "2023-10-31 19:55:38 +0000";
layers = (
{
anchors = (
{
name = bottom;
pos = (299,0);
},
{
name = top;
pos = (299,480);
}
);
background = {
shapes = (
{
pos = (7,0);
ref = o;
}
);
};
hints = (
{
horizontal = 1;
place = (314,72);
type = Stem;
},
{
horizontal = 1;
place = (-22,21);
target = up;
type = BottomGhost;
},
{
horizontal = 1;
place = (-23,21);
target = up;
type = BottomGhost;
},
{
place = (382,90);
type = Stem;
},
{
place = (51,90);
type = Stem;
}
);
layerId = "2F065738-4B59-43EB-A5F2-FD5F277958EA";
shapes = (
{
closed = 1;
nodes = (
(163,-13,o),
(176,3,o),
(176,46,cs),
(176,273,ls),
(176,375,o),
(212,418,o),
(299,418,cs),
(386,418,o),
(422,375,o),
(422,273,cs),
(422,46,ls),
(422,3,o),
(435,-13,o),
(468,-13,cs),
(501,-13,o),
(514,3,o),
(514,46,cs),
(514,263,ls),
(514,428,o),
(445,492,o),
(299,492,cs),
(153,492,o),
(84,430,o),
(84,263,cs),
(84,46,ls),
(84,3,o),
(97,-13,o),
(130,-13,cs)
);
}
);
width = 598;
}
);
note = n;
unicode = 110;
},
{
color = 5;
glyphname = eng;
lastChange = "2023-10-31 19:57:33 +0000";
layers = (
{
anchors = (
{
name = bottom;
pos = (300,-258);
},
{
name = top;
pos = (300,480);
}
);
hints = (
{
horizontal = 1;
place = (547,39);
type = Stem;
},
{
horizontal = 1;
place = (448,40);
type = Stem;
},
{
horizontal = 1;
place = (-210,72);
type = Stem;
},
{
place = (808,41);
type = Stem;
},
{
place = (729,90);
type = Stem;
},
{
place = (692,42);
type = Stem;
},
{
horizontal = 1;
place = (314,72);
type = Stem;
},
{
horizontal = 1;
place = (-22,21);
target = up;
type = BottomGhost;
},
{
horizontal = 1;
place = (-23,21);
target = up;
type = BottomGhost;
},
{
place = (382,90);
type = Stem;
},
{
place = (51,90);
type = Stem;
}
);
layerId = "2F065738-4B59-43EB-A5F2-FD5F277958EA";
shapes = (
{
closed = 1;
nodes = (
(487,-228,o),
(514,-155,o),
(514,-41,cs),
(514,263,ls),
(515,428,o),
(445,492,o),
(299,492,cs),
(153,492,o),
(84,430,o),
(84,263,cs),
(84,46,ls),
(84,3,o),
(97,-13,o),
(130,-13,cs),
(163,-13,o),
(176,3,o),
(176,46,cs),
(176,273,ls),
(176,375,o),
(212,418,o),
(299,418,cs),
(386,418,o),
(422,375,o),
(422,273,cs),
(422,-77,ls),
(422,-131,o),
(418,-164,o),
(390,-157,cs),
(368,-151,o),
(343,-125,o),
(299,-130,cs),
(269,-133,o),
(258,-148,o),
(258,-166,cs),
(258,-199,o),
(294,-228,o),
(369,-228,cs)
);
}
);
width = 598;
}
);
metricLeft = n;
metricRight = n;
unicode = 331;
},
{
color = 5;
glyphname = o;
lastChange = "2023-10-31 19:55:38 +0000";
layers = (
{
anchors = (
{
name = bottom;
pos = (293,0);
},
{
name = center;
pos = (293,240);
},
{
name = ogonek;
pos = (527,10);
},
{
name = top;
pos = (293,480);
},
{
name = topright;
pos = (566,480);
}
);
hints = (
{
horizontal = 1;
place = (314,72);
type = Stem;
},
{
horizontal = 1;
place = (-26,72);
type = Stem;
},
{
place = (377,90);
type = Stem;
},
{
place = (50,90);
type = Stem;
}
);
layerId = "2F065738-4B59-43EB-A5F2-FD5F277958EA";
shapes = (
{
closed = 1;
nodes = (
(462,-12,o),
(514,95,o),
(514,240,cs),
(514,385,o),
(462,492,o),
(293,492,cs),
(124,492,o),
(72,385,o),
(72,240,cs),
(72,95,o),
(124,-12,o),
(293,-12,cs)
);
},
{
closed = 1;
nodes = (
(198,62,o),
(164,115,o),
(164,240,cs),
(164,365,o),
(198,418,o),
(293,418,cs),
(388,418,o),
(422,365,o),
(422,240,cs),
(422,115,o),
(388,62,o),
(293,62,cs)
);
}
);
width = 586;
}
);
note = o;
unicode = 111;
},
{
color = 5;
glyphname = p;
lastChange = "2023-10-31 19:55:38 +0000";
layers = (
{
anchors = (
{
name = bottom;
pos = (265,0);
},
{
name = top;
pos = (265,480);
}
);
hints = (
{
horizontal = 1;
place = (314,72);
type = Stem;
},
{
horizontal = 1;
place = (-24,72);
type = Stem;
},
{
horizontal = 1;
place = (-9,21);
target = up;
type = BottomGhost;
},
{
horizontal = 1;
place = (-362,21);
target = up;
type = BottomGhost;
},
{
place = (389,90);
type = Stem;
},
{
place = (51,90);
type = Stem;
}
);
layerId = "2F065738-4B59-43EB-A5F2-FD5F277958EA";
shapes = (
{
closed = 1;
nodes = (
(271,492,cs),
(148,492,o),
(49,434,o),
(50,249,cs),
(51,-100,l),
(51,-233,ls),
(51,-256,o),
(75,-269,o),
(96,-269,cs),
(125,-269,o),
(139,-247,o),
(139,-232,c),
(139,-227,o),
(140,-165,o),
(140,-98,cs),
(140,-33,o),
(140,40,o),
(140,20,c),
(165,6,o),
(203,-12,o),
(271,-12,cs),
(484,-12,o),
(492,159,o),
(492,246,cs),
(492,418,o),
(414,492,o)
);
},
{
closed = 1;
nodes = (
(417,418,o),
(400,261,o),
(400,246,cs),
(400,217,o),
(413,62,o),
(268,62,cs),
(120,62,o),
(143,233,o),
(143,248,cs),
(143,395,o),
(203,418,o),
(270,418,c)
);
}
);
width = 530;
}
);
note = p;
unicode = 112;
},
{
color = 5;
glyphname = q;
lastChange = "2023-10-31 19:55:38 +0000";
layers = (
{
anchors = (
{
name = bottom;
pos = (266,0);
},
{
name = top;
pos = (266,480);
}
);
hints = (
{
horizontal = 1;
place = (314,72);
type = Stem;
},
{
horizontal = 1;
place = (-24,72);
type = Stem;
},
{
horizontal = 1;
place = (-362,21);
target = up;
type = BottomGhost;
},
{
place = (390,90);
type = Stem;
},
{
place = (51,90);
type = Stem;
}
);
layerId = "2F065738-4B59-43EB-A5F2-FD5F277958EA";
shapes = (
{
closed = 1;
nodes = (
(38,418,o),
(38,246,cs),
(38,159,o),
(46,-12,o),
(259,-12,cs),
(327,-12,o),
(365,6,o),
(390,20,c),
(390,40,o),
(390,-33,o),
(390,-98,cs),
(390,-165,o),
(391,-227,o),
(391,-232,c),
(391,-247,o),
(405,-269,o),
(434,-269,cs),
(455,-269,o),
(479,-256,o),
(479,-233,cs),
(479,-100,l),
(480,249,ls),
(481,434,o),
(382,492,o),
(259,492,cs),
(116,492,o)
);
},
{
closed = 1;
nodes = (
(327,418,o),
(387,395,o),
(387,248,cs),
(387,233,o),
(410,62,o),
(262,62,cs),
(117,62,o),
(130,217,o),
(130,246,cs),
(130,261,o),
(113,418,o),
(260,418,c)
);
}
);
width = 531;
}
);
note = q;
unicode = 113;
},
{
color = 0;
glyphname = r;
lastChange = "2023-10-31 19:55:38 +0000";
layers = (
{
anchors = (
{
name = bottom;
pos = (168,0);
},
{
name = top;
pos = (168,480);
}
);
hints = (
{
horizontal = 1;
place = (315,72);
type = Stem;
},
{
horizontal = 1;
place = (-24,21);
target = up;
type = BottomGhost;
},
{
place = (51,92);
type = Stem;
}
);
layerId = "2F065738-4B59-43EB-A5F2-FD5F277958EA";
shapes = (
{
closed = 1;
nodes = (
(117,-24,o),
(139,-13,o),
(142,9,cs),
(143,17,o),
(143,25,o),
(143,33,cs),
(143,102,o),
(142,171,o),
(142,240,cs),
(142,246,o),
(142,249,o),
(142,253,c),
(148,292,o),
(178,315,o),
(219,315,cs),
(231,315,o),
(242,314,o),
(253,314,cs),
(276,314,o),
(306,322,o),
(306,350,cs),
(306,391,o),
(248,387,o),
(220,387,cs),
(188,387,o),
(151,369,o),
(132,332,c),
(130,360,o),
(121,383,o),
(97,383,cs),
(66,383,o),
(51,365,o),
(51,335,cs),
(52,85,ls),
(52,68,o),
(51,51,o),
(51,34,cs),
(51,26,o),
(51,17,o),
(52,9,cs),
(55,-13,o),
(77,-24,o),
(97,-24,cs)
);
}
);
width = 336;
}
);
note = r;
unicode = 114;
},
{
color = 0;
glyphname = s;
lastChange = "2023-10-31 19:55:38 +0000";
layers = (
{
anchors = (
{
name = bottom;
pos = (259,0);
},
{
name = top;
pos = (259,480);
}
);
hints = (
{
horizontal = 1;
place = (314,72);
type = Stem;
},
{
horizontal = 1;
place = (151,72);
type = Stem;
},
{
horizontal = 1;
place = (-24,71);
type = Stem;
},
{
place = (378,90);
type = Stem;
},
{
place = (50,90);
type = Stem;
}
);
layerId = "2F065738-4B59-43EB-A5F2-FD5F277958EA";
shapes = (
{
closed = 1;
nodes = (
(311,-24,ls),
(381,-24,o),
(468,13,o),
(468,94,cs),
(468,237,o),
(304,223,o),
(207,223,cs),
(179,223,o),
(140,234,o),
(140,268,cs),
(140,298,o),
(183,314,o),
(208,314,cs),
(310,314,ls),
(383,314,o),
(357,230,o),
(419,230,cs),
(440,230,o),
(464,243,o),
(464,266,cs),
(464,278,o),
(458,291,o),
(453,302,cs),
(426,355,o),
(370,386,o),
(311,386,cs),
(206,386,ls),
(141,386,o),
(50,344,o),
(50,269,cs),
(50,245,o),
(59,222,o),
(74,204,cs),
(129,137,o),
(234,151,o),
(310,151,cs),
(347,151,o),
(378,135,o),
(378,94,cs),
(378,50,o),
(323,47,o),
(291,47,cs),
(235,47,o),
(180,49,o),
(125,49,cs),
(100,49,o),
(61,46,o),
(61,12,cs),
(61,-11,o),
(86,-24,o),
(106,-24,cs)
);
}
);
width = 518;
}
);
note = s;
unicode = 115;
},
{
color = 0;
glyphname = t;
lastChange = "2023-10-31 19:55:38 +0000";
layers = (
{
anchors = (
{
name = bottom;
pos = (180,0);
},
{
name = center;
pos = (180,240);
},
{
name = top;
pos = (180,480);
},
{
name = topright;
pos = (340,742);
}
);
hints = (
{
horizontal = 1;
place = (724,-20);
target = down;
type = TopGhost;
},
{
horizontal = 1;
place = (314,72);
type = Stem;
},
{
horizontal = 1;
place = (-25,73);
type = Stem;
},
{
place = (51,90);
type = Stem;
}
);
layerId = "2F065738-4B59-43EB-A5F2-FD5F277958EA";
shapes = (
{
closed = 1;
nodes = (
(269,-25,o),
(310,-22,o),
(310,12,cs),
(310,35,o),
(285,48,o),
(265,48,cs),
(223,48,o),
(180,40,o),
(154,82,cs),
(146,96,o),
(141,112,o),
(141,128,cs),
(141,251,l),
(147,292,o),
(177,314,o),
(218,314,cs),
(246,314,o),
(310,306,o),
(310,350,cs),
(310,392,o),
(251,386,o),
(223,386,cs),
(193,386,o),
(169,384,o),
(141,372,c),
(141,505,l),
(141,630,ls),
(141,669,o),
(154,724,o),
(96,724,cs),
(79,724,o),
(60,716,o),
(53,699,cs),
(50,691,o),
(51,678,o),
(51,669,cs),
(51,488,o),
(51,308,o),
(51,127,cs),
(51,40,o),
(127,-24,o),
(211,-24,cs),
(222,-24,o),
(233,-25,o),
(244,-25,cs)
);
}
);
width = 360;
}
);
note = t;
unicode = 116;
},
{
color = 5;
glyphname = u;
lastChange = "2023-10-31 19:55:38 +0000";
layers = (
{
anchors = (
{
name = bottom;
pos = (261,0);
},
{
name = ogonek;
pos = (470,10);
},
{
name = top;
pos = (261,480);
},
{
name = topright;
pos = (502,480);
}
);
background = {
shapes = (
{
closed = 1;
nodes = (
(397,493,o),
(384,477,o),
(384,434,cs),
(384,207,ls),
(384,105,o),
(348,62,o),
(261,62,cs),
(174,62,o),
(138,105,o),
(138,207,cs),
(138,434,ls),
(138,477,o),
(125,493,o),
(92,493,cs),
(59,493,o),
(46,477,o),
(46,434,cs),
(46,217,ls),
(46,52,o),
(115,-12,o),
(261,-12,cs),
(407,-12,o),
(476,50,o),
(476,217,cs),
(476,434,ls),
(476,477,o),
(463,493,o),
(430,493,cs)
);
}
);
};
hints = (
{
horizontal = 1;
place = (-24,72);
type = Stem;
},
{
horizontal = 1;
place = (-2,21);
target = up;
type = BottomGhost;
},
{
place = (380,92);
type = Stem;
},
{
place = (51,90);
type = Stem;
}
);
layerId = "2F065738-4B59-43EB-A5F2-FD5F277958EA";
shapes = (
{
closed = 1;
nodes = (
(476,434,ls),
(476,477,o),
(463,493,o),
(430,493,cs),
(397,493,o),
(384,477,o),
(384,434,cs),
(384,207,ls),
(384,105,o),
(348,62,o),
(261,62,cs),
(174,62,o),
(138,105,o),
(138,207,cs),
(138,434,ls),
(138,477,o),
(125,493,o),
(92,493,cs),
(59,493,o),
(46,477,o),
(46,434,cs),
(46,217,ls),
(46,52,o),
(115,-12,o),
(261,-12,cs),
(311,-12,o),
(352,-5,o),
(384,11,c),
(391,-2,o),
(407,-11,o),
(428,-11,cs),
(458,-11,o),
(476,3,o),
(476,27,cs)
);
}
);
width = 522;
}
);
note = u;
unicode = 117;
},
{
color = 0;
glyphname = v;
lastChange = "2023-10-31 19:55:38 +0000";
layers = (
{
anchors = (
{
name = bottom;
pos = (259,0);
},
{
name = top;
pos = (259,480);
}
);
hints = (
{
horizontal = 1;
place = (-24,71);
type = Stem;
},
{
place = (378,89);
type = Stem;
},
{
place = (50,91);
type = Stem;
}
);
layerId = "2F065738-4B59-43EB-A5F2-FD5F277958EA";
shapes = (
{
closed = 1;
nodes = (
(296,-25,o),
(319,-25,o),
(343,-21,cs),
(412,-8,o),
(467,51,o),
(467,122,cs),
(467,350,ls),
(467,373,o),
(442,386,o),
(422,386,cs),
(405,386,o),
(387,378,o),
(380,362,cs),
(376,355,o),
(376,306,o),
(376,296,cs),
(376,284,o),
(376,273,o),
(376,261,cs),
(378,190,ls),
(378,179,o),
(378,167,o),
(378,155,cs),
(378,142,o),
(378,127,o),
(377,114,cs),
(373,86,o),
(355,60,o),
(328,51,cs),
(315,47,o),
(249,47,o),
(234,47,cs),
(202,47,o),
(171,48,o),
(140,48,c),
(140,138,o),
(141,228,o),
(141,317,cs),
(141,328,o),
(142,353,o),
(137,362,cs),
(130,378,o),
(112,386,o),
(95,386,cs),
(75,386,o),
(50,373,o),
(50,350,cs),
(50,12,ls),
(50,-11,o),
(75,-24,o),
(95,-24,cs),
(229,-24,ls),
(234,-24,o),
(239,-24,o),
(243,-24,cs),
(272,-25,ls)
);
}
);
width = 517;
}
);
note = v;
unicode = 118;
},
{
color = 5;
glyphname = w;
lastChange = "2023-10-31 19:55:38 +0000";
layers = (
{
anchors = (
{
name = bottom;
pos = (389,0);
},
{
name = top;
pos = (389,480);
}
);
hints = (
{
horizontal = 1;
place = (-24,73);
type = Stem;
},
{
place = (638,89);
type = Stem;
},
{
place = (343,91);
type = Stem;
},
{
place = (51,90);
type = Stem;
}
);
layerId = "2F065738-4B59-43EB-A5F2-FD5F277958EA";
shapes = (
{
closed = 1;
nodes = (
(356,493,o),
(343,477,o),
(343,434,cs),
(343,207,ls),
(343,105,o),
(307,62,o),
(220,62,cs),
(133,62,o),
(97,105,o),
(97,207,cs),
(97,434,ls),
(97,477,o),
(84,493,o),
(51,493,cs),
(18,493,o),
(5,477,o),
(5,434,cs),
(5,217,ls),
(5,52,o),
(74,-12,o),
(220,-12,cs),
(298,-12,o),
(354,6,o),
(389,48,c),
(425,6,o),
(480,-12,o),
(558,-12,cs),
(704,-12,o),
(773,50,o),
(773,217,cs),
(773,434,ls),
(773,477,o),
(760,493,o),
(727,493,cs),
(694,493,o),
(681,477,o),
(681,434,cs),
(681,207,ls),
(681,105,o),
(645,62,o),
(558,62,cs),
(471,62,o),
(435,105,o),
(435,207,cs),
(435,434,ls),
(435,477,o),
(422,493,o),
(389,493,cs)
);
}
);
width = 778;
}
);
note = w;
unicode = 119;
},
{
color = 5;
glyphname = x;
lastChange = "2023-10-31 19:55:38 +0000";
layers = (
{
anchors = (
{
name = bottom;
pos = (259,0);
},
{
name = top;
pos = (259,480);
}
);
hints = (
{
horizontal = 1;
place = (314,72);
type = Stem;
},
{
horizontal = 1;
place = (-25,72);
type = Stem;
},
{
place = (214,90);
type = Stem;
}
);
layerId = "2F065738-4B59-43EB-A5F2-FD5F277958EA";
shapes = (
{
closed = 1;
nodes = (
(229,474,o),
(190,491,o),
(148,491,cs),
(95,491,ls),
(75,491,o),
(50,478,o),
(50,455,cs),
(50,421,o),
(69,418,o),
(95,418,cs),
(223,418,o),
(214,271,o),
(214,235,cs),
(214,127,o),
(186,84,o),
(128,65,c),
(104,59,o),
(79,65,o),
(60,45,cs),
(55,39,o),
(51,31,o),
(51,23,cs),
(51,0,o),
(76,-13,o),
(96,-13,cs),
(148,-13,ls),
(191,-13,o),
(230,3,o),
(258,30,cs),
(259,31,o),
(259,31,o),
(259,31,c),
(260,30,ls),
(288,3,o),
(327,-13,o),
(370,-13,cs),
(422,-13,ls),
(442,-13,o),
(467,0,o),
(467,23,cs),
(467,31,o),
(463,39,o),
(458,45,cs),
(439,65,o),
(414,59,o),
(390,65,c),
(332,84,o),
(304,127,o),
(304,235,cs),
(304,271,o),
(295,418,o),
(423,418,cs),
(449,418,o),
(468,421,o),
(468,455,cs),
(468,478,o),
(443,491,o),
(423,491,cs),
(370,491,ls),
(328,491,o),
(289,474,o),
(260,448,cs),
(259,447,o),
(259,447,o),
(259,447,c),
(258,448,ls)
);
}
);
width = 518;
}
);
note = x;
unicode = 120;
},
{
color = 5;
glyphname = y;
lastChange = "2023-10-31 19:55:38 +0000";
layers = (
{
anchors = (
{
name = bottom;
pos = (265,0);
},
{
name = top;
pos = (265,480);
}
);
hints = (
{
horizontal = 1;
place = (-24,72);
type = Stem;
},
{
horizontal = 1;
place = (-362,72);
type = Stem;
},
{
place = (389,90);
type = Stem;
},
{
place = (51,90);
type = Stem;
}
);
layerId = "2F065738-4B59-43EB-A5F2-FD5F277958EA";
shapes = (
{
closed = 1;
nodes = (
(67,493,o),
(54,477,o),
(54,434,cs),
(54,217,ls),
(54,50,o),
(123,-12,o),
(250,-12,cs),
(306,-12,o),
(350,-5,o),
(385,11,c),
(387,4,o),
(388,-4,o),
(388,-12,cs),
(388,-115,o),
(403,-199,o),
(257,-199,c),
(257,-199,o),
(141,-211,o),
(141,-78,cs),
(141,-51,o),
(122,-36,o),
(96,-36,cs),
(75,-36,o),
(51,-49,o),
(51,-72,cs),
(51,-119,ls),
(51,-206,o),
(127,-270,o),
(211,-270,cs),
(312,-270,ls),
(399,-270,o),
(478,-211,o),
(478,-119,cs),
(478,-11,ls),
(478,20,o),
(469,48,o),
(453,71,c),
(474,106,o),
(484,154,o),
(484,217,cs),
(484,434,ls),
(484,477,o),
(471,493,o),
(438,493,cs),
(405,493,o),
(392,477,o),
(392,434,cs),
(392,207,ls),
(392,105,o),
(356,62,o),
(250,62,cs),
(182,62,o),
(146,105,o),
(146,207,cs),
(146,434,ls),
(146,477,o),
(133,493,o),
(100,493,cs)
);
}
);
width = 529;
}
);
note = y;
unicode = 121;
},
{
color = 0;
glyphname = z;
lastChange = "2023-10-31 19:55:38 +0000";
layers = (
{
anchors = (
{
name = bottom;
pos = (259,0);
},
{
name = center;
pos = (259,240);
},
{
name = top;
pos = (259,480);
}
);
hints = (
{
horizontal = 1;
place = (314,72);
type = Stem;
},
{
horizontal = 1;
place = (-25,73);
type = Stem;
},
{
place = (50,89);
type = Stem;
}
);
layerId = "2F065738-4B59-43EB-A5F2-FD5F277958EA";
shapes = (
{
closed = 1;
nodes = (
(227,-25,o),
(324,-24,o),
(422,-24,cs),
(443,-24,o),
(467,-11,o),
(467,12,cs),
(467,61,o),
(378,48,o),
(347,48,cs),
(187,48,l),
(371,238,l),
(431,300,ls),
(441,310,o),
(452,319,o),
(460,330,cs),
(464,336,o),
(467,342,o),
(467,350,cs),
(467,389,o),
(416,386,o),
(389,386,cs),
(332,386,l),
(206,386,ls),
(124,386,o),
(50,324,o),
(50,239,cs),
(50,216,o),
(75,203,o),
(95,203,cs),
(114,203,o),
(135,213,o),
(139,233,cs),
(141,240,o),
(140,248,o),
(142,255,cs),
(148,287,o),
(175,314,o),
(208,314,cs),
(330,314,l),
(146,124,l),
(86,62,ls),
(76,52,o),
(66,42,o),
(57,31,cs),
(53,26,o),
(50,19,o),
(50,12,cs),
(50,-27,o),
(103,-25,o),
(129,-25,cs)
);
}
);
width = 518;
}
);
note = z;
unicode = 122;
},
{
color = 5;
glyphname = a.ss01;
lastChange = "2023-10-31 19:55:38 +0000";
layers = (
{
anchors = (
{
name = bottom;
pos = (262,0);
},
{
name = ogonek;
pos = (471,10);
},
{
name = top;
pos = (262,480);
}
);
hints = (
{
horizontal = 1;
place = (313,72);
type = Stem;
},
{
horizontal = 1;
place = (-27,72);
type = Stem;
},
{
place = (382,90);
type = Stem;
},
{
place = (51,90);
type = Stem;
}
);
layerId = "2F065738-4B59-43EB-A5F2-FD5F277958EA";
shapes = (
{
closed = 1;
nodes = (
(254,-12,cs),
(302,-12,o),
(368,4,o),
(391,27,c),
(391,-6,o),
(417,-12,o),
(431,-12,cs),
(463,-12,o),
(472,7,o),
(472,30,cs),
(472,455,ls),
(472,495,o),
(420,491,o),
(392,491,cs),
(254,492,ls),
(46,494,o),
(33,325,o),
(33,240,cs),
(33,-12,o),
(198,-12,o)
);
},
{
closed = 1;
nodes = (
(170,61,o),
(126,108,o),
(124,229,cs),
(123,273,o),
(114,419,o),
(254,418,cs),
(311,418,o),
(325,419,o),
(382,419,c),
(382,374,o),
(381,243,o),
(381,198,c),
(381,75,o),
(287,62,o),
(254,62,cs)
);
}
);
width = 523;
}
);
note = a.ss01;
},
{
color = 0;
glyphname = b.ss01;
lastChange = "2023-10-31 19:55:38 +0000";
layers = (
{
anchors = (
{
name = bottom;
pos = (265,0);
},
{
name = center;
pos = (265,240);
},
{
name = top;
pos = (265,480);
}
);
hints = (
{
horizontal = 1;
place = (724,-20);
target = down;
type = TopGhost;
},
{
horizontal = 1;
place = (315,71);
type = Stem;
},
{
horizontal = 1;
place = (-24,72);
type = Stem;
},
{
place = (389,90);
type = Stem;
},
{
place = (51,90);
type = Stem;
}
);
layerId = "2F065738-4B59-43EB-A5F2-FD5F277958EA";
shapes = (
{
closed = 1;
nodes = (
(319,-24,ls),
(403,-24,o),
(479,40,o),
(479,127,cs),
(479,235,ls),
(479,322,o),
(403,386,o),
(319,386,cs),
(141,386,l),
(141,688,ls),
(141,711,o),
(116,724,o),
(96,724,cs),
(75,724,o),
(51,711,o),
(51,688,cs),
(51,470,o),
(50,252,o),
(50,34,cs),
(50,25,o),
(50,17,o),
(51,9,cs),
(54,-13,o),
(76,-24,o),
(96,-24,cs)
);
},
{
closed = 1;
nodes = (
(141,314,l),
(179,314,o),
(216,315,o),
(254,315,cs),
(269,315,o),
(325,315,o),
(337,311,cs),
(370,301,o),
(389,268,o),
(389,234,cs),
(389,128,ls),
(389,88,o),
(360,48,o),
(318,48,cs),
(141,48,l)
);
}
);
width = 530;
}
);
note = b.ss01;
},
{
color = 0;
glyphname = c.ss01;
lastChange = "2023-10-31 19:55:38 +0000";
layers = (
{
anchors = (
{
name = bottom;
pos = (259,0);
},
{
name = top;
pos = (259,480);
}
);
hints = (
{
horizontal = 1;
place = (314,72);
type = Stem;
},
{
horizontal = 1;
place = (-23,73);
type = Stem;
},
{
place = (376,90);
type = Stem;
},
{
place = (50,90);
type = Stem;
}
);
layerId = "2F065738-4B59-43EB-A5F2-FD5F277958EA";
shapes = (
{
closed = 1;
nodes = (
(400,-23,ls),
(421,-23,o),
(445,-10,o),
(445,13,cs),
(445,47,o),
(404,50,o),
(379,50,cs),
(341,50,o),
(302,48,o),
(264,48,cs),
(251,48,o),
(201,48,o),
(190,52,cs),
(159,62,o),
(140,93,o),
(140,125,cs),
(140,314,l),
(310,314,ls),
(342,314,o),
(370,286,o),
(375,255,c),
(377,248,o),
(376,240,o),
(378,233,cs),
(382,213,o),
(404,203,o),
(422,203,cs),
(442,203,o),
(467,216,o),
(467,239,cs),
(467,324,o),
(393,386,o),
(311,386,cs),
(95,386,ls),
(75,386,o),
(50,373,o),
(50,350,cs),
(50,129,ls),
(50,41,o),
(120,-23,o),
(206,-23,cs)
);
}
);
width = 517;
}
);
note = c.ss01;
},
{
color = 0;
glyphname = d.ss01;
lastChange = "2023-10-31 19:55:38 +0000";
layers = (
{
anchors = (
{
name = bottom;
pos = (265,0);
},
{
name = center;
pos = (265,240);
},
{
name = top;
pos = (265,742);
},
{
name = topright;
pos = (510,742);
}
);
hints = (
{
horizontal = 1;
place = (724,-20);
target = down;
type = TopGhost;
},
{
horizontal = 1;
place = (314,72);
type = Stem;
},
{
horizontal = 1;
place = (-24,72);
type = Stem;
},
{
place = (390,90);
type = Stem;
},
{
place = (51,90);
type = Stem;
}
);
layerId = "2F065738-4B59-43EB-A5F2-FD5F277958EA";
shapes = (
{
closed = 1;
nodes = (
(319,-24,ls),
(384,-24,o),
(440,11,o),
(467,70,cs),
(478,92,o),
(480,117,o),
(480,140,cs),
(480,323,o),
(479,506,o),
(479,688,cs),
(479,711,o),
(455,724,o),
(434,724,cs),
(417,724,o),
(400,716,o),
(392,700,cs),
(388,692,o),
(389,681,o),
(389,672,cs),
(389,572,o),
(389,471,o),
(390,370,c),
(368,380,o),
(344,386,o),
(319,386,cs),
(189,386,l),
(114,386,ls),
(89,386,o),
(51,384,o),
(51,350,cs),
(51,127,ls),
(51,40,o),
(127,-24,o),
(211,-24,cs)
);
},
{
closed = 1;
nodes = (
(170,48,o),
(141,88,o),
(141,128,cs),
(141,314,l),
(318,314,ls),
(352,314,o),
(381,285,o),
(387,252,cs),
(389,245,o),
(388,237,o),
(390,229,c),
(390,208,o),
(390,187,o),
(390,166,cs),
(390,149,o),
(390,117,o),
(385,102,cs),
(376,72,o),
(350,48,o),
(318,48,cs),
(212,48,ls)
);
}
);
width = 530;
}
);
note = d.ss01;
},
{
color = 0;
glyphname = e.ss01;
lastChange = "2023-10-31 19:55:38 +0000";
layers = (
{
anchors = (
{
name = bottom;
pos = (259,0);
},
{
name = ogonek;
pos = (466,10);
},
{
name = top;
pos = (259,480);
}
);
hints = (
{
horizontal = 1;
place = (315,72);
type = Stem;
},
{
horizontal = 1;
place = (151,72);
type = Stem;
},
{
horizontal = 1;
place = (-25,72);
type = Stem;
},
{
place = (377,90);
type = Stem;
},
{
place = (50,90);
type = Stem;
}
);
layerId = "2F065738-4B59-43EB-A5F2-FD5F277958EA";
shapes = (
{
closed = 1;
nodes = (
(416,-25,ls),
(437,-25,o),
(461,-12,o),
(461,11,cs),
(461,46,o),
(421,47,o),
(396,47,cs),
(353,47,o),
(311,46,o),
(269,46,cs),
(255,46,o),
(201,46,o),
(190,50,cs),
(159,60,o),
(140,91,o),
(140,123,cs),
(140,151,l),
(422,151,ls),
(443,151,o),
(467,164,o),
(467,187,cs),
(467,218,ls),
(467,265,o),
(462,299,o),
(429,335,cs),
(388,380,o),
(342,387,o),
(284,387,cs),
(221,387,o),
(158,386,o),
(95,386,cs),
(75,386,o),
(50,373,o),
(50,350,cs),
(50,122,ls),
(50,38,o),
(124,-25,o),
(206,-25,cs)
);
},
{
closed = 1;
nodes = (
(140,314,l),
(191,314,o),
(243,315,o),
(294,315,cs),
(348,315,o),
(377,285,o),
(377,231,cs),
(377,223,l),
(377,223,o),
(377,223,o),
(377,223,c),
(377,223,o),
(377,223,o),
(377,223,c),
(298,223,o),
(219,223,o),
(140,223,c)
);
}
);
width = 518;
}
);
note = e.ss01;
},
{
color = 0;
glyphname = f.ss01;
lastChange = "2023-10-31 19:55:38 +0000";
layers = (
{
anchors = (
{
name = bottom;
pos = (180,0);
},
{
name = top;
pos = (180,742);
}
);
hints = (
{
horizontal = 1;
place = (652,73);
type = Stem;
},
{
horizontal = 1;
place = (314,72);
type = Stem;
},
{
horizontal = 1;
place = (-24,21);
target = up;
type = BottomGhost;
},
{
place = (51,90);
type = Stem;
}
);
layerId = "2F065738-4B59-43EB-A5F2-FD5F277958EA";
shapes = (
{
closed = 1;
nodes = (
(154,-24,o),
(141,32,o),
(141,70,cs),
(141,314,l),
(265,314,ls),
(285,314,o),
(310,327,o),
(310,350,cs),
(310,373,o),
(285,386,o),
(265,386,cs),
(141,386,l),
(141,562,ls),
(141,602,o),
(156,642,o),
(199,651,cs),
(220,655,o),
(243,652,o),
(265,652,cs),
(285,652,o),
(310,665,o),
(310,688,cs),
(310,722,o),
(269,725,o),
(244,725,cs),
(233,725,o),
(222,724,o),
(211,724,cs),
(141,724,o),
(81,683,o),
(58,617,cs),
(52,599,o),
(51,580,o),
(51,562,cs),
(51,385,o),
(51,208,o),
(51,31,cs),
(51,22,o),
(50,9,o),
(53,1,cs),
(60,-16,o),
(79,-24,o),
(96,-24,cs)
);
}
);
width = 360;
}
);
note = f.ss01;
},
{
color = 0;
glyphname = g.ss01;
lastChange = "2023-10-31 19:55:38 +0000";
layers = (
{
anchors = (
{
name = bottom;
pos = (265,-258);
},
{
name = top;
pos = (265,480);
}
);
hints = (
{
place = (389,90);
type = Stem;
},
{
place = (314,72);
type = Stem;
},
{
place = (51,90);
type = Stem;
},
{
place = (-24,72);
type = Stem;
},
{
place = (-362,72);
type = Stem;
}
);
layerId = "2F065738-4B59-43EB-A5F2-FD5F277958EA";
shapes = (
{
closed = 1;
nodes = (
(399,-362,ls),
(426,-362,o),
(479,-366,o),
(479,-326,cs),
(479,-103,ls),
(479,-59,o),
(456,-16,o),
(422,12,c),
(456,39,o),
(479,80,o),
(479,127,cs),
(479,350,ls),
(479,373,o),
(454,386,o),
(434,386,cs),
(414,386,o),
(391,374,o),
(389,353,c),
(363,374,o),
(332,386,o),
(296,386,cs),
(96,386,ls),
(77,386,o),
(56,376,o),
(51,356,cs),
(50,349,o),
(51,342,o),
(51,335,cs),
(51,275,o),
(50,215,o),
(50,154,cs),
(50,96,o),
(58,52,o),
(106,13,cs),
(127,-4,o),
(152,-16,o),
(178,-21,cs),
(220,-28,o),
(265,-24,o),
(308,-24,cs),
(355,-24,o),
(389,-56,o),
(389,-104,cs),
(389,-290,l),
(212,-290,ls),
(195,-290,o),
(179,-283,o),
(167,-272,cs),
(139,-246,o),
(141,-217,o),
(141,-182,cs),
(141,-158,o),
(141,-134,o),
(141,-109,cs),
(141,-83,o),
(122,-67,o),
(96,-67,cs),
(75,-67,o),
(51,-80,o),
(51,-103,cs),
(51,-211,ls),
(51,-298,o),
(127,-362,o),
(211,-362,cs)
);
},
{
closed = 1;
nodes = (
(175,48,o),
(141,78,o),
(141,128,cs),
(141,314,l),
(317,314,ls),
(360,314,o),
(389,274,o),
(389,234,cs),
(389,128,ls),
(389,95,o),
(369,61,o),
(336,51,cs),
(329,49,o),
(320,49,o),
(312,48,c),
(283,49,o),
(253,48,o),
(223,48,cs)
);
}
);
width = 529;
}
);
note = g.ss01;
},
{
color = 0;
glyphname = h.ss01;
lastChange = "2023-10-31 19:55:38 +0000";
layers = (
{
anchors = (
{
name = bottom;
pos = (264,0);
},
{
name = center;
pos = (264,742);
},
{
name = top;
pos = (264,742);
}
);
hints = (
{
horizontal = 1;
place = (723,-20);
target = down;
type = TopGhost;
},
{
horizontal = 1;
place = (312,72);
type = Stem;
},
{
horizontal = 1;
place = (-20,21);
target = up;
type = BottomGhost;
},
{
horizontal = 1;
place = (-24,21);
target = up;
type = BottomGhost;
},
{
place = (387,90);
type = Stem;
},
{
place = (51,90);
type = Stem;
}
);
layerId = "2F065738-4B59-43EB-A5F2-FD5F277958EA";
shapes = (
{
closed = 1;
nodes = (
(117,-24,o),
(141,-11,o),
(141,12,cs),
(141,112,o),
(142,212,o),
(142,312,c),
(317,312,ls),
(331,312,o),
(344,307,o),
(356,299,cs),
(386,276,o),
(387,246,o),
(387,211,cs),
(387,161,ls),
(387,117,o),
(387,73,o),
(387,28,cs),
(387,-2,o),
(401,-20,o),
(432,-20,cs),
(453,-20,o),
(477,-7,o),
(477,16,cs),
(477,234,ls),
(477,320,o),
(402,384,o),
(318,384,cs),
(142,384,l),
(142,393,o),
(142,402,o),
(142,412,cs),
(142,433,o),
(142,691,o),
(139,697,cs),
(130,715,o),
(117,723,o),
(96,723,cs),
(76,723,o),
(51,710,o),
(51,687,cs),
(51,554,o),
(50,421,o),
(50,288,cs),
(50,266,o),
(50,8,o),
(53,3,cs),
(62,-16,o),
(75,-24,o),
(96,-24,cs)
);
}
);
width = 528;
}
);
note = h.ss01;
},
{
color = 0;
glyphname = i.ss01;
lastChange = "2023-10-31 19:55:38 +0000";
layers = (
{
anchors = (
{
name = bottom;
pos = (128,0);
}
);
hints = (
{
horizontal = 1;
place = (448,138);
type = Stem;
},
{
horizontal = 1;
place = (-24,71);
type = Stem;
},
{
place = (51,90);
type = Stem;
}
);
layerId = "2F065738-4B59-43EB-A5F2-FD5F277958EA";
shapes = (
{
closed = 1;
nodes = (
(230,-24,o),
(255,-11,o),
(255,12,cs),
(255,31,o),
(237,44,o),
(220,47,cs),
(210,48,o),
(201,48,o),
(192,50,cs),
(163,59,o),
(144,88,o),
(141,117,cs),
(140,129,o),
(140,142,o),
(140,155,cs),
(140,200,o),
(141,246,o),
(141,291,cs),
(141,302,o),
(142,355,o),
(137,363,cs),
(129,378,o),
(112,385,o),
(96,385,cs),
(75,385,o),
(51,372,o),
(51,349,cs),
(51,126,ls),
(51,39,o),
(126,-24,o),
(210,-24,cs)
);
},
{
closed = 1;
nodes = (
(116,448,o),
(141,461,o),
(141,484,cs),
(141,550,ls),
(141,573,o),
(116,586,o),
(96,586,cs),
(75,586,o),
(51,573,o),
(51,550,cs),
(51,484,ls),
(51,461,o),
(75,448,o),
(96,448,cs)
);
}
);
width = 255;
}
);
note = i.ss01;
},
{
color = 0;
glyphname = j.ss01;
lastChange = "2023-10-27 10:03:13 +0000";
layers = (
{
hints = (
{
horizontal = 1;
place = (448,138);
type = Stem;
},
{
horizontal = 1;
place = (-210,72);
type = Stem;
},
{
place = (131,90);
type = Stem;
}
);
layerId = "2F065738-4B59-43EB-A5F2-FD5F277958EA";
shapes = (
{
closed = 1;
nodes = (
(72,-210,o),
(80,-210,o),
(87,-210,cs),
(157,-210,o),
(221,-157,o),
(221,-85,cs),
(222,335,ls),
(222,343,o),
(222,353,o),
(219,361,cs),
(213,378,o),
(193,386,o),
(176,386,cs),
(159,386,o),
(140,378,o),
(133,361,cs),
(129,350,o),
(131,318,o),
(131,305,cs),
(131,208,l),
(131,-84,ls),
(131,-95,o),
(128,-106,o),
(123,-116,c),
(104,-145,o),
(75,-138,o),
(45,-138,cs),
(25,-138,o),
(0,-151,o),
(0,-174,cs),
(0,-207,o),
(39,-210,o),
(64,-210,cs)
);
},
{
closed = 1;
nodes = (
(197,448,o),
(221,461,o),
(221,484,cs),
(221,550,ls),
(221,573,o),
(197,586,o),
(176,586,cs),
(156,586,o),
(131,573,o),
(131,550,cs),
(131,484,ls),
(131,461,o),
(156,448,o),
(176,448,cs)
);
}
);
width = 272;
}
);
note = j.ss01;
},
{
color = 0;
glyphname = k.ss01;
lastChange = "2023-10-31 19:55:38 +0000";
layers = (
{
anchors = (
{
name = bottom;
pos = (264,0);
},
{
name = top;
pos = (264,742);
}
);
hints = (
{
horizontal = 1;
place = (723,-20);
target = down;
type = TopGhost;
},
{
horizontal = 1;
place = (313,73);
type = Stem;
},
{
horizontal = 1;
place = (152,71);
type = Stem;
},
{
horizontal = 1;
place = (-20,21);
target = up;
type = BottomGhost;
},
{
horizontal = 1;
place = (-24,21);
target = up;
type = BottomGhost;
},
{
place = (387,90);
type = Stem;
},
{
place = (50,92);
type = Stem;
}
);
layerId = "2F065738-4B59-43EB-A5F2-FD5F277958EA";
shapes = (
{
closed = 1;
nodes = (
(117,-24,o),
(141,-11,o),
(141,12,cs),
(141,58,o),
(141,105,o),
(141,151,c),
(178,151,o),
(215,152,o),
(252,152,cs),
(267,152,o),
(324,152,o),
(335,148,cs),
(374,136,o),
(387,100,o),
(387,63,cs),
(387,53,o),
(386,43,o),
(386,33,cs),
(386,2,o),
(398,-20,o),
(432,-20,cs),
(453,-20,o),
(477,-7,o),
(477,16,cs),
(477,73,ls),
(477,152,o),
(413,214,o),
(335,222,cs),
(317,224,o),
(298,223,o),
(279,223,cs),
(192,223,l),
(240,269,o),
(276,309,o),
(348,313,cs),
(368,314,o),
(389,313,o),
(409,313,cs),
(429,313,o),
(454,326,o),
(454,349,cs),
(454,383,o),
(413,386,o),
(388,386,cs),
(279,386,o),
(184,350,o),
(142,241,c),
(142,282,o),
(142,370,o),
(142,411,cs),
(142,432,o),
(142,691,o),
(139,696,cs),
(130,714,o),
(117,723,o),
(96,723,cs),
(76,723,o),
(51,710,o),
(51,687,cs),
(51,653,o),
(51,620,o),
(51,587,cs),
(50,387,ls),
(50,354,o),
(50,321,o),
(50,287,cs),
(50,266,o),
(50,8,o),
(53,3,cs),
(62,-16,o),
(75,-24,o),
(96,-24,cs)
);
}
);
width = 528;
}
);
note = k.ss01;
},
{
color = 0;
glyphname = m.ss01;
lastChange = "2023-10-31 19:55:38 +0000";
layers = (
{
anchors = (
{
name = bottom;
pos = (389,0);
},
{
name = top;
pos = (389,480);
}
);
hints = (
{
horizontal = 1;
place = (313,72);
type = Stem;
},
{
horizontal = 1;
place = (-23,21);
target = up;
type = BottomGhost;
},
{
horizontal = 1;
place = (-24,21);
target = up;
type = BottomGhost;
},
{
place = (637,90);
type = Stem;
},
{
place = (344,91);
type = Stem;
},
{
place = (50,92);
type = Stem;
}
);
layerId = "2F065738-4B59-43EB-A5F2-FD5F277958EA";
shapes = (
{
closed = 1;
nodes = (
(113,-24,o),
(131,-16,o),
(139,0,cs),
(143,9,o),
(142,33,o),
(142,44,cs),
(142,133,o),
(141,223,o),
(141,313,c),
(182,313,o),
(223,314,o),
(265,314,cs),
(307,314,o),
(338,289,o),
(343,246,cs),
(343,244,o),
(344,242,o),
(344,239,cs),
(344,170,o),
(343,102,o),
(343,34,cs),
(343,26,o),
(343,17,o),
(344,9,cs),
(347,-12,o),
(369,-24,o),
(389,-24,cs),
(409,-24,o),
(431,-12,o),
(434,9,cs),
(435,17,o),
(435,25,o),
(435,33,cs),
(435,102,o),
(434,170,o),
(434,238,cs),
(434,277,o),
(461,313,o),
(502,313,cs),
(515,313,o),
(528,314,o),
(541,314,cs),
(558,314,o),
(582,314,o),
(597,306,cs),
(614,297,o),
(627,280,o),
(633,262,cs),
(638,246,o),
(638,179,o),
(638,159,cs),
(638,126,o),
(637,94,o),
(637,61,cs),
(637,24,o),
(628,-23,o),
(682,-23,cs),
(702,-23,o),
(727,-10,o),
(727,13,cs),
(727,79,o),
(727,145,o),
(727,211,cs),
(727,229,o),
(727,247,o),
(724,265,cs),
(713,325,o),
(660,369,o),
(603,381,cs),
(585,385,o),
(567,386,o),
(549,386,cs),
(545,386,o),
(541,386,o),
(537,386,cs),
(513,385,ls),
(509,385,o),
(505,385,o),
(501,385,cs),
(458,385,o),
(417,369,o),
(388,341,c),
(340,388,o),
(284,385,o),
(216,385,cs),
(96,385,ls),
(75,385,o),
(51,372,o),
(51,349,cs),
(51,250,o),
(50,150,o),
(50,50,cs),
(50,38,o),
(50,10,o),
(54,0,cs),
(61,-16,o),
(80,-24,o),
(96,-24,cs)
);
}
);
width = 778;
}
);
note = m.ss01;
},
{
color = 0;
glyphname = n.ss01;
lastChange = "2023-10-31 19:55:38 +0000";
layers = (
{
anchors = (
{
name = bottom;
pos = (262,0);
},
{
name = top;
pos = (262,480);
}
);
hints = (
{
horizontal = 1;
place = (315,71);
type = Stem;
},
{
horizontal = 1;
place = (-24,21);
target = up;
type = BottomGhost;
},
{
horizontal = 1;
place = (-25,21);
target = up;
type = BottomGhost;
},
{
place = (382,90);
type = Stem;
},
{
place = (51,91);
type = Stem;
}
);
layerId = "2F065738-4B59-43EB-A5F2-FD5F277958EA";
shapes = (
{
closed = 1;
nodes = (
(113,-25,o),
(131,-17,o),
(139,-1,cs),
(143,9,o),
(142,32,o),
(142,43,cs),
(142,133,o),
(141,224,o),
(141,314,c),
(193,314,o),
(245,315,o),
(298,315,cs),
(311,315,o),
(324,314,o),
(336,309,cs),
(362,299,o),
(378,273,o),
(381,246,cs),
(384,224,o),
(382,202,o),
(382,179,cs),
(382,128,o),
(381,76,o),
(381,25,cs),
(381,-6,o),
(395,-24,o),
(427,-24,cs),
(447,-24,o),
(472,-11,o),
(472,12,cs),
(472,78,o),
(473,145,o),
(473,211,cs),
(473,229,o),
(473,249,o),
(469,267,cs),
(452,339,o),
(387,386,o),
(313,386,cs),
(96,386,ls),
(75,386,o),
(51,373,o),
(51,350,cs),
(51,250,o),
(50,150,o),
(50,51,cs),
(50,38,o),
(49,9,o),
(54,-1,cs),
(61,-17,o),
(80,-25,o),
(96,-25,cs)
);
}
);
width = 523;
}
);
note = n.ss01;
},
{
color = 0;
glyphname = p.ss01;
lastChange = "2023-10-31 19:55:38 +0000";
layers = (
{
anchors = (
{
name = bottom;
pos = (265,0);
},
{
name = top;
pos = (265,480);
}
);
hints = (
{
horizontal = 1;
place = (314,72);
type = Stem;
},
{
horizontal = 1;
place = (-24,72);
type = Stem;
},
{
horizontal = 1;
place = (-9,21);
target = up;
type = BottomGhost;
},
{
horizontal = 1;
place = (-362,21);
target = up;
type = BottomGhost;
},
{
place = (389,90);
type = Stem;
},
{
place = (50,92);
type = Stem;
}
);
layerId = "2F065738-4B59-43EB-A5F2-FD5F277958EA";
shapes = (
{
closed = 1;
nodes = (
(211,490,ls),
(115,490,o),
(50,419,o),
(50,326,cs),
(51,-234,ls),
(51,-257,o),
(75,-270,o),
(96,-270,cs),
(113,-270,o),
(130,-262,o),
(138,-246,cs),
(144,-233,o),
(141,-33,o),
(140,6,c),
(162,-5,o),
(187,-10,o),
(211,-10,cs),
(319,-10,ls),
(403,-10,o),
(479,54,o),
(479,141,cs),
(479,339,ls),
(479,426,o),
(403,490,o),
(319,490,cs)
);
},
{
closed = 1;
nodes = (
(360,418,o),
(389,378,o),
(389,338,cs),
(389,142,ls),
(389,102,o),
(360,62,o),
(318,62,cs),
(212,62,ls),
(115,62,o),
(140,247,o),
(140,300,cs),
(140,350,o),
(145,418,o),
(212,418,cs),
(318,418,ls)
);
}
);
width = 530;
}
);
note = p.ss01;
},
{
color = 5;
glyphname = q.ss01;
lastChange = "2023-10-31 19:55:38 +0000";
layers = (
{
anchors = (
{
name = bottom;
pos = (265,0);
},
{
name = top;
pos = (265,480);
}
);
hints = (
{
horizontal = 1;
place = (315,72);
type = Stem;
},
{
horizontal = 1;
place = (-24,72);
type = Stem;
},
{
horizontal = 1;
place = (-362,21);
target = up;
type = BottomGhost;
},
{
place = (389,90);
type = Stem;
},
{
place = (51,90);
type = Stem;
}
);
layerId = "2F065738-4B59-43EB-A5F2-FD5F277958EA";
shapes = (
{
closed = 1;
nodes = (
(127,490,o),
(51,426,o),
(51,339,cs),
(51,141,ls),
(51,54,o),
(127,-10,o),
(211,-10,cs),
(319,-10,ls),
(343,-10,o),
(368,-5,o),
(390,6,c),
(389,46,o),
(386,-232,o),
(392,-245,cs),
(400,-261,o),
(417,-269,o),
(434,-269,cs),
(455,-269,o),
(479,-256,o),
(479,-233,cs),
(480,326,ls),
(480,419,o),
(415,490,o),
(319,490,cs),
(211,490,ls)
);
},
{
closed = 1;
nodes = (
(318,418,ls),
(385,418,o),
(390,350,o),
(390,300,cs),
(390,247,o),
(415,62,o),
(318,62,cs),
(212,62,ls),
(170,62,o),
(141,102,o),
(141,142,cs),
(141,338,ls),
(141,378,o),
(170,418,o),
(212,418,cs)
);
}
);
width = 530;
}
);
note = q.ss01;
},
{
color = 0;
glyphname = r.ss01;
lastChange = "2023-10-31 19:55:38 +0000";
layers = (
{
anchors = (
{
name = bottom;
pos = (205,0);
},
{
name = top;
pos = (205,480);
}
);
hints = (
{
horizontal = 1;
place = (314,72);
type = Stem;
},
{
horizontal = 1;
place = (-24,21);
target = up;
type = BottomGhost;
},
{
place = (269,91);
type = Stem;
},
{
place = (51,91);
type = Stem;
}
);
layerId = "2F065738-4B59-43EB-A5F2-FD5F277958EA";
shapes = (
{
closed = 1;
nodes = (
(113,-24,o),
(131,-16,o),
(138,0,cs),
(143,9,o),
(142,33,o),
(142,44,cs),
(142,134,o),
(141,224,o),
(141,314,c),
(203,314,ls),
(236,314,o),
(263,289,o),
(268,257,c),
(270,250,o),
(269,242,o),
(270,235,cs),
(275,215,o),
(296,205,o),
(315,205,cs),
(335,205,o),
(360,218,o),
(360,241,cs),
(360,326,o),
(286,386,o),
(205,386,cs),
(174,386,o),
(144,386,o),
(114,386,cs),
(89,386,o),
(51,384,o),
(51,350,cs),
(51,250,o),
(50,150,o),
(50,50,cs),
(50,39,o),
(49,9,o),
(54,0,cs),
(61,-16,o),
(79,-24,o),
(96,-24,cs)
);
}
);
width = 410;
}
);
note = r.ss01;
},
{
color = 0;
glyphname = s.ss01;
lastChange = "2023-10-31 19:55:38 +0000";
layers = (
{
anchors = (
{
name = bottom;
pos = (260,0);
},
{
name = top;
pos = (260,480);
}
);
hints = (
{
horizontal = 1;
place = (314,72);
type = Stem;
},
{
horizontal = 1;
place = (151,73);
type = Stem;
},
{
horizontal = 1;
place = (-23,71);
type = Stem;
},
{
place = (379,90);
type = Stem;
},
{
place = (50,90);
type = Stem;
}
);
layerId = "2F065738-4B59-43EB-A5F2-FD5F277958EA";
shapes = (
{
closed = 1;
nodes = (
(312,-23,ls),
(380,-23,o),
(469,16,o),
(469,95,cs),
(469,170,o),
(412,211,o),
(342,221,cs),
(324,224,o),
(305,224,o),
(287,224,cs),
(260,224,o),
(234,223,o),
(208,223,cs),
(167,223,o),
(140,238,o),
(140,282,cs),
(140,292,o),
(141,303,o),
(141,314,c),
(311,314,ls),
(337,314,o),
(362,296,o),
(372,272,cs),
(374,266,o),
(375,260,o),
(378,254,cs),
(385,238,o),
(404,230,o),
(420,230,cs),
(441,230,o),
(465,243,o),
(465,266,cs),
(465,277,o),
(458,292,o),
(454,302,c),
(427,355,o),
(371,386,o),
(312,386,cs),
(187,386,l),
(130,386,ls),
(102,386,o),
(51,390,o),
(51,350,cs),
(51,332,o),
(50,314,o),
(50,295,cs),
(50,279,o),
(50,261,o),
(54,245,cs),
(58,226,o),
(69,209,o),
(83,196,cs),
(127,153,o),
(180,151,o),
(237,151,cs),
(311,151,ls),
(349,151,o),
(379,137,o),
(379,95,cs),
(379,51,o),
(318,48,o),
(286,48,cs),
(230,48,o),
(174,50,o),
(118,50,cs),
(92,50,o),
(53,47,o),
(53,13,cs),
(53,-10,o),
(78,-23,o),
(98,-23,cs)
);
}
);
width = 519;
}
);
note = s.ss01;
},
{
color = 0;
glyphname = t.ss01;
lastChange = "2023-10-31 19:55:38 +0000";
layers = (
{
anchors = (
{
name = bottom;
pos = (180,0);
},
{
name = center;
pos = (180,240);
},
{
name = top;
pos = (180,480);
},
{
name = topright;
pos = (340,742);
}
);
hints = (
{
horizontal = 1;
place = (724,-20);
target = down;
type = TopGhost;
},
{
horizontal = 1;
place = (314,72);
type = Stem;
},
{
horizontal = 1;
place = (-25,73);
type = Stem;
},
{
place = (51,90);
type = Stem;
}
);
layerId = "2F065738-4B59-43EB-A5F2-FD5F277958EA";
shapes = (
{
closed = 1;
nodes = (
(269,-25,o),
(310,-22,o),
(310,12,cs),
(310,35,o),
(285,48,o),
(265,48,cs),
(223,48,o),
(180,40,o),
(154,82,cs),
(146,96,o),
(141,112,o),
(141,128,cs),
(141,314,l),
(240,314,ls),
(266,314,o),
(310,313,o),
(310,350,cs),
(310,373,o),
(285,386,o),
(265,386,cs),
(141,386,l),
(141,505,l),
(141,630,ls),
(141,669,o),
(154,724,o),
(96,724,cs),
(79,724,o),
(60,716,o),
(53,699,cs),
(50,691,o),
(51,678,o),
(51,669,cs),
(51,488,o),
(51,308,o),
(51,127,cs),
(51,40,o),
(127,-24,o),
(211,-24,cs),
(222,-24,o),
(233,-25,o),
(244,-25,cs)
);
}
);
width = 360;
}
);
note = t.ss01;
},
{
color = 0;
glyphname = u.ss01;
lastChange = "2023-10-31 19:55:38 +0000";
layers = (
{
anchors = (
{
name = bottom;
pos = (261,0);
},
{
name = ogonek;
pos = (470,10);
},
{
name = top;
pos = (261,480);
},
{
name = topright;
pos = (502,480);
}
);
hints = (
{
horizontal = 1;
place = (-25,72);
type = Stem;
},
{
place = (381,90);
type = Stem;
},
{
place = (50,90);
type = Stem;
}
);
layerId = "2F065738-4B59-43EB-A5F2-FD5F277958EA";
shapes = (
{
closed = 1;
nodes = (
(297,-25,o),
(362,-24,o),
(426,-24,cs),
(446,-24,o),
(471,-11,o),
(471,12,cs),
(471,92,ls),
(471,168,o),
(472,245,o),
(472,322,cs),
(472,332,o),
(472,342,o),
(471,352,cs),
(469,374,o),
(446,386,o),
(426,386,cs),
(409,386,o),
(391,378,o),
(384,362,cs),
(377,348,o),
(381,272,o),
(381,251,cs),
(381,48,l),
(328,48,o),
(276,47,o),
(223,47,cs),
(160,47,o),
(140,85,o),
(140,143,cs),
(140,212,o),
(141,281,o),
(141,349,cs),
(141,373,o),
(117,385,o),
(96,385,cs),
(76,385,o),
(54,374,o),
(51,353,cs),
(50,344,o),
(50,335,o),
(50,326,cs),
(50,258,o),
(51,191,o),
(51,124,cs),
(51,51,o),
(107,-7,o),
(176,-21,cs),
(195,-24,o),
(214,-25,o),
(233,-25,cs)
);
}
);
width = 522;
}
);
note = u.ss01;
},
{
color = 0;
glyphname = v.ss01;
lastChange = "2023-10-31 19:55:38 +0000";
layers = (
{
anchors = (
{
name = bottom;
pos = (259,0);
},
{
name = top;
pos = (259,480);
}
);
hints = (
{
horizontal = 1;
place = (-26,412);
type = Stem;
},
{
place = (50,417);
type = Stem;
}
);
layerId = "2F065738-4B59-43EB-A5F2-FD5F277958EA";
shapes = (
{
closed = 1;
nodes = (
(274,-26,o),
(286,-21,o),
(296,-10,cs),
(307,2,o),
(337,73,o),
(347,93,cs),
(386,174,o),
(428,255,o),
(464,338,cs),
(466,342,o),
(467,346,o),
(467,350,cs),
(467,373,o),
(442,386,o),
(422,386,cs),
(407,386,o),
(395,381,o),
(385,371,cs),
(374,360,o),
(275,145,o),
(258,110,c),
(242,145,o),
(143,360,o),
(132,371,cs),
(122,381,o),
(110,386,o),
(95,386,cs),
(75,386,o),
(50,373,o),
(50,350,cs),
(50,346,o),
(51,342,o),
(53,338,cs),
(89,254,o),
(132,173,o),
(171,91,cs),
(180,72,o),
(210,2,o),
(220,-10,cs),
(230,-21,o),
(243,-26,o),
(258,-26,cs)
);
}
);
width = 517;
}
);
note = v.ss01;
},
{
color = 0;
glyphname = w.ss01;
lastChange = "2023-10-31 19:55:38 +0000";
layers = (
{
anchors = (
{
name = bottom;
pos = (389,0);
},
{
name = top;
pos = (389,480);
}
);
hints = (
{
horizontal = 1;
place = (-25,73);
type = Stem;
},
{
place = (638,89);
type = Stem;
},
{
place = (343,91);
type = Stem;
},
{
place = (50,91);
type = Stem;
}
);
layerId = "2F065738-4B59-43EB-A5F2-FD5F277958EA";
shapes = (
{
closed = 1;
nodes = (
(309,-25,o),
(355,-10,o),
(388,20,c),
(417,-8,o),
(458,-24,o),
(501,-24,cs),
(517,-24,o),
(533,-25,o),
(549,-25,cs),
(567,-25,o),
(585,-24,o),
(603,-21,cs),
(660,-8,o),
(713,36,o),
(724,96,cs),
(727,113,o),
(727,131,o),
(727,148,cs),
(727,215,o),
(727,282,o),
(727,349,cs),
(727,372,o),
(702,385,o),
(682,385,cs),
(673,385,o),
(663,383,o),
(656,378,cs),
(638,368,o),
(637,357,o),
(637,338,cs),
(637,292,o),
(638,246,o),
(638,199,cs),
(638,180,o),
(638,116,o),
(633,99,cs),
(627,81,o),
(614,64,o),
(597,55,cs),
(582,47,o),
(558,47,o),
(541,47,cs),
(528,47,o),
(515,48,o),
(502,48,cs),
(460,48,o),
(436,83,o),
(434,121,cs),
(434,130,o),
(434,139,o),
(434,148,cs),
(434,194,o),
(434,239,o),
(434,285,cs),
(434,306,o),
(434,328,o),
(434,350,cs),
(434,373,o),
(410,386,o),
(389,386,cs),
(375,386,o),
(359,380,o),
(350,368,c),
(341,349,o),
(344,326,o),
(344,312,c),
(343,331,o),
(343,329,o),
(343,326,cs),
(343,260,o),
(344,193,o),
(344,127,cs),
(341,72,o),
(315,48,o),
(255,48,cs),
(217,48,o),
(179,48,o),
(141,48,c),
(141,148,o),
(141,249,o),
(141,350,cs),
(141,373,o),
(117,386,o),
(96,386,cs),
(80,386,o),
(62,378,o),
(54,362,cs),
(50,352,o),
(50,323,o),
(50,311,cs),
(50,211,o),
(51,111,o),
(51,12,cs),
(51,-11,o),
(75,-24,o),
(96,-24,cs),
(152,-24,o),
(208,-25,o),
(264,-25,cs)
);
}
);
width = 778;
}
);
note = w.ss01;
},
{
color = 0;
glyphname = x.ss01;
lastChange = "2023-10-31 19:55:38 +0000";
layers = (
{
anchors = (
{
name = bottom;
pos = (259,0);
},
{
name = top;
pos = (259,480);
}
);
hints = (
{
horizontal = 1;
place = (314,72);
type = Stem;
},
{
horizontal = 1;
place = (-25,73);
type = Stem;
},
{
place = (50,417);
type = Stem;
}
);
layerId = "2F065738-4B59-43EB-A5F2-FD5F277958EA";
shapes = (
{
closed = 1;
nodes = (
(138,-25,o),
(164,-27,o),
(181,-11,cs),
(195,1,o),
(228,58,o),
(241,77,cs),
(258,104,l),
(298,43,o),
(340,-24,o),
(422,-24,cs),
(442,-24,o),
(467,-11,o),
(467,12,cs),
(467,24,o),
(459,34,o),
(449,41,cs),
(425,56,o),
(417,38,o),
(386,70,cs),
(370,85,o),
(360,105,o),
(348,123,cs),
(309,181,l),
(397,314,l),
(401,314,ls),
(427,314,o),
(467,315,o),
(467,350,cs),
(467,373,o),
(442,386,o),
(422,386,cs),
(369,386,ls),
(357,386,o),
(344,382,o),
(335,373,cs),
(321,361,o),
(288,304,o),
(275,285,cs),
(259,259,l),
(219,320,o),
(177,386,o),
(95,386,cs),
(75,386,o),
(50,373,o),
(50,350,cs),
(50,338,o),
(58,328,o),
(67,322,cs),
(91,306,o),
(100,324,o),
(132,292,cs),
(147,277,o),
(158,257,o),
(170,239,cs),
(208,181,l),
(120,48,l),
(95,48,ls),
(75,48,o),
(50,35,o),
(50,12,cs),
(50,-22,o),
(90,-25,o),
(116,-25,cs)
);
}
);
width = 517;
}
);
note = x.ss01;
},
{
color = 0;
glyphname = y.ss01;
lastChange = "2023-10-31 19:55:38 +0000";
layers = (
{
anchors = (
{
name = bottom;
pos = (265,0);
},
{
name = top;
pos = (265,480);
}
);
hints = (
{
horizontal = 1;
place = (-24,72);
type = Stem;
},
{
horizontal = 1;
place = (-362,72);
type = Stem;
},
{
place = (389,90);
type = Stem;
},
{
place = (51,90);
type = Stem;
}
);
layerId = "2F065738-4B59-43EB-A5F2-FD5F277958EA";
shapes = (
{
closed = 1;
nodes = (
(281,-362,o),
(350,-362,o),
(420,-362,cs),
(443,-362,o),
(472,-358,o),
(477,-331,cs),
(480,-316,o),
(478,-275,o),
(478,-260,cs),
(478,-103,ls),
(478,-56,o),
(456,-15,o),
(422,12,c),
(456,39,o),
(479,80,o),
(479,127,cs),
(479,350,ls),
(479,373,o),
(454,386,o),
(434,386,cs),
(417,386,o),
(399,378,o),
(392,362,cs),
(386,351,o),
(389,327,o),
(389,314,cs),
(389,152,ls),
(389,116,o),
(388,85,o),
(357,62,cs),
(346,53,o),
(332,48,o),
(318,48,cs),
(305,48,ls),
(293,49,o),
(280,49,o),
(266,48,cs),
(212,48,ls),
(198,48,o),
(184,53,o),
(173,62,cs),
(142,85,o),
(141,115,o),
(141,151,cs),
(141,201,ls),
(141,245,o),
(141,290,o),
(141,335,cs),
(141,365,o),
(128,383,o),
(96,383,cs),
(75,383,o),
(51,370,o),
(51,347,cs),
(51,127,ls),
(51,41,o),
(127,-24,o),
(211,-24,cs),
(259,-24,ls),
(266,-24,o),
(273,-24,o),
(279,-24,cs),
(317,-24,ls),
(359,-24,o),
(388,-64,o),
(388,-104,cs),
(388,-166,o),
(388,-228,o),
(388,-290,c),
(212,-290,ls),
(195,-290,o),
(179,-283,o),
(167,-272,cs),
(139,-246,o),
(141,-216,o),
(141,-182,cs),
(141,-158,o),
(141,-133,o),
(141,-109,cs),
(141,-82,o),
(122,-67,o),
(96,-67,cs),
(75,-67,o),
(51,-80,o),
(51,-103,cs),
(51,-211,ls),
(51,-298,o),
(127,-362,o),
(211,-362,cs)
);
}
);
width = 529;
}
);
note = y.ss01;
},
{
color = 0;
glyphname = z.ss01;
lastChange = "2023-10-31 19:55:38 +0000";
layers = (
{
anchors = (
{
name = bottom;
pos = (265,0);
},
{
name = center;
pos = (265,240);
},
{
name = top;
pos = (265,480);
}
);
hints = (
{
horizontal = 1;
place = (314,72);
type = Stem;
},
{
horizontal = 1;
place = (-24,72);
type = Stem;
},
{
place = (390,89);
type = Stem;
},
{
place = (50,89);
type = Stem;
}
);
layerId = "2F065738-4B59-43EB-A5F2-FD5F277958EA";
shapes = (
{
closed = 1;
nodes = (
(136,-25,o),
(153,-24,o),
(169,-24,cs),
(323,-24,ls),
(405,-24,o),
(479,39,o),
(479,123,cs),
(479,146,o),
(455,159,o),
(434,159,cs),
(416,159,o),
(394,149,o),
(390,130,cs),
(388,122,o),
(389,114,o),
(387,107,c),
(382,76,o),
(354,48,o),
(322,48,cs),
(187,48,l),
(371,238,l),
(431,300,ls),
(441,310,o),
(452,319,o),
(460,330,cs),
(464,336,o),
(467,342,o),
(467,350,cs),
(467,389,o),
(416,386,o),
(389,386,cs),
(332,386,l),
(206,386,ls),
(124,386,o),
(50,324,o),
(50,239,cs),
(50,216,o),
(75,203,o),
(95,203,cs),
(114,203,o),
(135,213,o),
(139,233,cs),
(141,240,o),
(140,248,o),
(142,255,cs),
(148,287,o),
(175,314,o),
(208,314,cs),
(330,314,l),
(146,124,l),
(86,62,ls),
(76,52,o),
(66,42,o),
(57,31,cs),
(53,26,o),
(50,19,o),
(50,12,cs),
(50,-23,o),
(94,-25,o),
(119,-25,cs)
);
}
);
width = 530;
}
);
note = z.ss01;
},
{
color = 0;
glyphname = a.ss02;
lastChange = "2023-10-31 19:55:38 +0000";
layers = (
{
anchors = (
{
name = bottom;
pos = (262,0);
},
{
name = ogonek;
pos = (472,10);
},
{
name = top;
pos = (262,480);
}
);
hints = (
{
horizontal = 1;
place = (313,72);
type = Stem;
},
{
horizontal = 1;
place = (-23,72);
type = Stem;
},
{
place = (383,90);
type = Stem;
},
{
place = (51,90);
type = Stem;
}
);
layerId = "2F065738-4B59-43EB-A5F2-FD5F277958EA";
shapes = (
{
closed = 1;
nodes = (
(428,-23,ls),
(449,-23,o),
(473,-10,o),
(473,13,cs),
(473,334,ls),
(473,338,o),
(473,349,o),
(472,354,cs),
(465,385,o),
(433,385,o),
(407,385,cs),
(341,385,o),
(275,385,o),
(208,385,cs),
(125,385,o),
(51,322,o),
(51,236,cs),
(51,125,ls),
(51,40,o),
(125,-23,o),
(208,-23,cs)
);
},
{
closed = 1;
nodes = (
(169,49,o),
(141,88,o),
(141,126,cs),
(141,236,ls),
(141,274,o),
(169,313,o),
(210,313,cs),
(267,313,o),
(325,313,o),
(382,313,c),
(383,225,o),
(383,137,o),
(383,49,c),
(210,49,ls)
);
}
);
width = 524;
}
);
note = a.ss02;
},
{
color = 0;
glyphname = b.ss02;
lastChange = "2023-10-31 19:55:38 +0000";
layers = (
{
anchors = (
{
name = bottom;
pos = (265,0);
},
{
name = center;
pos = (265,240);
},
{
name = top;
pos = (265,480);
}
);
hints = (
{
horizontal = 1;
place = (724,-20);
target = down;
type = TopGhost;
},
{
horizontal = 1;
place = (314,72);
type = Stem;
},
{
horizontal = 1;
place = (-24,72);
type = Stem;
},
{
place = (389,90);
type = Stem;
},
{
place = (51,90);
type = Stem;
}
);
layerId = "2F065738-4B59-43EB-A5F2-FD5F277958EA";
shapes = (
{
closed = 1;
nodes = (
(434,-24,ls),
(455,-24,o),
(479,-11,o),
(479,12,cs),
(479,235,ls),
(479,322,o),
(403,386,o),
(319,386,cs),
(211,386,ls),
(186,386,o),
(162,380,o),
(141,371,c),
(141,688,ls),
(141,711,o),
(116,724,o),
(96,724,cs),
(75,724,o),
(51,711,o),
(51,688,cs),
(51,127,ls),
(51,126,o),
(51,124,o),
(51,123,cs),
(53,38,o),
(128,-24,o),
(211,-24,cs)
);
},
{
closed = 1;
nodes = (
(170,48,o),
(141,88,o),
(141,128,cs),
(141,234,ls),
(141,274,o),
(170,314,o),
(212,314,cs),
(318,314,ls),
(360,314,o),
(389,274,o),
(389,234,cs),
(389,48,l),
(212,48,ls)
);
}
);
width = 530;
}
);
note = b.ss02;
},
{
color = 0;
glyphname = c.ss02;
lastChange = "2023-10-31 19:55:38 +0000";
layers = (
{
anchors = (
{
name = bottom;
pos = (248,0);
},
{
name = top;
pos = (248,480);
}
);
hints = (
{
horizontal = 1;
place = (313,73);
type = Stem;
},
{
horizontal = 1;
place = (-25,73);
type = Stem;
},
{
place = (51,90);
type = Stem;
}
);
layerId = "2F065738-4B59-43EB-A5F2-FD5F277958EA";
shapes = (
{
closed = 1;
nodes = (
(400,-25,ls),
(421,-25,o),
(445,-12,o),
(445,11,cs),
(445,45,o),
(404,48,o),
(379,48,cs),
(341,48,o),
(304,46,o),
(267,46,cs),
(253,46,o),
(205,46,o),
(193,50,cs),
(161,60,o),
(141,93,o),
(141,127,cs),
(141,234,ls),
(141,268,o),
(161,301,o),
(193,311,cs),
(205,315,o),
(253,315,o),
(267,315,cs),
(304,315,o),
(341,313,o),
(379,313,cs),
(404,313,o),
(445,316,o),
(445,350,cs),
(445,373,o),
(421,386,o),
(400,386,cs),
(211,386,ls),
(127,386,o),
(51,322,o),
(51,235,cs),
(51,126,ls),
(51,39,o),
(127,-25,o),
(211,-25,cs)
);
}
);
width = 496;
}
);
note = c.ss02;
},
{
color = 0;
glyphname = d.ss02;
lastChange = "2023-10-31 19:55:38 +0000";
layers = (
{
anchors = (
{
name = bottom;
pos = (265,0);
},
{
name = center;
pos = (265,240);
},
{
name = top;
pos = (265,742);
},
{
name = topright;
pos = (510,742);
}
);
hints = (
{
horizontal = 1;
place = (724,-20);
target = down;
type = TopGhost;
},
{
horizontal = 1;
place = (314,72);
type = Stem;
},
{
horizontal = 1;
place = (-24,72);
type = Stem;
},
{
place = (389,90);
type = Stem;
},
{
place = (51,90);
type = Stem;
}
);
layerId = "2F065738-4B59-43EB-A5F2-FD5F277958EA";
shapes = (
{
closed = 1;
nodes = (
(434,-24,ls),
(455,-24,o),
(479,-11,o),
(479,12,cs),
(479,688,ls),
(479,711,o),
(455,724,o),
(434,724,cs),
(414,724,o),
(399,715,o),
(391,697,cs),
(389,693,o),
(388,542,o),
(388,386,c),
(211,386,ls),
(127,386,o),
(51,322,o),
(51,235,cs),
(51,127,ls),
(51,40,o),
(127,-24,o),
(211,-24,cs)
);
},
{
closed = 1;
nodes = (
(170,48,o),
(141,88,o),
(141,128,cs),
(141,234,ls),
(141,268,o),
(161,301,o),
(193,311,cs),
(205,315,o),
(262,315,o),
(277,315,cs),
(307,315,o),
(337,314,o),
(367,314,cs),
(388,314,l),
(389,188,o),
(389,74,o),
(389,48,c),
(212,48,ls)
);
}
);
width = 530;
}
);
note = d.ss02;
},
{
color = 0;
glyphname = f.ss02;
lastChange = "2023-10-31 19:55:38 +0000";
layers = (
{
anchors = (
{
name = bottom;
pos = (191,0);
},
{
name = top;
pos = (191,742);
}
);
hints = (
{
horizontal = 1;
place = (652,72);
type = Stem;
},
{
horizontal = 1;
place = (313,72);
type = Stem;
},
{
horizontal = 1;
place = (-24,21);
target = up;
type = BottomGhost;
},
{
place = (251,90);
type = Stem;
},
{
place = (50,92);
type = Stem;
}
);
layerId = "2F065738-4B59-43EB-A5F2-FD5F277958EA";
shapes = (
{
closed = 1;
nodes = (
(116,-24,o),
(131,-15,o),
(140,3,cs),
(141,6,o),
(142,115,o),
(142,243,cs),
(143,262,o),
(152,280,o),
(165,293,cs),
(194,321,o),
(238,313,o),
(276,313,cs),
(296,313,o),
(321,326,o),
(321,349,cs),
(321,395,o),
(242,385,o),
(211,385,cs),
(187,385,o),
(163,380,o),
(142,370,c),
(142,501,o),
(141,623,o),
(141,652,c),
(181,652,ls),
(216,652,o),
(244,623,o),
(250,591,cs),
(252,583,o),
(251,575,o),
(253,567,cs),
(258,547,o),
(277,537,o),
(297,537,cs),
(317,537,o),
(342,550,o),
(342,573,cs),
(342,660,o),
(266,724,o),
(182,724,cs),
(115,724,ls),
(89,724,o),
(51,722,o),
(51,688,cs),
(51,549,o),
(50,409,o),
(50,269,cs),
(50,250,o),
(50,8,o),
(53,3,cs),
(62,-15,o),
(76,-24,o),
(96,-24,cs)
);
}
);
width = 382;
}
);
note = f.ss02;
},
{
color = 0;
glyphname = g.ss02;
lastChange = "2023-10-31 19:55:38 +0000";
layers = (
{
anchors = (
{
name = bottom;
pos = (265,-258);
},
{
name = top;
pos = (265,480);
}
);
hints = (
{
horizontal = 1;
place = (314,72);
type = Stem;
},
{
horizontal = 1;
place = (-24,72);
type = Stem;
},
{
horizontal = 1;
place = (-362,71);
type = Stem;
},
{
place = (389,90);
type = Stem;
},
{
place = (51,90);
type = Stem;
}
);
layerId = "2F065738-4B59-43EB-A5F2-FD5F277958EA";
shapes = (
{
closed = 1;
nodes = (
(315,-362,ls),
(401,-362,o),
(479,-300,o),
(479,-211,cs),
(479,-178,o),
(481,-120,o),
(478,-88,cs),
(473,-47,o),
(452,-13,o),
(421,12,c),
(456,39,o),
(479,80,o),
(479,127,cs),
(479,232,ls),
(479,301,o),
(431,358,o),
(368,378,c),
(376,402,o),
(396,423,o),
(422,429,cs),
(429,430,o),
(436,429,o),
(443,431,cs),
(461,434,o),
(479,447,o),
(479,466,cs),
(479,489,o),
(454,502,o),
(434,502,cs),
(361,502,o),
(295,454,o),
(278,386,c),
(96,386,ls),
(75,386,o),
(51,373,o),
(51,350,cs),
(51,127,ls),
(51,95,o),
(62,64,o),
(81,39,cs),
(139,-37,o),
(222,-24,o),
(306,-24,cs),
(350,-24,o),
(383,-49,o),
(388,-95,cs),
(390,-108,o),
(389,-122,o),
(389,-136,cs),
(389,-161,o),
(389,-186,o),
(389,-210,cs),
(389,-259,o),
(355,-291,o),
(307,-291,cs),
(275,-291,o),
(244,-290,o),
(212,-290,cs),
(195,-290,o),
(179,-283,o),
(167,-272,cs),
(139,-246,o),
(141,-216,o),
(141,-182,cs),
(141,-158,o),
(141,-134,o),
(141,-109,cs),
(141,-83,o),
(122,-67,o),
(96,-67,cs),
(75,-67,o),
(51,-80,o),
(51,-103,cs),
(51,-211,ls),
(51,-298,o),
(126,-362,o),
(211,-362,cs)
);
},
{
closed = 1;
nodes = (
(174,48,o),
(141,79,o),
(141,128,cs),
(141,314,l),
(317,314,ls),
(360,314,o),
(389,271,o),
(389,231,cs),
(389,128,ls),
(389,95,o),
(369,61,o),
(336,51,cs),
(330,49,o),
(324,49,o),
(318,48,c),
(286,50,o),
(252,48,o),
(222,48,cs)
);
}
);
width = 530;
}
);
note = g.ss02;
},
{
color = 0;
glyphname = h.ss02;
lastChange = "2023-10-31 19:55:38 +0000";
layers = (
{
anchors = (
{
name = bottom;
pos = (264,0);
},
{
name = center;
pos = (264,742);
},
{
name = top;
pos = (264,742);
}
);
hints = (
{
horizontal = 1;
place = (725,-20);
target = down;
type = TopGhost;
},
{
horizontal = 1;
place = (312,72);
type = Stem;
},
{
horizontal = 1;
place = (-27,75);
type = Stem;
},
{
horizontal = 1;
place = (-24,21);
target = up;
type = BottomGhost;
},
{
place = (387,90);
type = Stem;
},
{
place = (51,91);
type = Stem;
}
);
layerId = "2F065738-4B59-43EB-A5F2-FD5F277958EA";
shapes = (
{
closed = 1;
nodes = (
(402,-27,o),
(477,37,o),
(477,123,cs),
(477,234,ls),
(477,320,o),
(402,384,o),
(318,384,cs),
(143,384,l),
(142,394,o),
(142,403,o),
(142,413,cs),
(142,434,o),
(142,693,o),
(139,698,cs),
(130,716,o),
(117,725,o),
(96,725,cs),
(76,725,o),
(51,712,o),
(51,689,cs),
(51,555,o),
(50,422,o),
(50,288,cs),
(50,267,o),
(50,8,o),
(53,3,cs),
(62,-16,o),
(75,-24,o),
(96,-24,cs),
(117,-24,o),
(141,-11,o),
(141,12,cs),
(141,112,o),
(142,212,o),
(143,312,c),
(317,312,ls),
(359,312,o),
(387,272,o),
(387,233,cs),
(387,124,ls),
(387,92,o),
(368,57,o),
(336,48,cs),
(326,45,o),
(317,46,o),
(308,44,cs),
(291,41,o),
(273,28,o),
(273,9,cs),
(273,-14,o),
(298,-27,o),
(318,-27,cs)
);
}
);
width = 528;
}
);
note = h.ss02;
},
{
color = 0;
glyphname = i.ss02;
lastChange = "2023-10-31 19:55:38 +0000";
layers = (
{
anchors = (
{
name = bottom;
pos = (96,0);
}
);
hints = (
{
horizontal = 1;
place = (448,138);
type = Stem;
},
{
horizontal = 1;
place = (-36,622);
type = Stem;
},
{
place = (51,90);
type = Stem;
}
);
layerId = "2F065738-4B59-43EB-A5F2-FD5F277958EA";
shapes = (
{
closed = 1;
nodes = (
(116,-36,o),
(141,-23,o),
(141,0,cs),
(141,349,ls),
(141,372,o),
(116,385,o),
(96,385,cs),
(75,385,o),
(51,372,o),
(51,349,cs),
(51,0,ls),
(51,-23,o),
(75,-36,o),
(96,-36,cs)
);
},
{
closed = 1;
nodes = (
(116,448,o),
(141,461,o),
(141,484,cs),
(141,550,ls),
(141,573,o),
(116,586,o),
(96,586,cs),
(75,586,o),
(51,573,o),
(51,550,cs),
(51,484,ls),
(51,461,o),
(75,448,o),
(96,448,cs)
);
}
);
width = 191;
}
);
note = i.ss02;
},
{
color = 0;
glyphname = n.ss02;
lastChange = "2023-10-31 19:55:38 +0000";
layers = (
{
anchors = (
{
name = bottom;
pos = (261,0);
},
{
name = top;
pos = (261,480);
}
);
hints = (
{
horizontal = 1;
place = (314,72);
type = Stem;
},
{
horizontal = 1;
place = (-26,75);
type = Stem;
},
{
horizontal = 1;
place = (-23,21);
target = up;
type = BottomGhost;
},
{
place = (382,90);
type = Stem;
},
{
place = (51,91);
type = Stem;
}
);
layerId = "2F065738-4B59-43EB-A5F2-FD5F277958EA";
shapes = (
{
closed = 1;
nodes = (
(396,-26,o),
(472,37,o),
(472,122,cs),
(472,238,ls),
(472,310,o),
(415,370,o),
(346,383,cs),
(327,386,o),
(308,387,o),
(289,387,cs),
(225,387,o),
(160,386,o),
(96,386,cs),
(75,386,o),
(51,373,o),
(51,350,cs),
(51,250,o),
(50,150,o),
(50,50,cs),
(50,38,o),
(50,10,o),
(54,1,cs),
(62,-15,o),
(79,-23,o),
(96,-23,cs),
(113,-23,o),
(131,-15,o),
(139,1,cs),
(143,10,o),
(142,34,o),
(142,45,cs),
(142,134,o),
(141,224,o),
(141,314,c),
(249,314,ls),
(294,314,o),
(342,324,o),
(369,281,cs),
(377,268,o),
(382,252,o),
(382,237,cs),
(382,123,ls),
(382,92,o),
(362,58,o),
(331,49,cs),
(321,46,o),
(311,47,o),
(302,45,cs),
(285,41,o),
(268,28,o),
(268,10,cs),
(268,-13,o),
(293,-26,o),
(313,-26,cs)
);
}
);
width = 522;
}
);
note = n.ss02;
},
{
color = 0;
glyphname = p.ss02;
lastChange = "2023-10-31 19:55:38 +0000";
layers = (
{
anchors = (
{
name = bottom;
pos = (265,0);
},
{
name = top;
pos = (265,480);
}
);
hints = (
{
horizontal = 1;
place = (314,72);
type = Stem;
},
{
horizontal = 1;
place = (-24,72);
type = Stem;
},
{
horizontal = 1;
place = (-362,21);
target = up;
type = BottomGhost;
},
{
place = (389,90);
type = Stem;
},
{
place = (51,91);
type = Stem;
}
);
layerId = "2F065738-4B59-43EB-A5F2-FD5F277958EA";
shapes = (
{
closed = 1;
nodes = (
(116,-362,o),
(131,-353,o),
(139,-335,cs),
(142,-330,o),
(142,-180,o),
(142,-24,c),
(319,-24,ls),
(403,-24,o),
(479,40,o),
(479,127,cs),
(479,235,ls),
(479,308,o),
(423,370,o),
(352,383,cs),
(333,386,o),
(313,387,o),
(293,387,cs),
(228,387,o),
(162,386,o),
(96,386,cs),
(76,386,o),
(61,378,o),
(53,360,cs),
(50,354,o),
(50,102,o),
(50,81,cs),
(50,-55,o),
(51,-190,o),
(51,-326,cs),
(51,-349,o),
(76,-362,o),
(96,-362,cs)
);
},
{
closed = 1;
nodes = (
(225,47,o),
(196,48,o),
(166,48,cs),
(142,48,l),
(142,173,o),
(141,287,o),
(141,314,c),
(298,314,ls),
(331,314,o),
(352,313,o),
(373,284,cs),
(384,270,o),
(389,252,o),
(389,234,cs),
(389,128,ls),
(389,94,o),
(370,61,o),
(337,51,cs),
(325,47,o),
(269,47,o),
(255,47,cs)
);
}
);
width = 530;
}
);
note = p.ss02;
},
{
color = 0;
glyphname = q.ss02;
lastChange = "2023-10-31 19:55:38 +0000";
layers = (
{
anchors = (
{
name = bottom;
pos = (266,0);
},
{
name = top;
pos = (266,480);
}
);
hints = (
{
horizontal = 1;
place = (314,72);
type = Stem;
},
{
horizontal = 1;
place = (-24,72);
type = Stem;
},
{
horizontal = 1;
place = (-362,21);
target = up;
type = BottomGhost;
},
{
place = (390,90);
type = Stem;
},
{
place = (51,90);
type = Stem;
}
);
layerId = "2F065738-4B59-43EB-A5F2-FD5F277958EA";
shapes = (
{
closed = 1;
nodes = (
(455,-362,o),
(480,-349,o),
(480,-326,cs),
(480,-191,o),
(481,-55,o),
(481,80,cs),
(481,101,o),
(481,354,o),
(478,359,cs),
(469,377,o),
(455,386,o),
(435,386,cs),
(211,386,ls),
(127,386,o),
(51,322,o),
(51,235,cs),
(51,127,ls),
(51,40,o),
(127,-24,o),
(211,-24,cs),
(319,-24,ls),
(344,-24,o),
(368,-19,o),
(389,-9,c),
(389,-31,o),
(389,-53,o),
(389,-75,cs),
(389,-95,o),
(389,-329,o),
(392,-335,cs),
(400,-353,o),
(416,-362,o),
(435,-362,cs)
);
},
{
closed = 1;
nodes = (
(170,48,o),
(141,88,o),
(141,128,cs),
(141,234,ls),
(141,280,o),
(172,314,o),
(218,314,cs),
(390,314,l),
(390,254,o),
(390,193,o),
(390,133,c),
(388,126,o),
(389,117,o),
(387,110,cs),
(380,77,o),
(353,48,o),
(318,48,cs),
(212,48,ls)
);
}
);
width = 531;
}
);
note = q.ss02;
},
{
color = 0;
glyphname = s.ss02;
lastChange = "2023-10-31 19:55:38 +0000";
layers = (
{
anchors = (
{
name = bottom;
pos = (259,0);
},
{
name = top;
pos = (259,480);
}
);
hints = (
{
horizontal = 1;
place = (315,71);
type = Stem;
},
{
horizontal = 1;
place = (151,72);
type = Stem;
},
{
horizontal = 1;
place = (-24,72);
type = Stem;
},
{
place = (378,90);
type = Stem;
},
{
place = (50,90);
type = Stem;
}
);
layerId = "2F065738-4B59-43EB-A5F2-FD5F277958EA";
shapes = (
{
closed = 1;
nodes = (
(311,-24,ls),
(382,-24,o),
(468,24,o),
(468,103,cs),
(468,128,o),
(459,150,o),
(444,169,cs),
(389,236,o),
(283,223,o),
(207,223,cs),
(179,223,o),
(140,234,o),
(140,268,cs),
(140,278,o),
(146,286,o),
(152,293,cs),
(179,320,o),
(225,315,o),
(260,315,cs),
(298,315,o),
(336,314,o),
(373,314,cs),
(398,314,o),
(436,317,o),
(436,350,cs),
(436,373,o),
(412,386,o),
(391,386,cs),
(206,386,ls),
(142,386,o),
(50,343,o),
(50,269,cs),
(50,245,o),
(59,222,o),
(74,204,cs),
(129,138,o),
(234,151,o),
(310,151,cs),
(340,151,o),
(378,139,o),
(378,103,cs),
(378,93,o),
(373,83,o),
(367,75,cs),
(340,39,o),
(285,48,o),
(245,48,cs),
(205,48,o),
(165,48,o),
(125,48,cs),
(100,48,o),
(61,46,o),
(61,12,cs),
(61,-11,o),
(86,-24,o),
(106,-24,cs)
);
}
);
width = 518;
}
);
note = s.ss02;
},
{
color = 5;
glyphname = u.ss02;
lastChange = "2023-10-31 19:55:38 +0000";
layers = (
{
anchors = (
{
name = bottom;
pos = (261,0);
},
{
name = ogonek;
pos = (470,10);
},
{
name = top;
pos = (261,480);
},
{
name = topright;
pos = (502,480);
}
);
hints = (
{
horizontal = 1;
place = (-25,72);
type = Stem;
},
{
place = (381,90);
type = Stem;
},
{
place = (51,89);
type = Stem;
}
);
layerId = "2F065738-4B59-43EB-A5F2-FD5F277958EA";
shapes = (
{
closed = 1;
nodes = (
(397,493,o),
(384,477,o),
(384,434,cs),
(384,207,ls),
(384,105,o),
(348,62,o),
(261,62,cs),
(174,62,o),
(138,105,o),
(138,207,cs),
(138,434,ls),
(138,477,o),
(125,493,o),
(92,493,cs),
(59,493,o),
(46,477,o),
(46,434,cs),
(46,217,ls),
(46,52,o),
(115,-12,o),
(261,-12,cs),
(407,-12,o),
(476,50,o),
(476,217,cs),
(476,434,ls),
(476,477,o),
(463,493,o),
(430,493,cs)
);
}
);
width = 522;
}
);
note = u.ss02;
},
{
color = 0;
glyphname = v.ss02;
lastChange = "2023-10-31 19:55:38 +0000";
layers = (
{
anchors = (
{
name = bottom;
pos = (260,0);
},
{
name = top;
pos = (260,480);
}
);
hints = (
{
horizontal = 1;
place = (-26,412);
type = Stem;
},
{
place = (378,91);
type = Stem;
},
{
place = (50,90);
type = Stem;
}
);
layerId = "2F065738-4B59-43EB-A5F2-FD5F277958EA";
shapes = (
{
closed = 1;
nodes = (
(284,-26,o),
(293,-14,o),
(309,3,cs),
(337,33,l),
(389,89,ls),
(401,103,o),
(414,116,o),
(426,130,cs),
(461,175,o),
(469,228,o),
(469,283,cs),
(469,305,o),
(468,328,o),
(468,350,cs),
(468,373,o),
(443,386,o),
(423,386,cs),
(392,386,o),
(378,369,o),
(378,340,cs),
(378,335,l),
(378,272,ls),
(378,202,o),
(362,181,o),
(316,132,cs),
(259,70,l),
(202,132,ls),
(157,181,o),
(140,202,o),
(140,272,cs),
(140,335,l),
(140,340,ls),
(140,369,o),
(126,386,o),
(95,386,cs),
(75,386,o),
(50,373,o),
(50,350,cs),
(50,253,ls),
(50,212,o),
(67,162,o),
(93,130,cs),
(110,108,o),
(214,-7,o),
(231,-18,cs),
(239,-23,o),
(249,-26,o),
(260,-26,cs)
);
}
);
width = 519;
}
);
note = v.ss02;
},
{
color = 0;
glyphname = g.ss03;
lastChange = "2023-10-31 19:55:38 +0000";
layers = (
{
anchors = (
{
name = bottom;
pos = (265,-258);
},
{
name = top;
pos = (265,480);
}
);
hints = (
{
horizontal = 1;
place = (314,72);
type = Stem;
},
{
horizontal = 1;
place = (-24,72);
type = Stem;
},
{
horizontal = 1;
place = (-362,71);
type = Stem;
},
{
place = (389,90);
type = Stem;
},
{
place = (51,90);
type = Stem;
}
);
layerId = "2F065738-4B59-43EB-A5F2-FD5F277958EA";
shapes = (
{
closed = 1;
nodes = (
(312,-363,o),
(332,-362,o),
(351,-359,cs),
(422,-346,o),
(479,-285,o),
(479,-211,cs),
(479,-178,o),
(481,-120,o),
(478,-88,cs),
(473,-47,o),
(452,-13,o),
(422,12,c),
(471,50,o),
(479,94,o),
(479,152,cs),
(479,345,ls),
(479,378,o),
(452,386,o),
(423,386,cs),
(211,386,ls),
(126,386,o),
(51,322,o),
(51,235,cs),
(51,127,ls),
(51,95,o),
(62,64,o),
(81,39,cs),
(139,-37,o),
(222,-24,o),
(306,-24,cs),
(350,-24,o),
(383,-49,o),
(388,-95,cs),
(390,-108,o),
(389,-122,o),
(389,-136,cs),
(389,-161,o),
(389,-186,o),
(389,-210,cs),
(389,-261,o),
(353,-291,o),
(304,-291,cs),
(263,-291,o),
(194,-290,o),
(153,-290,c),
(252,-208,ls),
(266,-196,o),
(290,-172,o),
(290,-153,cs),
(290,-130,o),
(265,-117,o),
(245,-117,cs),
(233,-117,o),
(222,-121,o),
(213,-128,cs),
(205,-133,o),
(60,-300,o),
(55,-310,cs),
(52,-315,o),
(50,-320,o),
(50,-326,cs),
(50,-349,o),
(75,-362,o),
(95,-362,cs),
(234,-362,ls),
(254,-362,o),
(273,-363,o),
(293,-363,cs)
);
},
{
closed = 1;
nodes = (
(174,48,o),
(141,79,o),
(141,128,cs),
(141,234,ls),
(141,274,o),
(170,314,o),
(212,314,cs),
(271,314,o),
(330,314,o),
(389,314,c),
(389,128,ls),
(389,95,o),
(369,61,o),
(336,51,cs),
(330,49,o),
(324,49,o),
(318,48,c),
(286,50,o),
(252,48,o),
(222,48,cs)
);
}
);
width = 530;
}
);
note = g.ss03;
},
{
color = 0;
glyphname = i.ss03;
lastChange = "2023-10-31 19:55:38 +0000";
layers = (
{
anchors = (
{
name = bottom;
pos = (164,0);
}
);
hints = (
{
horizontal = 1;
place = (-24,21);
target = up;
type = BottomGhost;
},
{
place = (83,90);
type = Stem;
}
);
layerId = "2F065738-4B59-43EB-A5F2-FD5F277958EA";
shapes = (
{
closed = 1;
nodes = (
(263,-24,o),
(288,-11,o),
(288,12,cs),
(288,70,o),
(186,19,o),
(174,118,cs),
(168,170,o),
(174,228,o),
(174,280,cs),
(174,319,o),
(185,385,o),
(128,385,cs),
(107,385,o),
(83,372,o),
(83,349,cs),
(82,155,ls),
(81,56,o),
(136,-24,o),
(243,-24,cs)
);
},
{
closed = 1;
nodes = (
(167,448,o),
(207,476,o),
(207,517,cs),
(207,555,o),
(171,586,o),
(128,586,cs),
(90,586,o),
(50,559,o),
(50,517,cs),
(50,476,o),
(90,448,o),
(128,448,cs)
);
},
{
closed = 1;
nodes = (
(110,488,o),
(92,499,o),
(92,517,cs),
(92,535,o),
(110,547,o),
(128,547,cs),
(146,547,o),
(166,535,o),
(166,517,cs),
(166,499,o),
(146,488,o),
(128,488,cs)
);
}
);
width = 328;
}
);
note = i.ss03;
},
{
color = 0;
glyphname = y.ss03;
lastChange = "2023-10-31 19:55:38 +0000";
layers = (
{
anchors = (
{
name = bottom;
pos = (265,0);
},
{
name = top;
pos = (265,480);
}
);
hints = (
{
horizontal = 1;
place = (-24,72);
type = Stem;
},
{
horizontal = 1;
place = (-362,71);
type = Stem;
},
{
place = (389,90);
type = Stem;
},
{
place = (51,90);
type = Stem;
}
);
layerId = "2F065738-4B59-43EB-A5F2-FD5F277958EA";
shapes = (
{
closed = 1;
nodes = (
(312,-363,o),
(332,-362,o),
(351,-359,cs),
(422,-346,o),
(478,-284,o),
(478,-211,cs),
(478,-103,ls),
(478,-56,o),
(456,-15,o),
(422,12,c),
(456,39,o),
(479,80,o),
(479,127,cs),
(479,350,ls),
(479,373,o),
(454,386,o),
(434,386,cs),
(417,386,o),
(399,378,o),
(392,362,cs),
(386,351,o),
(389,327,o),
(389,314,cs),
(389,152,ls),
(389,116,o),
(388,85,o),
(357,62,cs),
(346,53,o),
(332,48,o),
(318,48,cs),
(212,48,ls),
(198,48,o),
(184,53,o),
(173,62,cs),
(142,85,o),
(141,115,o),
(141,151,cs),
(141,201,ls),
(141,245,o),
(141,290,o),
(141,335,cs),
(141,365,o),
(128,383,o),
(96,383,cs),
(75,383,o),
(51,370,o),
(51,347,cs),
(51,127,ls),
(51,41,o),
(127,-24,o),
(211,-24,cs),
(312,-24,l),
(320,-25,o),
(328,-24,o),
(336,-27,cs),
(368,-36,o),
(388,-71,o),
(388,-104,cs),
(388,-210,ls),
(388,-261,o),
(353,-291,o),
(304,-291,cs),
(263,-291,o),
(195,-290,o),
(154,-290,c),
(252,-208,ls),
(265,-197,o),
(277,-183,o),
(285,-168,c),
(288,-164,o),
(290,-158,o),
(290,-153,cs),
(290,-130,o),
(265,-117,o),
(245,-117,cs),
(233,-117,o),
(222,-121,o),
(213,-128,cs),
(206,-133,o),
(60,-301,o),
(55,-310,cs),
(52,-315,o),
(50,-320,o),
(50,-326,cs),
(50,-349,o),
(75,-362,o),
(95,-362,cs),
(234,-362,ls),
(254,-362,o),
(273,-363,o),
(293,-363,cs)
);
}
);
width = 529;
}
);
note = y.ss03;
},
{
color = 0;
glyphname = zero;
lastChange = "2023-10-27 10:03:13 +0000";
layers = (
{
hints = (
{
horizontal = 1;
place = (652,72);
type = Stem;
},
{
horizontal = 1;
place = (-24,72);
type = Stem;
},
{
place = (389,90);
type = Stem;
},
{
place = (51,90);
type = Stem;
}
);
layerId = "2F065738-4B59-43EB-A5F2-FD5F277958EA";
shapes = (
{
closed = 1;
nodes = (
(319,-24,ls),
(403,-24,o),
(479,40,o),
(479,127,cs),
(479,573,ls),
(479,660,o),
(403,724,o),
(319,724,cs),
(211,724,ls),
(127,724,o),
(51,660,o),
(51,573,cs),
(51,127,ls),
(51,40,o),
(127,-24,o),
(211,-24,cs)
);
},
{
closed = 1;
nodes = (
(170,48,o),
(141,88,o),
(141,128,cs),
(141,572,ls),
(141,612,o),
(170,652,o),
(212,652,cs),
(318,652,ls),
(360,652,o),
(389,612,o),
(389,572,cs),
(389,128,ls),
(389,88,o),
(360,48,o),
(318,48,cs),
(212,48,ls)
);
}
);
width = 530;
}
);
note = zero;
unicode = 48;
},
{
color = 0;
glyphname = one;
lastChange = "2023-10-27 10:03:13 +0000";
layers = (
{
hints = (
{
horizontal = 1;
place = (652,73);
type = Stem;
},
{
horizontal = 1;
place = (-24,21);
target = up;
type = BottomGhost;
},
{
place = (219,91);
type = Stem;
},
{
place = (51,89);
type = Stem;
}
);
layerId = "2F065738-4B59-43EB-A5F2-FD5F277958EA";
shapes = (
{
closed = 1;
nodes = (
(285,-24,o),
(310,-11,o),
(310,12,cs),
(310,688,ls),
(310,722,o),
(267,725,o),
(241,725,cs),
(231,725,o),
(221,724,o),
(211,724,cs),
(127,724,o),
(51,660,o),
(51,573,cs),
(51,550,o),
(76,537,o),
(96,537,cs),
(115,537,o),
(135,547,o),
(140,567,cs),
(142,575,o),
(141,583,o),
(143,591,cs),
(149,623,o),
(178,652,o),
(212,652,cs),
(220,652,l),
(220,519,o),
(219,385,o),
(219,252,cs),
(219,233,o),
(219,9,o),
(221,3,cs),
(229,-15,o),
(245,-24,o),
(265,-24,cs)
);
}
);
width = 360;
}
);
note = one;
unicode = 49;
},
{
color = 0;
glyphname = two;
lastChange = "2023-10-27 10:03:13 +0000";
layers = (
{
hints = (
{
horizontal = 1;
place = (652,72);
type = Stem;
},
{
horizontal = 1;
place = (315,72);
type = Stem;
},
{
horizontal = 1;
place = (-24,72);
type = Stem;
},
{
place = (389,90);
type = Stem;
},
{
place = (51,90);
type = Stem;
}
);
layerId = "2F065738-4B59-43EB-A5F2-FD5F277958EA";
shapes = (
{
closed = 1;
nodes = (
(434,-24,ls),
(455,-24,o),
(479,-11,o),
(479,12,cs),
(479,28,o),
(466,40,o),
(451,45,cs),
(431,52,o),
(365,48,o),
(340,48,cs),
(141,48,l),
(141,235,ls),
(141,268,o),
(161,302,o),
(193,312,cs),
(212,318,o),
(237,315,o),
(256,315,cs),
(331,315,o),
(397,310,o),
(448,376,cs),
(468,402,o),
(479,432,o),
(479,465,cs),
(479,573,ls),
(479,660,o),
(403,724,o),
(319,724,cs),
(110,724,ls),
(86,724,o),
(51,720,o),
(51,688,cs),
(51,648,o),
(103,652,o),
(131,652,cs),
(318,652,ls),
(360,652,o),
(389,612,o),
(389,572,cs),
(389,466,ls),
(389,448,o),
(384,430,o),
(373,416,cs),
(347,381,o),
(318,387,o),
(280,387,cs),
(246,387,ls),
(179,387,o),
(125,381,o),
(81,324,cs),
(62,299,o),
(51,267,o),
(51,236,cs),
(51,169,o),
(50,101,o),
(50,34,cs),
(50,26,o),
(50,17,o),
(51,9,cs),
(54,-13,o),
(76,-24,o),
(96,-24,cs)
);
}
);
width = 530;
}
);
note = two;
unicode = 50;
},
{
color = 0;
glyphname = three;
lastChange = "2023-10-27 10:03:13 +0000";
layers = (
{
hints = (
{
horizontal = 1;
place = (652,72);
type = Stem;
},
{
horizontal = 1;
place = (314,72);
type = Stem;
},
{
horizontal = 1;
place = (-24,73);
type = Stem;
},
{
place = (389,90);
type = Stem;
}
);
layerId = "2F065738-4B59-43EB-A5F2-FD5F277958EA";
shapes = (
{
closed = 1;
nodes = (
(319,-24,ls),
(403,-24,o),
(479,40,o),
(479,127,cs),
(479,235,ls),
(479,282,o),
(457,323,o),
(423,350,c),
(457,377,o),
(479,418,o),
(479,465,cs),
(479,573,ls),
(479,660,o),
(403,724,o),
(319,724,cs),
(114,724,ls),
(89,724,o),
(51,722,o),
(51,688,cs),
(51,648,o),
(103,652,o),
(131,652,cs),
(318,652,ls),
(360,652,o),
(389,612,o),
(389,572,cs),
(389,466,ls),
(389,433,o),
(369,398,o),
(337,389,cs),
(330,387,o),
(324,387,o),
(317,386,c),
(156,386,ls),
(130,386,o),
(83,388,o),
(83,350,cs),
(83,312,o),
(130,314,o),
(156,314,cs),
(316,314,ls),
(317,314,o),
(318,314,o),
(319,314,cs),
(361,312,o),
(389,273,o),
(389,234,cs),
(389,128,ls),
(389,94,o),
(369,61,o),
(337,51,cs),
(324,47,o),
(257,47,o),
(242,47,cs),
(197,47,o),
(151,49,o),
(106,49,cs),
(84,49,o),
(51,41,o),
(51,12,cs),
(51,-11,o),
(75,-24,o),
(96,-24,cs)
);
}
);
width = 530;
}
);
note = three;
unicode = 51;
},
{
color = 0;
glyphname = four;
lastChange = "2023-10-27 10:03:13 +0000";
layers = (
{
hints = (
{
horizontal = 1;
place = (724,-20);
target = down;
type = TopGhost;
},
{
horizontal = 1;
place = (314,72);
type = Stem;
},
{
horizontal = 1;
place = (-24,21);
target = up;
type = BottomGhost;
},
{
place = (389,90);
type = Stem;
}
);
layerId = "2F065738-4B59-43EB-A5F2-FD5F277958EA";
shapes = (
{
closed = 1;
nodes = (
(451,-24,o),
(470,-16,o),
(477,1,cs),
(480,9,o),
(479,21,o),
(479,29,cs),
(479,519,ls),
(479,542,o),
(455,555,o),
(434,555,cs),
(417,555,o),
(398,547,o),
(391,530,cs),
(388,522,o),
(389,510,o),
(389,502,cs),
(389,464,o),
(389,425,o),
(389,387,c),
(374,387,o),
(361,386,o),
(352,386,cs),
(190,386,l),
(443,639,ls),
(456,652,o),
(479,669,o),
(479,688,cs),
(479,711,o),
(455,724,o),
(434,724,cs),
(402,724,o),
(383,694,o),
(362,674,cs),
(131,442,ls),
(107,418,o),
(81,396,o),
(59,371,cs),
(54,365,o),
(51,358,o),
(51,350,cs),
(51,327,o),
(75,314,o),
(96,314,cs),
(194,314,o),
(291,313,o),
(389,313,c),
(389,213,o),
(389,112,o),
(389,12,cs),
(389,-11,o),
(414,-24,o),
(434,-24,cs)
);
}
);
width = 530;
}
);
note = four;
unicode = 52;
},
{
color = 0;
glyphname = five;
lastChange = "2023-10-27 10:03:13 +0000";
layers = (
{
hints = (
{
horizontal = 1;
place = (651,73);
type = Stem;
},
{
horizontal = 1;
place = (314,72);
type = Stem;
},
{
horizontal = 1;
place = (-24,72);
type = Stem;
},
{
place = (389,90);
type = Stem;
},
{
place = (51,90);
type = Stem;
}
);
layerId = "2F065738-4B59-43EB-A5F2-FD5F277958EA";
shapes = (
{
closed = 1;
nodes = (
(188,-24,l),
(319,-24,ls),
(403,-24,o),
(479,40,o),
(479,127,cs),
(479,235,ls),
(479,266,o),
(469,297,o),
(450,322,cs),
(399,390,o),
(337,386,o),
(261,386,cs),
(141,386,l),
(141,652,l),
(229,652,o),
(316,651,o),
(404,651,cs),
(430,651,o),
(479,650,o),
(479,688,cs),
(479,711,o),
(455,724,o),
(434,724,cs),
(96,724,ls),
(75,724,o),
(51,711,o),
(51,688,cs),
(51,350,ls),
(51,310,o),
(103,314,o),
(131,314,cs),
(188,314,l),
(318,314,ls),
(360,314,o),
(389,274,o),
(389,234,cs),
(389,128,ls),
(389,112,o),
(385,96,o),
(376,83,cs),
(355,47,o),
(328,48,o),
(291,48,cs),
(231,48,l),
(96,48,ls),
(75,48,o),
(51,35,o),
(51,12,cs),
(51,-22,o),
(89,-24,o),
(114,-24,cs)
);
}
);
width = 530;
}
);
note = five;
unicode = 53;
},
{
color = 0;
glyphname = six;
lastChange = "2023-10-27 10:03:13 +0000";
layers = (
{
hints = (
{
place = (652,72);
type = Stem;
},
{
place = (390,90);
type = Stem;
},
{
place = (377,89);
type = Stem;
},
{
place = (314,72);
type = Stem;
},
{
place = (52,90);
type = Stem;
},
{
place = (-24,72);
type = Stem;
}
);
layerId = "2F065738-4B59-43EB-A5F2-FD5F277958EA";
shapes = (
{
closed = 1;
nodes = (
(320,-24,ls),
(404,-24,o),
(480,40,o),
(480,127,cs),
(480,235,ls),
(480,322,o),
(404,386,o),
(320,386,cs),
(211,386,ls),
(187,386,o),
(163,380,o),
(141,370,c),
(141,432,o),
(142,494,o),
(142,556,cs),
(142,570,o),
(142,585,o),
(146,599,cs),
(156,628,o),
(181,652,o),
(213,652,cs),
(305,652,ls),
(339,652,o),
(368,623,o),
(374,590,cs),
(376,583,o),
(375,575,o),
(377,567,cs),
(382,547,o),
(402,537,o),
(421,537,cs),
(442,537,o),
(466,550,o),
(466,573,cs),
(466,660,o),
(390,724,o),
(306,724,cs),
(212,724,ls),
(133,724,o),
(62,668,o),
(53,588,cs),
(50,564,o),
(52,539,o),
(52,515,cs),
(52,385,o),
(51,256,o),
(51,127,cs),
(51,40,o),
(126,-24,o),
(210,-24,cs)
);
},
{
closed = 1;
nodes = (
(170,48,o),
(141,88,o),
(141,127,cs),
(141,161,o),
(141,195,o),
(141,229,c),
(143,236,o),
(142,244,o),
(143,252,cs),
(149,285,o),
(178,314,o),
(212,314,cs),
(318,314,ls),
(361,314,o),
(390,274,o),
(390,234,cs),
(390,127,ls),
(390,88,o),
(361,48,o),
(318,48,cs),
(212,48,ls)
);
}
);
width = 530;
}
);
note = six;
unicode = 54;
},
{
color = 0;
glyphname = seven;
lastChange = "2023-10-27 10:03:13 +0000";
layers = (
{
hints = (
{
horizontal = 1;
place = (652,72);
type = Stem;
},
{
horizontal = 1;
place = (-24,21);
target = up;
type = BottomGhost;
},
{
place = (389,90);
type = Stem;
}
);
layerId = "2F065738-4B59-43EB-A5F2-FD5F277958EA";
shapes = (
{
closed = 1;
nodes = (
(454,-24,o),
(479,-11,o),
(479,12,cs),
(479,195,o),
(479,377,o),
(479,560,cs),
(479,583,o),
(477,608,o),
(467,630,cs),
(439,689,o),
(384,724,o),
(319,724,cs),
(111,724,ls),
(86,724,o),
(51,720,o),
(51,688,cs),
(51,648,o),
(103,652,o),
(131,652,cs),
(188,652,l),
(317,652,ls),
(349,652,o),
(376,628,o),
(385,599,cs),
(389,583,o),
(389,551,o),
(389,535,cs),
(389,366,o),
(388,197,o),
(388,28,cs),
(388,19,o),
(388,8,o),
(391,0,cs),
(399,-16,o),
(417,-24,o),
(434,-24,cs)
);
}
);
width = 530;
}
);
note = seven;
unicode = 55;
},
{
color = 0;
glyphname = eight;
lastChange = "2023-10-27 10:03:13 +0000";
layers = (
{
hints = (
{
place = (652,72);
type = Stem;
},
{
place = (389,90);
type = Stem;
},
{
place = (314,72);
type = Stem;
},
{
place = (51,90);
type = Stem;
},
{
place = (-24,72);
type = Stem;
}
);
layerId = "2F065738-4B59-43EB-A5F2-FD5F277958EA";
shapes = (
{
closed = 1;
nodes = (
(319,-24,ls),
(403,-24,o),
(479,40,o),
(479,127,cs),
(479,235,ls),
(479,282,o),
(457,323,o),
(423,350,c),
(457,377,o),
(479,418,o),
(479,465,cs),
(479,573,ls),
(479,660,o),
(403,724,o),
(319,724,cs),
(211,724,ls),
(127,724,o),
(51,660,o),
(51,573,cs),
(51,465,ls),
(51,418,o),
(73,377,o),
(107,350,c),
(73,323,o),
(51,282,o),
(51,235,cs),
(51,127,ls),
(51,40,o),
(127,-24,o),
(211,-24,cs)
);
},
{
closed = 1;
nodes = (
(170,48,o),
(141,88,o),
(141,128,cs),
(141,234,ls),
(141,273,o),
(169,312,o),
(211,314,cs),
(319,314,ls),
(361,312,o),
(389,273,o),
(389,234,cs),
(389,128,ls),
(389,88,o),
(360,48,o),
(318,48,cs),
(212,48,ls)
);
},
{
closed = 1;
nodes = (
(169,388,o),
(141,427,o),
(141,466,cs),
(141,572,ls),
(141,612,o),
(170,652,o),
(212,652,cs),
(318,652,ls),
(360,652,o),
(389,612,o),
(389,572,cs),
(389,466,ls),
(389,427,o),
(361,388,o),
(319,386,cs),
(211,386,ls)
);
}
);
width = 530;
}
);
note = eight;
unicode = 56;
},
{
color = 0;
glyphname = nine;
lastChange = "2023-10-27 10:03:13 +0000";
layers = (
{
hints = (
{
place = (652,72);
type = Stem;
},
{
place = (389,90);
type = Stem;
},
{
place = (314,72);
type = Stem;
},
{
place = (51,90);
type = Stem;
},
{
place = (-24,72);
type = Stem;
}
);
layerId = "2F065738-4B59-43EB-A5F2-FD5F277958EA";
shapes = (
{
closed = 1;
nodes = (
(319,-24,ls),
(403,-24,o),
(479,40,o),
(479,127,cs),
(479,350,l),
(480,354,o),
(480,358,o),
(480,362,cs),
(480,397,o),
(479,431,o),
(479,465,cs),
(479,573,ls),
(479,660,o),
(403,724,o),
(319,724,cs),
(211,724,ls),
(127,724,o),
(51,660,o),
(51,573,cs),
(51,465,ls),
(51,378,o),
(127,314,o),
(211,314,cs),
(389,314,l),
(389,314,o),
(389,314,o),
(389,314,c),
(389,152,ls),
(389,116,o),
(389,85,o),
(357,62,cs),
(346,53,o),
(332,48,o),
(318,48,cs),
(212,48,ls),
(178,48,o),
(149,77,o),
(143,110,cs),
(141,117,o),
(142,125,o),
(140,133,cs),
(136,153,o),
(115,163,o),
(96,163,cs),
(75,163,o),
(51,150,o),
(51,127,cs),
(51,40,o),
(127,-24,o),
(211,-24,cs)
);
},
{
closed = 1;
nodes = (
(170,386,o),
(141,426,o),
(141,466,cs),
(141,572,ls),
(141,612,o),
(170,652,o),
(212,652,cs),
(318,652,ls),
(360,652,o),
(389,612,o),
(389,572,cs),
(389,465,l),
(389,386,l),
(212,386,ls)
);
}
);
width = 531;
}
);
note = nine;
unicode = 57;
},
{
color = 0;
glyphname = one.ss01;
lastChange = "2023-10-27 10:03:13 +0000";
layers = (
{
hints = (
{
horizontal = 1;
place = (652,73);
type = Stem;
},
{
horizontal = 1;
place = (-16,72);
type = Stem;
},
{
place = (219,91);
type = Stem;
},
{
place = (51,89);
type = Stem;
}
);
layerId = "2F065738-4B59-43EB-A5F2-FD5F277958EA";
shapes = (
{
closed = 1;
nodes = (
(358,-16,ls),
(378,-16,o),
(403,-3,o),
(403,20,cs),
(403,43,o),
(378,56,o),
(358,56,cs),
(310,56,l),
(310,688,ls),
(310,722,o),
(267,725,o),
(241,725,cs),
(231,725,o),
(221,724,o),
(211,724,cs),
(127,724,o),
(51,660,o),
(51,573,cs),
(51,550,o),
(76,537,o),
(96,537,cs),
(115,537,o),
(135,547,o),
(140,567,cs),
(142,575,o),
(141,583,o),
(143,591,cs),
(149,623,o),
(178,652,o),
(212,652,cs),
(220,652,l),
(220,619,o),
(220,587,o),
(220,554,cs),
(219,358,ls),
(219,325,o),
(219,292,o),
(219,260,cs),
(219,246,o),
(219,122,o),
(220,56,c),
(116,56,ls),
(96,56,o),
(71,43,o),
(71,20,cs),
(71,-3,o),
(96,-16,o),
(116,-16,cs)
);
}
);
width = 453;
}
);
note = one.ss01;
},
{
color = 0;
glyphname = six.ss01;
lastChange = "2023-10-27 10:03:13 +0000";
layers = (
{
hints = (
{
place = (652,72);
type = Stem;
},
{
place = (390,90);
type = Stem;
},
{
place = (314,72);
type = Stem;
},
{
place = (52,90);
type = Stem;
},
{
place = (-24,72);
type = Stem;
}
);
layerId = "2F065738-4B59-43EB-A5F2-FD5F277958EA";
shapes = (
{
closed = 1;
nodes = (
(320,-24,ls),
(404,-24,o),
(480,40,o),
(480,127,cs),
(480,235,ls),
(480,322,o),
(404,386,o),
(320,386,cs),
(141,386,l),
(142,445,o),
(142,504,o),
(142,564,cs),
(142,605,o),
(161,646,o),
(206,652,cs),
(226,655,o),
(248,652,o),
(268,652,cs),
(396,652,ls),
(416,652,o),
(441,665,o),
(441,688,cs),
(441,726,o),
(394,724,o),
(368,724,cs),
(321,724,l),
(212,724,ls),
(133,724,o),
(62,668,o),
(53,588,cs),
(50,564,o),
(52,539,o),
(52,515,cs),
(52,398,ls),
(52,375,o),
(52,353,o),
(52,330,cs),
(51,194,ls),
(51,172,o),
(51,149,o),
(51,127,cs),
(51,40,o),
(127,-24,o),
(211,-24,cs)
);
},
{
closed = 1;
nodes = (
(170,48,o),
(141,88,o),
(141,127,cs),
(141,189,o),
(141,251,o),
(141,313,c),
(175,313,o),
(209,314,o),
(242,314,cs),
(258,314,o),
(325,315,o),
(337,311,cs),
(370,300,o),
(390,267,o),
(390,234,cs),
(390,127,ls),
(390,88,o),
(361,48,o),
(318,48,cs),
(212,48,ls)
);
}
);
width = 530;
}
);
note = six.ss01;
},
{
color = 0;
glyphname = eight.ss01;
lastChange = "2023-10-27 10:03:13 +0000";
layers = (
{
hints = (
{
place = (652,72);
type = Stem;
},
{
place = (389,90);
type = Stem;
},
{
place = (314,72);
type = Stem;
},
{
place = (51,90);
type = Stem;
},
{
place = (-24,72);
type = Stem;
}
);
layerId = "2F065738-4B59-43EB-A5F2-FD5F277958EA";
shapes = (
{
closed = 1;
nodes = (
(319,-24,ls),
(403,-24,o),
(479,40,o),
(479,127,cs),
(479,235,ls),
(479,282,o),
(457,323,o),
(423,350,c),
(457,377,o),
(479,418,o),
(479,465,cs),
(479,573,ls),
(479,660,o),
(403,724,o),
(319,724,cs),
(96,724,ls),
(76,724,o),
(51,711,o),
(51,688,cs),
(51,465,ls),
(51,418,o),
(73,377,o),
(107,350,c),
(73,323,o),
(51,282,o),
(51,235,cs),
(51,127,ls),
(51,40,o),
(127,-24,o),
(211,-24,cs)
);
},
{
closed = 1;
nodes = (
(170,48,o),
(141,88,o),
(141,128,cs),
(141,234,ls),
(141,273,o),
(169,312,o),
(211,314,cs),
(319,314,ls),
(361,312,o),
(389,273,o),
(389,234,cs),
(389,128,ls),
(389,88,o),
(360,48,o),
(318,48,cs),
(212,48,ls)
);
},
{
closed = 1;
nodes = (
(169,388,o),
(141,427,o),
(141,466,cs),
(141,652,l),
(318,652,ls),
(360,652,o),
(389,612,o),
(389,572,cs),
(389,466,ls),
(389,427,o),
(361,388,o),
(319,386,cs),
(211,386,ls)
);
}
);
width = 530;
}
);
note = eight.ss01;
},
{
color = 0;
glyphname = period;
lastChange = "2023-10-27 10:03:13 +0000";
layers = (
{
hints = (
{
horizontal = 1;
place = (0,112);
type = Stem;
},
{
place = (51,112);
type = Stem;
}
);
layerId = "2F065738-4B59-43EB-A5F2-FD5F277958EA";
shapes = (
{
closed = 1;
nodes = (
(138,0,o),
(163,25,o),
(163,56,cs),
(163,87,o),
(138,112,o),
(107,112,cs),
(76,112,o),
(51,87,o),
(51,56,cs),
(51,25,o),
(76,0,o),
(107,0,cs)
);
}
);
width = 213;
}
);
note = period;
unicode = 46;
},
{
color = 0;
glyphname = comma;
lastChange = "2023-10-27 10:03:13 +0000";
layers = (
{
hints = (
{
horizontal = 1;
place = (-54,181);
type = Stem;
},
{
place = (56,112);
type = Stem;
}
);
layerId = "2F065738-4B59-43EB-A5F2-FD5F277958EA";
shapes = (
{
closed = 1;
nodes = (
(85,-54,o),
(91,-53,o),
(95,-51,cs),
(138,-27,o),
(168,21,o),
(168,71,cs),
(168,102,o),
(143,127,o),
(112,127,cs),
(81,127,o),
(56,102,o),
(56,71,cs),
(56,48,o),
(69,29,o),
(88,20,c),
(82,13,o),
(74,8,o),
(66,3,cs),
(56,-2,o),
(50,-13,o),
(50,-24,cs),
(50,-28,o),
(52,-34,o),
(54,-38,cs),
(59,-48,o),
(70,-54,o),
(81,-54,cs)
);
}
);
width = 219;
}
);
note = comma;
unicode = 44;
},
{
color = 0;
glyphname = colon;
lastChange = "2023-10-27 10:03:13 +0000";
layers = (
{
hints = (
{
horizontal = 1;
place = (263,112);
type = Stem;
},
{
horizontal = 1;
place = (9,112);
type = Stem;
},
{
place = (51,112);
type = Stem;
}
);
layerId = "2F065738-4B59-43EB-A5F2-FD5F277958EA";
shapes = (
{
closed = 1;
nodes = (
(138,263,o),
(163,288,o),
(163,319,cs),
(163,350,o),
(138,375,o),
(107,375,cs),
(76,375,o),
(51,350,o),
(51,319,cs),
(51,288,o),
(76,263,o),
(107,263,cs)
);
},
{
closed = 1;
nodes = (
(138,9,o),
(163,34,o),
(163,65,cs),
(163,96,o),
(138,121,o),
(107,121,cs),
(76,121,o),
(51,96,o),
(51,65,cs),
(51,34,o),
(76,9,o),
(107,9,cs)
);
}
);
width = 213;
}
);
note = colon;
unicode = 58;
},
{
color = 0;
glyphname = semicolon;
lastChange = "2023-10-27 10:03:13 +0000";
layers = (
{
hints = (
{
horizontal = 1;
place = (263,112);
type = Stem;
},
{
place = (56,111);
type = Stem;
}
);
layerId = "2F065738-4B59-43EB-A5F2-FD5F277958EA";
shapes = (
{
closed = 1;
nodes = (
(85,-54,o),
(91,-53,o),
(95,-51,cs),
(137,-28,o),
(164,14,o),
(167,61,c),
(168,64,o),
(168,67,o),
(168,71,cs),
(168,102,o),
(143,127,o),
(112,127,cs),
(81,127,o),
(56,102,o),
(56,71,cs),
(56,48,o),
(69,29,o),
(88,20,c),
(82,13,o),
(74,8,o),
(66,3,cs),
(56,-2,o),
(50,-13,o),
(50,-24,cs),
(50,-28,o),
(52,-34,o),
(54,-38,cs),
(59,-48,o),
(70,-54,o),
(81,-54,cs)
);
},
{
closed = 1;
nodes = (
(141,263,o),
(166,288,o),
(166,319,cs),
(166,350,o),
(141,375,o),
(110,375,cs),
(79,375,o),
(54,350,o),
(54,319,cs),
(54,288,o),
(79,263,o),
(110,263,cs)
);
}
);
width = 219;
}
);
note = semicolon;
unicode = 59;
},
{
color = 0;
glyphname = exclam;
lastChange = "2023-10-27 10:03:13 +0000";
layers = (
{
hints = (
{
horizontal = 1;
place = (0,112);
type = Stem;
},
{
place = (58,90);
type = Stem;
},
{
place = (50,112);
type = Stem;
}
);
layerId = "2F065738-4B59-43EB-A5F2-FD5F277958EA";
shapes = (
{
closed = 1;
nodes = (
(123,175,o),
(148,188,o),
(148,211,cs),
(148,651,ls),
(148,674,o),
(123,687,o),
(103,687,cs),
(82,687,o),
(58,674,o),
(58,651,cs),
(58,211,ls),
(58,188,o),
(82,175,o),
(103,175,cs)
);
},
{
closed = 1;
nodes = (
(137,0,o),
(162,25,o),
(162,56,cs),
(162,87,o),
(137,112,o),
(106,112,cs),
(75,112,o),
(50,87,o),
(50,56,cs),
(50,25,o),
(75,0,o),
(106,0,cs)
);
}
);
width = 213;
}
);
note = exclam;
unicode = 33;
},
{
color = 0;
glyphname = question;
lastChange = "2023-10-27 10:03:13 +0000";
layers = (
{
hints = (
{
horizontal = 1;
place = (652,72);
type = Stem;
},
{
horizontal = 1;
place = (309,72);
type = Stem;
},
{
horizontal = 1;
place = (-4,112);
type = Stem;
},
{
place = (394,91);
type = Stem;
},
{
place = (222,90);
type = Stem;
},
{
place = (215,111);
type = Stem;
},
{
place = (50,89);
type = Stem;
}
);
layerId = "2F065738-4B59-43EB-A5F2-FD5F277958EA";
shapes = (
{
closed = 1;
nodes = (
(286,182,o),
(307,192,o),
(312,212,cs),
(314,224,o),
(312,237,o),
(312,249,cs),
(312,309,l),
(333,309,o),
(354,310,o),
(374,316,cs),
(426,331,o),
(472,378,o),
(482,432,cs),
(485,454,o),
(485,476,o),
(485,498,cs),
(485,504,o),
(485,510,o),
(485,517,cs),
(484,554,ls),
(484,560,o),
(484,566,o),
(484,573,cs),
(484,660,o),
(408,724,o),
(324,724,cs),
(210,724,ls),
(126,724,o),
(50,660,o),
(50,573,cs),
(50,550,o),
(75,537,o),
(95,537,cs),
(114,537,o),
(135,547,o),
(139,566,cs),
(141,574,o),
(141,582,o),
(142,590,cs),
(148,623,o),
(177,652,o),
(212,652,cs),
(323,652,ls),
(365,652,o),
(394,612,o),
(394,572,cs),
(394,475,ls),
(394,435,o),
(382,391,o),
(336,382,cs),
(321,379,o),
(304,381,o),
(289,381,cs),
(263,381,o),
(222,380,o),
(222,345,cs),
(222,264,ls),
(222,238,o),
(215,205,o),
(240,189,cs),
(248,185,o),
(258,182,o),
(267,182,cs)
);
},
{
closed = 1;
nodes = (
(301,-4,o),
(326,21,o),
(326,52,cs),
(326,83,o),
(301,108,o),
(271,108,cs),
(240,108,o),
(215,83,o),
(215,52,cs),
(215,21,o),
(240,-4,o),
(271,-4,cs)
);
}
);
width = 536;
}
);
note = question;
unicode = 63;
},
{
color = 0;
glyphname = bullet;
lastChange = "2023-10-27 10:03:13 +0000";
layers = (
{
hints = (
{
horizontal = 1;
place = (188,162);
type = Stem;
},
{
place = (50,163);
type = Stem;
}
);
layerId = "2F065738-4B59-43EB-A5F2-FD5F277958EA";
shapes = (
{
closed = 1;
nodes = (
(180,188,o),
(213,220,o),
(213,269,cs),
(213,318,o),
(180,350,o),
(132,350,cs),
(83,350,o),
(50,318,o),
(50,269,cs),
(50,220,o),
(83,188,o),
(132,188,cs)
);
}
);
width = 263;
}
);
note = bullet;
unicode = 8226;
},
{
color = 0;
glyphname = asterisk;
lastChange = "2023-10-27 10:03:13 +0000";
layers = (
{
hints = (
{
horizontal = 1;
place = (568,73);
type = Stem;
},
{
place = (51,428);
type = Stem;
}
);
layerId = "2F065738-4B59-43EB-A5F2-FD5F277958EA";
shapes = (
{
closed = 1;
nodes = (
(168,439,o),
(189,472,o),
(210,493,cs),
(265,548,l),
(319,493,ls),
(341,472,o),
(362,439,o),
(395,439,cs),
(415,439,o),
(440,452,o),
(440,475,cs),
(440,496,o),
(405,522,o),
(391,537,cs),
(359,569,l),
(384,569,o),
(409,569,o),
(434,569,cs),
(454,569,o),
(479,582,o),
(479,605,cs),
(479,645,o),
(426,642,o),
(399,642,cs),
(386,642,o),
(373,642,o),
(359,642,c),
(391,673,ls),
(405,688,o),
(440,714,o),
(440,735,cs),
(440,758,o),
(415,771,o),
(395,771,cs),
(362,771,o),
(341,738,o),
(319,717,cs),
(265,663,l),
(210,718,ls),
(189,739,o),
(168,772,o),
(135,772,cs),
(115,772,o),
(90,759,o),
(90,736,cs),
(90,714,o),
(125,688,o),
(139,674,cs),
(171,641,l),
(146,641,o),
(121,641,o),
(96,641,cs),
(76,641,o),
(51,628,o),
(51,605,cs),
(51,566,o),
(104,568,o),
(131,568,cs),
(144,568,o),
(157,568,o),
(170,568,c),
(139,537,ls),
(125,523,o),
(90,497,o),
(90,475,cs),
(90,452,o),
(114,439,o),
(135,439,cs)
);
}
);
width = 529;
}
);
note = asterisk;
unicode = 42;
},
{
color = 0;
glyphname = numbersign;
lastChange = "2023-10-27 10:03:13 +0000";
layers = (
{
hints = (
{
horizontal = 1;
place = (283,72);
type = Stem;
},
{
horizontal = 1;
place = (148,72);
type = Stem;
},
{
place = (287,90);
type = Stem;
},
{
place = (152,90);
type = Stem;
}
);
layerId = "2F065738-4B59-43EB-A5F2-FD5F277958EA";
shapes = (
{
closed = 1;
nodes = (
(217,47,o),
(242,60,o),
(242,83,cs),
(242,148,l),
(287,148,l),
(287,84,ls),
(287,61,o),
(311,48,o),
(332,48,cs),
(352,48,o),
(377,61,o),
(377,84,cs),
(377,148,l),
(434,148,ls),
(454,148,o),
(479,161,o),
(479,184,cs),
(479,207,o),
(454,220,o),
(434,220,cs),
(377,220,l),
(377,283,l),
(434,283,ls),
(454,283,o),
(479,296,o),
(479,319,cs),
(479,342,o),
(454,355,o),
(434,355,cs),
(377,355,l),
(377,422,ls),
(377,445,o),
(352,458,o),
(332,458,cs),
(311,458,o),
(287,445,o),
(287,422,cs),
(287,355,l),
(242,355,l),
(242,421,ls),
(242,444,o),
(217,457,o),
(197,457,cs),
(176,457,o),
(152,444,o),
(152,421,cs),
(152,355,l),
(95,355,ls),
(75,355,o),
(50,342,o),
(50,319,cs),
(50,296,o),
(75,283,o),
(95,283,cs),
(152,283,l),
(152,220,l),
(95,220,ls),
(75,220,o),
(50,207,o),
(50,184,cs),
(50,161,o),
(75,148,o),
(95,148,cs),
(152,148,l),
(152,83,ls),
(152,60,o),
(176,47,o),
(197,47,cs)
);
},
{
closed = 1;
nodes = (
(242,283,l),
(287,283,l),
(287,220,l),
(242,220,l)
);
}
);
width = 529;
}
);
note = numbersign;
unicode = 35;
},
{
color = 0;
glyphname = slash;
lastChange = "2023-10-27 10:03:13 +0000";
layers = (
{
hints = (
{
horizontal = 1;
place = (-36,767);
type = Stem;
},
{
place = (51,381);
type = Stem;
}
);
layerId = "2F065738-4B59-43EB-A5F2-FD5F277958EA";
shapes = (
{
closed = 1;
nodes = (
(121,-36,o),
(133,-24,o),
(142,-2,cs),
(334,456,ls),
(347,486,o),
(432,681,o),
(432,695,cs),
(432,718,o),
(408,731,o),
(387,731,cs),
(362,731,o),
(350,719,o),
(340,697,cs),
(149,239,ls),
(136,209,o),
(51,14,o),
(51,0,cs),
(51,-23,o),
(75,-36,o),
(96,-36,cs)
);
}
);
width = 483;
}
);
note = slash;
unicode = 47;
},
{
color = 0;
glyphname = backslash;
lastChange = "2023-10-27 10:03:13 +0000";
layers = (
{
hints = (
{
horizontal = 1;
place = (-36,767);
type = Stem;
},
{
place = (51,381);
type = Stem;
}
);
layerId = "2F065738-4B59-43EB-A5F2-FD5F277958EA";
shapes = (
{
closed = 1;
nodes = (
(408,-36,o),
(432,-23,o),
(432,0,cs),
(432,14,o),
(347,209,o),
(334,239,cs),
(142,697,ls),
(133,719,o),
(121,731,o),
(96,731,cs),
(75,731,o),
(51,718,o),
(51,695,cs),
(51,681,o),
(136,486,o),
(149,456,cs),
(340,-2,ls),
(350,-24,o),
(362,-36,o),
(387,-36,cs)
);
}
);
width = 483;
}
);
note = backslash;
unicode = 92;
},
{
color = 0;
glyphname = hyphen;
lastChange = "2023-10-27 10:03:13 +0000";
layers = (
{
hints = (
{
horizontal = 1;
place = (314,72);
type = Stem;
},
{
place = (50,270);
type = Stem;
}
);
layerId = "2F065738-4B59-43EB-A5F2-FD5F277958EA";
shapes = (
{
closed = 1;
nodes = (
(275,314,ls),
(295,314,o),
(320,327,o),
(320,350,cs),
(320,373,o),
(295,386,o),
(275,386,cs),
(95,386,ls),
(75,386,o),
(50,373,o),
(50,350,cs),
(50,327,o),
(75,314,o),
(95,314,cs)
);
}
);
width = 370;
}
);
note = hyphen;
unicode = 45;
},
{
color = 0;
glyphname = endash;
lastChange = "2023-10-27 10:03:13 +0000";
layers = (
{
hints = (
{
horizontal = 1;
place = (308,81);
type = Stem;
},
{
place = (50,312);
type = Stem;
}
);
layerId = "2F065738-4B59-43EB-A5F2-FD5F277958EA";
shapes = (
{
closed = 1;
nodes = (
(317,308,ls),
(340,308,o),
(362,325,o),
(362,349,cs),
(362,373,o),
(340,389,o),
(317,389,cs),
(95,389,ls),
(72,389,o),
(50,373,o),
(50,349,cs),
(50,325,o),
(72,308,o),
(95,308,cs)
);
}
);
width = 412;
}
);
note = endash;
unicode = 8211;
},
{
color = 0;
glyphname = emdash;
lastChange = "2023-10-27 10:03:13 +0000";
layers = (
{
hints = (
{
horizontal = 1;
place = (308,81);
type = Stem;
},
{
place = (50,668);
type = Stem;
}
);
layerId = "2F065738-4B59-43EB-A5F2-FD5F277958EA";
shapes = (
{
closed = 1;
nodes = (
(673,308,ls),
(696,308,o),
(718,325,o),
(718,349,cs),
(718,373,o),
(696,389,o),
(673,389,cs),
(95,389,ls),
(72,389,o),
(50,373,o),
(50,349,cs),
(50,325,o),
(72,308,o),
(95,308,cs)
);
}
);
width = 769;
}
);
note = emdash;
unicode = 8212;
},
{
color = 0;
glyphname = underscore;
lastChange = "2023-10-27 10:03:13 +0000";
layers = (
{
hints = (
{
horizontal = 1;
place = (-153,81);
type = Stem;
},
{
place = (50,312);
type = Stem;
}
);
layerId = "2F065738-4B59-43EB-A5F2-FD5F277958EA";
shapes = (
{
closed = 1;
nodes = (
(317,-153,ls),
(340,-153,o),
(362,-136,o),
(362,-112,cs),
(362,-88,o),
(340,-72,o),
(317,-72,cs),
(95,-72,ls),
(73,-72,o),
(50,-88,o),
(50,-112,cs),
(50,-136,o),
(73,-153,o),
(95,-153,cs)
);
}
);
width = 413;
}
);
note = underscore;
unicode = 95;
},
{
color = 0;
glyphname = parenleft;
lastChange = "2023-10-27 10:03:13 +0000";
layers = (
{
hints = (
{
horizontal = 1;
place = (661,75);
type = Stem;
},
{
horizontal = 1;
place = (-181,72);
type = Stem;
},
{
place = (51,90);
type = Stem;
}
);
layerId = "2F065738-4B59-43EB-A5F2-FD5F277958EA";
shapes = (
{
closed = 1;
nodes = (
(230,-181,o),
(255,-169,o),
(255,-145,cs),
(255,-126,o),
(237,-114,o),
(219,-110,cs),
(210,-109,o),
(201,-109,o),
(192,-107,cs),
(160,-97,o),
(141,-63,o),
(141,-31,cs),
(141,586,ls),
(141,617,o),
(160,652,o),
(192,661,cs),
(201,664,o),
(210,663,o),
(219,665,cs),
(237,668,o),
(255,681,o),
(255,700,cs),
(255,723,o),
(230,736,o),
(210,736,cs),
(126,736,o),
(51,673,o),
(51,586,cs),
(51,-32,ls),
(51,-118,o),
(126,-181,o),
(210,-181,cs)
);
}
);
width = 305;
}
);
note = parenleft;
unicode = 40;
},
{
color = 0;
glyphname = parenright;
lastChange = "2023-10-27 10:03:13 +0000";
layers = (
{
hints = (
{
horizontal = 1;
place = (663,73);
type = Stem;
},
{
horizontal = 1;
place = (-181,74);
type = Stem;
},
{
place = (165,90);
type = Stem;
}
);
layerId = "2F065738-4B59-43EB-A5F2-FD5F277958EA";
shapes = (
{
closed = 1;
nodes = (
(179,-181,o),
(255,-118,o),
(255,-32,cs),
(255,586,ls),
(255,673,o),
(179,736,o),
(96,736,cs),
(75,736,o),
(51,723,o),
(51,700,cs),
(51,681,o),
(69,668,o),
(86,665,cs),
(95,663,o),
(104,664,o),
(113,661,cs),
(145,652,o),
(165,617,o),
(165,586,cs),
(165,-31,ls),
(165,-63,o),
(145,-97,o),
(113,-107,cs),
(104,-109,o),
(95,-109,o),
(86,-110,cs),
(69,-114,o),
(51,-126,o),
(51,-145,cs),
(51,-169,o),
(75,-181,o),
(96,-181,cs)
);
}
);
width = 305;
}
);
note = parenright;
unicode = 41;
},
{
color = 0;
glyphname = braceleft;
lastChange = "2023-10-27 10:03:13 +0000";
layers = (
{
hints = (
{
horizontal = 1;
place = (661,75);
type = Stem;
},
{
horizontal = 1;
place = (314,72);
type = Stem;
},
{
horizontal = 1;
place = (-182,73);
type = Stem;
},
{
place = (155,90);
type = Stem;
}
);
layerId = "2F065738-4B59-43EB-A5F2-FD5F277958EA";
shapes = (
{
closed = 1;
nodes = (
(334,-182,o),
(359,-169,o),
(359,-146,cs),
(359,-126,o),
(341,-114,o),
(324,-110,cs),
(315,-109,o),
(306,-109,o),
(297,-107,cs),
(265,-98,o),
(245,-63,o),
(245,-31,cs),
(245,586,ls),
(245,617,o),
(265,652,o),
(297,661,cs),
(306,664,o),
(315,663,o),
(324,665,cs),
(341,668,o),
(359,681,o),
(359,700,cs),
(359,723,o),
(334,736,o),
(314,736,cs),
(231,736,o),
(155,673,o),
(155,586,cs),
(155,386,l),
(95,386,ls),
(75,386,o),
(50,373,o),
(50,350,cs),
(50,327,o),
(75,314,o),
(95,314,cs),
(155,314,l),
(155,-32,ls),
(155,-118,o),
(231,-182,o),
(314,-182,cs)
);
}
);
width = 409;
}
);
note = braceleft;
unicode = 123;
},
